ISO-10303-21;
HEADER;
/* Generated by software containing ST-Developer
 * from STEP Tools, Inc. (www.steptools.com) 
 */

FILE_DESCRIPTION(
/* description */ (''),
/* implementation_level */ '2;1');

FILE_NAME(
/* name */ 'Poop_Support.step',
/* time_stamp */ '2024-08-11T12:23:35+09:00',
/* author */ (''),
/* organization */ (''),
/* preprocessor_version */ 'ST-DEVELOPER v20',
/* originating_system */ 'Autodesk Translation Framework v13.14.0.145',

/* authorisation */ '');

FILE_SCHEMA (('AUTOMOTIVE_DESIGN { 1 0 10303 214 3 1 1 }'));
ENDSEC;

DATA;
#10=MECHANICAL_DESIGN_GEOMETRIC_PRESENTATION_REPRESENTATION('',(#13),#2023);
#11=SHAPE_REPRESENTATION_RELATIONSHIP('SRR','None',#2030,#12);
#12=ADVANCED_BREP_SHAPE_REPRESENTATION('',(#14),#2022);
#13=STYLED_ITEM('',(#2039),#14);
#14=MANIFOLD_SOLID_BREP('\X2\30DC30C730A3\X0\1',#1165);
#15=TOROIDAL_SURFACE('',#1254,7.85,1.);
#16=TOROIDAL_SURFACE('',#1259,7.85,1.);
#17=TOROIDAL_SURFACE('',#1273,1.45,0.3);
#18=FACE_BOUND('',#164,.T.);
#19=FACE_BOUND('',#173,.T.);
#20=CONICAL_SURFACE('',#1229,8.6,0.785398163397449);
#21=CONICAL_SURFACE('',#1238,7.6,0.785398163397448);
#22=CONICAL_SURFACE('',#1241,7.6,0.785398163397448);
#23=(
BOUNDED_SURFACE()
B_SPLINE_SURFACE(2,2,((#1655,#1656,#1657),(#1658,#1659,#1660),(#1661,#1662,
#1663)),.UNSPECIFIED.,.F.,.F.,.F.)
B_SPLINE_SURFACE_WITH_KNOTS((3,3),(3,3),(-1.5707963267949,0.),(1.5707963267949,
3.14159265358979),.UNSPECIFIED.)
GEOMETRIC_REPRESENTATION_ITEM()
RATIONAL_B_SPLINE_SURFACE(((1.,0.707106781186548,1.),(0.707106781186539,
0.499999999999994,0.707106781186539),(1.,0.707106781186548,1.)))
REPRESENTATION_ITEM('')
SURFACE()
);
#24=(
BOUNDED_SURFACE()
B_SPLINE_SURFACE(2,2,((#1762,#1763,#1764),(#1765,#1766,#1767),(#1768,#1769,
#1770)),.UNSPECIFIED.,.F.,.F.,.F.)
B_SPLINE_SURFACE_WITH_KNOTS((3,3),(3,3),(-1.5707963267949,0.),(0.,1.5707963267949),
 .UNSPECIFIED.)
GEOMETRIC_REPRESENTATION_ITEM()
RATIONAL_B_SPLINE_SURFACE(((1.,0.707106781186548,1.),(0.707106781186539,
0.499999999999994,0.707106781186539),(1.,0.707106781186548,1.)))
REPRESENTATION_ITEM('')
SURFACE()
);
#25=PLANE('',#1183);
#26=PLANE('',#1192);
#27=PLANE('',#1196);
#28=PLANE('',#1202);
#29=PLANE('',#1207);
#30=PLANE('',#1208);
#31=PLANE('',#1217);
#32=PLANE('',#1218);
#33=PLANE('',#1219);
#34=PLANE('',#1222);
#35=PLANE('',#1223);
#36=PLANE('',#1224);
#37=PLANE('',#1225);
#38=PLANE('',#1226);
#39=PLANE('',#1227);
#40=PLANE('',#1228);
#41=PLANE('',#1232);
#42=PLANE('',#1235);
#43=PLANE('',#1236);
#44=PLANE('',#1237);
#45=PLANE('',#1240);
#46=PLANE('',#1245);
#47=PLANE('',#1250);
#48=PLANE('',#1260);
#49=PLANE('',#1265);
#50=PLANE('',#1266);
#51=PLANE('',#1269);
#52=PLANE('',#1272);
#53=PLANE('',#1278);
#54=PLANE('',#1280);
#55=PLANE('',#1281);
#56=PLANE('',#1282);
#57=PLANE('',#1283);
#58=PLANE('',#1284);
#59=PLANE('',#1286);
#60=PLANE('',#1287);
#61=PLANE('',#1288);
#62=PLANE('',#1289);
#63=FACE_OUTER_BOUND('',#128,.T.);
#64=FACE_OUTER_BOUND('',#129,.T.);
#65=FACE_OUTER_BOUND('',#130,.T.);
#66=FACE_OUTER_BOUND('',#131,.T.);
#67=FACE_OUTER_BOUND('',#132,.T.);
#68=FACE_OUTER_BOUND('',#133,.T.);
#69=FACE_OUTER_BOUND('',#134,.T.);
#70=FACE_OUTER_BOUND('',#135,.T.);
#71=FACE_OUTER_BOUND('',#136,.T.);
#72=FACE_OUTER_BOUND('',#137,.T.);
#73=FACE_OUTER_BOUND('',#138,.T.);
#74=FACE_OUTER_BOUND('',#139,.T.);
#75=FACE_OUTER_BOUND('',#140,.T.);
#76=FACE_OUTER_BOUND('',#141,.T.);
#77=FACE_OUTER_BOUND('',#142,.T.);
#78=FACE_OUTER_BOUND('',#143,.T.);
#79=FACE_OUTER_BOUND('',#144,.T.);
#80=FACE_OUTER_BOUND('',#145,.T.);
#81=FACE_OUTER_BOUND('',#146,.T.);
#82=FACE_OUTER_BOUND('',#147,.T.);
#83=FACE_OUTER_BOUND('',#148,.T.);
#84=FACE_OUTER_BOUND('',#149,.T.);
#85=FACE_OUTER_BOUND('',#150,.T.);
#86=FACE_OUTER_BOUND('',#151,.T.);
#87=FACE_OUTER_BOUND('',#152,.T.);
#88=FACE_OUTER_BOUND('',#153,.T.);
#89=FACE_OUTER_BOUND('',#154,.T.);
#90=FACE_OUTER_BOUND('',#155,.T.);
#91=FACE_OUTER_BOUND('',#156,.T.);
#92=FACE_OUTER_BOUND('',#157,.T.);
#93=FACE_OUTER_BOUND('',#158,.T.);
#94=FACE_OUTER_BOUND('',#159,.T.);
#95=FACE_OUTER_BOUND('',#160,.T.);
#96=FACE_OUTER_BOUND('',#161,.T.);
#97=FACE_OUTER_BOUND('',#162,.T.);
#98=FACE_OUTER_BOUND('',#163,.T.);
#99=FACE_OUTER_BOUND('',#165,.T.);
#100=FACE_OUTER_BOUND('',#166,.T.);
#101=FACE_OUTER_BOUND('',#167,.T.);
#102=FACE_OUTER_BOUND('',#168,.T.);
#103=FACE_OUTER_BOUND('',#169,.T.);
#104=FACE_OUTER_BOUND('',#170,.T.);
#105=FACE_OUTER_BOUND('',#171,.T.);
#106=FACE_OUTER_BOUND('',#172,.T.);
#107=FACE_OUTER_BOUND('',#174,.T.);
#108=FACE_OUTER_BOUND('',#175,.T.);
#109=FACE_OUTER_BOUND('',#176,.T.);
#110=FACE_OUTER_BOUND('',#177,.T.);
#111=FACE_OUTER_BOUND('',#178,.T.);
#112=FACE_OUTER_BOUND('',#179,.T.);
#113=FACE_OUTER_BOUND('',#180,.T.);
#114=FACE_OUTER_BOUND('',#181,.T.);
#115=FACE_OUTER_BOUND('',#182,.T.);
#116=FACE_OUTER_BOUND('',#183,.T.);
#117=FACE_OUTER_BOUND('',#184,.T.);
#118=FACE_OUTER_BOUND('',#185,.T.);
#119=FACE_OUTER_BOUND('',#186,.T.);
#120=FACE_OUTER_BOUND('',#187,.T.);
#121=FACE_OUTER_BOUND('',#188,.T.);
#122=FACE_OUTER_BOUND('',#189,.T.);
#123=FACE_OUTER_BOUND('',#190,.T.);
#124=FACE_OUTER_BOUND('',#191,.T.);
#125=FACE_OUTER_BOUND('',#192,.T.);
#126=FACE_OUTER_BOUND('',#193,.T.);
#127=FACE_OUTER_BOUND('',#194,.T.);
#128=EDGE_LOOP('',(#747,#748,#749,#750,#751,#752));
#129=EDGE_LOOP('',(#753,#754,#755,#756));
#130=EDGE_LOOP('',(#757,#758,#759,#760,#761));
#131=EDGE_LOOP('',(#762,#763,#764,#765));
#132=EDGE_LOOP('',(#766,#767,#768,#769));
#133=EDGE_LOOP('',(#770,#771,#772,#773,#774,#775,#776,#777,#778,#779,#780));
#134=EDGE_LOOP('',(#781,#782,#783,#784));
#135=EDGE_LOOP('',(#785,#786,#787,#788,#789,#790,#791,#792,#793,#794,#795,
#796,#797,#798,#799));
#136=EDGE_LOOP('',(#800,#801,#802,#803,#804));
#137=EDGE_LOOP('',(#805,#806,#807,#808,#809,#810));
#138=EDGE_LOOP('',(#811,#812,#813,#814));
#139=EDGE_LOOP('',(#815,#816,#817,#818,#819));
#140=EDGE_LOOP('',(#820,#821,#822,#823));
#141=EDGE_LOOP('',(#824,#825,#826,#827,#828));
#142=EDGE_LOOP('',(#829,#830,#831,#832));
#143=EDGE_LOOP('',(#833,#834,#835,#836));
#144=EDGE_LOOP('',(#837,#838,#839,#840));
#145=EDGE_LOOP('',(#841,#842,#843,#844,#845));
#146=EDGE_LOOP('',(#846,#847,#848,#849,#850,#851,#852,#853));
#147=EDGE_LOOP('',(#854,#855,#856,#857));
#148=EDGE_LOOP('',(#858,#859,#860,#861));
#149=EDGE_LOOP('',(#862,#863,#864,#865));
#150=EDGE_LOOP('',(#866,#867,#868,#869));
#151=EDGE_LOOP('',(#870,#871,#872,#873));
#152=EDGE_LOOP('',(#874,#875,#876,#877));
#153=EDGE_LOOP('',(#878,#879,#880,#881));
#154=EDGE_LOOP('',(#882,#883,#884,#885));
#155=EDGE_LOOP('',(#886,#887,#888,#889));
#156=EDGE_LOOP('',(#890,#891,#892,#893));
#157=EDGE_LOOP('',(#894,#895,#896,#897));
#158=EDGE_LOOP('',(#898,#899,#900,#901,#902,#903,#904,#905));
#159=EDGE_LOOP('',(#906,#907,#908,#909));
#160=EDGE_LOOP('',(#910,#911,#912,#913));
#161=EDGE_LOOP('',(#914,#915,#916,#917));
#162=EDGE_LOOP('',(#918,#919,#920,#921));
#163=EDGE_LOOP('',(#922,#923,#924,#925));
#164=EDGE_LOOP('',(#926,#927,#928,#929,#930,#931,#932,#933));
#165=EDGE_LOOP('',(#934,#935,#936,#937));
#166=EDGE_LOOP('',(#938,#939,#940,#941));
#167=EDGE_LOOP('',(#942,#943,#944,#945,#946));
#168=EDGE_LOOP('',(#947,#948,#949,#950));
#169=EDGE_LOOP('',(#951,#952,#953,#954));
#170=EDGE_LOOP('',(#955,#956,#957,#958));
#171=EDGE_LOOP('',(#959,#960,#961,#962));
#172=EDGE_LOOP('',(#963,#964,#965,#966,#967));
#173=EDGE_LOOP('',(#968,#969,#970,#971,#972,#973,#974,#975));
#174=EDGE_LOOP('',(#976,#977,#978,#979));
#175=EDGE_LOOP('',(#980,#981,#982,#983));
#176=EDGE_LOOP('',(#984,#985,#986,#987,#988,#989));
#177=EDGE_LOOP('',(#990,#991,#992,#993));
#178=EDGE_LOOP('',(#994,#995,#996,#997,#998,#999,#1000));
#179=EDGE_LOOP('',(#1001,#1002,#1003,#1004));
#180=EDGE_LOOP('',(#1005,#1006,#1007,#1008,#1009));
#181=EDGE_LOOP('',(#1010,#1011,#1012,#1013));
#182=EDGE_LOOP('',(#1014,#1015,#1016,#1017,#1018));
#183=EDGE_LOOP('',(#1019));
#184=EDGE_LOOP('',(#1020,#1021,#1022,#1023,#1024,#1025,#1026,#1027));
#185=EDGE_LOOP('',(#1028,#1029,#1030,#1031));
#186=EDGE_LOOP('',(#1032,#1033,#1034,#1035));
#187=EDGE_LOOP('',(#1036,#1037,#1038,#1039));
#188=EDGE_LOOP('',(#1040,#1041,#1042,#1043));
#189=EDGE_LOOP('',(#1044,#1045,#1046,#1047));
#190=EDGE_LOOP('',(#1048,#1049,#1050,#1051));
#191=EDGE_LOOP('',(#1052,#1053,#1054,#1055));
#192=EDGE_LOOP('',(#1056,#1057,#1058,#1059));
#193=EDGE_LOOP('',(#1060,#1061,#1062,#1063,#1064,#1065,#1066,#1067,#1068));
#194=EDGE_LOOP('',(#1069,#1070,#1071,#1072,#1073,#1074,#1075,#1076,#1077,
#1078,#1079,#1080));
#195=ELLIPSE('',#1181,0.707106781186548,0.5);
#196=ELLIPSE('',#1182,0.707106781186548,0.5);
#197=ELLIPSE('',#1191,0.707106781186548,0.5);
#198=ELLIPSE('',#1204,0.707106781186548,0.5);
#199=ELLIPSE('',#1206,0.707106781186548,0.5);
#200=ELLIPSE('',#1209,0.707106781186548,0.5);
#201=ELLIPSE('',#1252,1.41421356237309,1.);
#202=CIRCLE('',#1180,0.5);
#203=CIRCLE('',#1184,0.5);
#204=CIRCLE('',#1185,0.5);
#205=CIRCLE('',#1186,1.);
#206=CIRCLE('',#1187,0.5);
#207=CIRCLE('',#1189,0.5);
#208=CIRCLE('',#1193,10.);
#209=CIRCLE('',#1195,1.);
#210=CIRCLE('',#1197,7.7);
#211=CIRCLE('',#1198,7.7);
#212=CIRCLE('',#1199,8.85);
#213=CIRCLE('',#1200,7.85);
#214=CIRCLE('',#1201,7.85);
#215=CIRCLE('',#1205,0.5);
#216=CIRCLE('',#1211,0.5);
#217=CIRCLE('',#1212,0.5);
#218=CIRCLE('',#1213,0.499999999999999);
#219=CIRCLE('',#1214,1.);
#220=CIRCLE('',#1216,0.5);
#221=CIRCLE('',#1220,8.85);
#222=CIRCLE('',#1221,0.5);
#223=CIRCLE('',#1230,8.85);
#224=CIRCLE('',#1231,8.35);
#225=CIRCLE('',#1234,8.85);
#226=CIRCLE('',#1239,7.5);
#227=CIRCLE('',#1242,7.5);
#228=CIRCLE('',#1244,7.5);
#229=CIRCLE('',#1246,1.75);
#230=CIRCLE('',#1247,2.25);
#231=CIRCLE('',#1249,7.5);
#232=CIRCLE('',#1255,8.85);
#233=CIRCLE('',#1256,1.);
#234=CIRCLE('',#1258,1.);
#235=CIRCLE('',#1261,1.75);
#236=CIRCLE('',#1262,2.25);
#237=CIRCLE('',#1264,8.85);
#238=CIRCLE('',#1268,10.);
#239=CIRCLE('',#1274,1.45);
#240=CIRCLE('',#1275,0.3);
#241=CIRCLE('',#1276,1.75);
#242=CIRCLE('',#1277,1.75);
#243=LINE('',#1641,#357);
#244=LINE('',#1645,#358);
#245=LINE('',#1653,#359);
#246=LINE('',#1654,#360);
#247=LINE('',#1671,#361);
#248=LINE('',#1676,#362);
#249=LINE('',#1679,#363);
#250=LINE('',#1681,#364);
#251=LINE('',#1683,#365);
#252=LINE('',#1685,#366);
#253=LINE('',#1687,#367);
#254=LINE('',#1689,#368);
#255=LINE('',#1693,#369);
#256=LINE('',#1695,#370);
#257=LINE('',#1696,#371);
#258=LINE('',#1699,#372);
#259=LINE('',#1703,#373);
#260=LINE('',#1707,#374);
#261=LINE('',#1711,#375);
#262=LINE('',#1713,#376);
#263=LINE('',#1715,#377);
#264=LINE('',#1717,#378);
#265=LINE('',#1721,#379);
#266=LINE('',#1725,#380);
#267=LINE('',#1729,#381);
#268=LINE('',#1730,#382);
#269=LINE('',#1736,#383);
#270=LINE('',#1740,#384);
#271=LINE('',#1753,#385);
#272=LINE('',#1755,#386);
#273=LINE('',#1756,#387);
#274=LINE('',#1759,#388);
#275=LINE('',#1778,#389);
#276=LINE('',#1780,#390);
#277=LINE('',#1784,#391);
#278=LINE('',#1786,#392);
#279=LINE('',#1788,#393);
#280=LINE('',#1789,#394);
#281=LINE('',#1792,#395);
#282=LINE('',#1797,#396);
#283=LINE('',#1800,#397);
#284=LINE('',#1802,#398);
#285=LINE('',#1804,#399);
#286=LINE('',#1815,#400);
#287=LINE('',#1818,#401);
#288=LINE('',#1820,#402);
#289=LINE('',#1821,#403);
#290=LINE('',#1825,#404);
#291=LINE('',#1827,#405);
#292=LINE('',#1829,#406);
#293=LINE('',#1830,#407);
#294=LINE('',#1834,#408);
#295=LINE('',#1836,#409);
#296=LINE('',#1838,#410);
#297=LINE('',#1839,#411);
#298=LINE('',#1841,#412);
#299=LINE('',#1842,#413);
#300=LINE('',#1844,#414);
#301=LINE('',#1845,#415);
#302=LINE('',#1848,#416);
#303=LINE('',#1850,#417);
#304=LINE('',#1851,#418);
#305=LINE('',#1856,#419);
#306=LINE('',#1859,#420);
#307=LINE('',#1860,#421);
#308=LINE('',#1864,#422);
#309=LINE('',#1867,#423);
#310=LINE('',#1868,#424);
#311=LINE('',#1871,#425);
#312=LINE('',#1872,#426);
#313=LINE('',#1876,#427);
#314=LINE('',#1880,#428);
#315=LINE('',#1881,#429);
#316=LINE('',#1886,#430);
#317=LINE('',#1890,#431);
#318=LINE('',#1891,#432);
#319=LINE('',#1896,#433);
#320=LINE('',#1898,#434);
#321=LINE('',#1900,#435);
#322=LINE('',#1904,#436);
#323=LINE('',#1906,#437);
#324=LINE('',#1907,#438);
#325=LINE('',#1910,#439);
#326=LINE('',#1913,#440);
#327=LINE('',#1916,#441);
#328=LINE('',#1944,#442);
#329=LINE('',#1948,#443);
#330=LINE('',#1949,#444);
#331=LINE('',#1952,#445);
#332=LINE('',#1954,#446);
#333=LINE('',#1958,#447);
#334=LINE('',#1960,#448);
#335=LINE('',#1962,#449);
#336=LINE('',#1965,#450);
#337=LINE('',#1970,#451);
#338=LINE('',#1971,#452);
#339=LINE('',#1974,#453);
#340=LINE('',#1975,#454);
#341=LINE('',#1979,#455);
#342=LINE('',#1981,#456);
#343=LINE('',#1982,#457);
#344=LINE('',#1984,#458);
#345=LINE('',#1988,#459);
#346=LINE('',#1989,#460);
#347=LINE('',#2000,#461);
#348=LINE('',#2001,#462);
#349=LINE('',#2002,#463);
#350=LINE('',#2004,#464);
#351=LINE('',#2005,#465);
#352=LINE('',#2008,#466);
#353=LINE('',#2010,#467);
#354=LINE('',#2012,#468);
#355=LINE('',#2014,#469);
#356=LINE('',#2017,#470);
#357=VECTOR('',#1294,10.);
#358=VECTOR('',#1297,10.);
#359=VECTOR('',#1306,10.);
#360=VECTOR('',#1307,10.);
#361=VECTOR('',#1316,10.);
#362=VECTOR('',#1323,10.);
#363=VECTOR('',#1326,10.);
#364=VECTOR('',#1327,10.);
#365=VECTOR('',#1328,10.);
#366=VECTOR('',#1329,10.);
#367=VECTOR('',#1330,10.);
#368=VECTOR('',#1331,10.);
#369=VECTOR('',#1334,10.);
#370=VECTOR('',#1335,10.);
#371=VECTOR('',#1336,10.);
#372=VECTOR('',#1339,10.);
#373=VECTOR('',#1344,10.);
#374=VECTOR('',#1347,10.);
#375=VECTOR('',#1350,10.);
#376=VECTOR('',#1351,10.);
#377=VECTOR('',#1352,10.);
#378=VECTOR('',#1353,10.);
#379=VECTOR('',#1356,10.);
#380=VECTOR('',#1359,10.);
#381=VECTOR('',#1364,10.);
#382=VECTOR('',#1365,10.);
#383=VECTOR('',#1370,10.);
#384=VECTOR('',#1373,10.);
#385=VECTOR('',#1378,10.);
#386=VECTOR('',#1379,10.);
#387=VECTOR('',#1380,10.);
#388=VECTOR('',#1385,10.);
#389=VECTOR('',#1400,10.);
#390=VECTOR('',#1403,10.);
#391=VECTOR('',#1406,10.);
#392=VECTOR('',#1407,10.);
#393=VECTOR('',#1408,10.);
#394=VECTOR('',#1409,10.);
#395=VECTOR('',#1412,10.);
#396=VECTOR('',#1417,10.);
#397=VECTOR('',#1420,10.);
#398=VECTOR('',#1421,10.);
#399=VECTOR('',#1422,10.);
#400=VECTOR('',#1423,10.);
#401=VECTOR('',#1426,10.);
#402=VECTOR('',#1427,10.);
#403=VECTOR('',#1428,10.);
#404=VECTOR('',#1431,10.);
#405=VECTOR('',#1432,10.);
#406=VECTOR('',#1433,10.);
#407=VECTOR('',#1434,10.);
#408=VECTOR('',#1437,10.);
#409=VECTOR('',#1438,10.);
#410=VECTOR('',#1439,10.);
#411=VECTOR('',#1440,10.);
#412=VECTOR('',#1443,10.);
#413=VECTOR('',#1444,10.);
#414=VECTOR('',#1447,10.);
#415=VECTOR('',#1448,10.);
#416=VECTOR('',#1451,10.);
#417=VECTOR('',#1452,10.);
#418=VECTOR('',#1453,10.);
#419=VECTOR('',#1458,10.);
#420=VECTOR('',#1463,10.);
#421=VECTOR('',#1464,10.);
#422=VECTOR('',#1469,10.);
#423=VECTOR('',#1472,10.);
#424=VECTOR('',#1473,10.);
#425=VECTOR('',#1476,10.);
#426=VECTOR('',#1477,10.);
#427=VECTOR('',#1482,10.);
#428=VECTOR('',#1487,10.);
#429=VECTOR('',#1488,10.);
#430=VECTOR('',#1495,10.);
#431=VECTOR('',#1500,10.);
#432=VECTOR('',#1501,10.);
#433=VECTOR('',#1504,10.);
#434=VECTOR('',#1505,10.);
#435=VECTOR('',#1506,10.);
#436=VECTOR('',#1509,10.);
#437=VECTOR('',#1510,10.);
#438=VECTOR('',#1511,10.);
#439=VECTOR('',#1514,10.);
#440=VECTOR('',#1519,10.);
#441=VECTOR('',#1522,10.);
#442=VECTOR('',#1537,10.);
#443=VECTOR('',#1542,10.);
#444=VECTOR('',#1543,10.);
#445=VECTOR('',#1544,10.);
#446=VECTOR('',#1545,10.);
#447=VECTOR('',#1548,10.);
#448=VECTOR('',#1549,10.);
#449=VECTOR('',#1550,10.);
#450=VECTOR('',#1553,10.);
#451=VECTOR('',#1560,10.);
#452=VECTOR('',#1561,10.);
#453=VECTOR('',#1564,10.);
#454=VECTOR('',#1565,10.);
#455=VECTOR('',#1570,10.);
#456=VECTOR('',#1573,10.);
#457=VECTOR('',#1574,10.);
#458=VECTOR('',#1577,10.);
#459=VECTOR('',#1582,10.);
#460=VECTOR('',#1583,10.);
#461=VECTOR('',#1598,1.75);
#462=VECTOR('',#1599,10.);
#463=VECTOR('',#1600,10.);
#464=VECTOR('',#1603,10.);
#465=VECTOR('',#1604,10.);
#466=VECTOR('',#1609,10.);
#467=VECTOR('',#1612,10.);
#468=VECTOR('',#1615,10.);
#469=VECTOR('',#1618,10.);
#470=VECTOR('',#1623,10.);
#471=B_SPLINE_CURVE_WITH_KNOTS('',3,(#1632,#1633,#1634,#1635,#1636,#1637,
#1638,#1639),.UNSPECIFIED.,.F.,.F.,(4,2,2,4),(-0.0230234168974989,-0.0106387030235536,
0.,0.000324170994677032),.UNSPECIFIED.);
#472=B_SPLINE_CURVE_WITH_KNOTS('',3,(#1742,#1743,#1744,#1745,#1746,#1747,
#1748,#1749),.UNSPECIFIED.,.F.,.F.,(4,2,2,4),(-0.201701810773161,-0.201377639788805,
-0.19073893710527,-0.178354223627031),.UNSPECIFIED.);
#473=B_SPLINE_CURVE_WITH_KNOTS('',3,(#1805,#1806,#1807,#1808,#1809,#1810,
#1811,#1812,#1813,#1814),.UNSPECIFIED.,.F.,.F.,(4,2,2,2,4),(0.520505515557727,
0.537141103152676,0.555727236618937,0.60819363310623,0.757886646412614),
 .UNSPECIFIED.);
#474=B_SPLINE_CURVE_WITH_KNOTS('',3,(#1918,#1919,#1920,#1921,#1922,#1923,
#1924,#1925,#1926,#1927,#1928,#1929,#1930,#1931),.UNSPECIFIED.,.F.,.F.,
(4,2,2,2,2,2,4),(0.211882230957217,0.227278702891317,0.247250712548677,
0.267222722206037,0.29230374104781,0.317384759889583,0.379130655857123),
 .UNSPECIFIED.);
#475=B_SPLINE_CURVE_WITH_KNOTS('',3,(#1932,#1933,#1934,#1935),
 .UNSPECIFIED.,.F.,.F.,(4,4),(0.856506626788327,0.868205875417634),
 .UNSPECIFIED.);
#476=VERTEX_POINT('',#1630);
#477=VERTEX_POINT('',#1631);
#478=VERTEX_POINT('',#1640);
#479=VERTEX_POINT('',#1642);
#480=VERTEX_POINT('',#1644);
#481=VERTEX_POINT('',#1646);
#482=VERTEX_POINT('',#1650);
#483=VERTEX_POINT('',#1652);
#484=VERTEX_POINT('',#1664);
#485=VERTEX_POINT('',#1666);
#486=VERTEX_POINT('',#1670);
#487=VERTEX_POINT('',#1674);
#488=VERTEX_POINT('',#1678);
#489=VERTEX_POINT('',#1680);
#490=VERTEX_POINT('',#1682);
#491=VERTEX_POINT('',#1684);
#492=VERTEX_POINT('',#1686);
#493=VERTEX_POINT('',#1688);
#494=VERTEX_POINT('',#1690);
#495=VERTEX_POINT('',#1692);
#496=VERTEX_POINT('',#1694);
#497=VERTEX_POINT('',#1698);
#498=VERTEX_POINT('',#1702);
#499=VERTEX_POINT('',#1704);
#500=VERTEX_POINT('',#1706);
#501=VERTEX_POINT('',#1708);
#502=VERTEX_POINT('',#1710);
#503=VERTEX_POINT('',#1712);
#504=VERTEX_POINT('',#1714);
#505=VERTEX_POINT('',#1716);
#506=VERTEX_POINT('',#1718);
#507=VERTEX_POINT('',#1720);
#508=VERTEX_POINT('',#1722);
#509=VERTEX_POINT('',#1724);
#510=VERTEX_POINT('',#1728);
#511=VERTEX_POINT('',#1732);
#512=VERTEX_POINT('',#1733);
#513=VERTEX_POINT('',#1735);
#514=VERTEX_POINT('',#1737);
#515=VERTEX_POINT('',#1739);
#516=VERTEX_POINT('',#1741);
#517=VERTEX_POINT('',#1752);
#518=VERTEX_POINT('',#1754);
#519=VERTEX_POINT('',#1771);
#520=VERTEX_POINT('',#1776);
#521=VERTEX_POINT('',#1782);
#522=VERTEX_POINT('',#1783);
#523=VERTEX_POINT('',#1785);
#524=VERTEX_POINT('',#1787);
#525=VERTEX_POINT('',#1791);
#526=VERTEX_POINT('',#1793);
#527=VERTEX_POINT('',#1795);
#528=VERTEX_POINT('',#1799);
#529=VERTEX_POINT('',#1801);
#530=VERTEX_POINT('',#1803);
#531=VERTEX_POINT('',#1817);
#532=VERTEX_POINT('',#1819);
#533=VERTEX_POINT('',#1823);
#534=VERTEX_POINT('',#1824);
#535=VERTEX_POINT('',#1826);
#536=VERTEX_POINT('',#1828);
#537=VERTEX_POINT('',#1832);
#538=VERTEX_POINT('',#1833);
#539=VERTEX_POINT('',#1835);
#540=VERTEX_POINT('',#1837);
#541=VERTEX_POINT('',#1847);
#542=VERTEX_POINT('',#1849);
#543=VERTEX_POINT('',#1853);
#544=VERTEX_POINT('',#1855);
#545=VERTEX_POINT('',#1862);
#546=VERTEX_POINT('',#1866);
#547=VERTEX_POINT('',#1870);
#548=VERTEX_POINT('',#1875);
#549=VERTEX_POINT('',#1879);
#550=VERTEX_POINT('',#1885);
#551=VERTEX_POINT('',#1889);
#552=VERTEX_POINT('',#1892);
#553=VERTEX_POINT('',#1893);
#554=VERTEX_POINT('',#1895);
#555=VERTEX_POINT('',#1897);
#556=VERTEX_POINT('',#1899);
#557=VERTEX_POINT('',#1901);
#558=VERTEX_POINT('',#1903);
#559=VERTEX_POINT('',#1905);
#560=VERTEX_POINT('',#1909);
#561=VERTEX_POINT('',#1915);
#562=VERTEX_POINT('',#1917);
#563=VERTEX_POINT('',#1939);
#564=VERTEX_POINT('',#1947);
#565=VERTEX_POINT('',#1950);
#566=VERTEX_POINT('',#1951);
#567=VERTEX_POINT('',#1953);
#568=VERTEX_POINT('',#1955);
#569=VERTEX_POINT('',#1957);
#570=VERTEX_POINT('',#1959);
#571=VERTEX_POINT('',#1961);
#572=VERTEX_POINT('',#1963);
#573=VERTEX_POINT('',#1969);
#574=VERTEX_POINT('',#1973);
#575=VERTEX_POINT('',#1977);
#576=VERTEX_POINT('',#1987);
#577=VERTEX_POINT('',#1991);
#578=VERTEX_POINT('',#1993);
#579=VERTEX_POINT('',#1995);
#580=EDGE_CURVE('',#476,#477,#471,.T.);
#581=EDGE_CURVE('',#477,#478,#243,.T.);
#582=EDGE_CURVE('',#478,#479,#202,.F.);
#583=EDGE_CURVE('',#479,#480,#244,.T.);
#584=EDGE_CURVE('',#480,#481,#195,.T.);
#585=EDGE_CURVE('',#481,#476,#196,.T.);
#586=EDGE_CURVE('',#482,#477,#203,.T.);
#587=EDGE_CURVE('',#483,#482,#245,.T.);
#588=EDGE_CURVE('',#483,#478,#246,.T.);
#589=EDGE_CURVE('',#476,#484,#204,.T.);
#590=EDGE_CURVE('',#484,#485,#205,.T.);
#591=EDGE_CURVE('',#482,#485,#206,.T.);
#592=EDGE_CURVE('',#485,#486,#247,.T.);
#593=EDGE_CURVE('',#486,#483,#207,.F.);
#594=EDGE_CURVE('',#481,#487,#197,.T.);
#595=EDGE_CURVE('',#487,#484,#248,.T.);
#596=EDGE_CURVE('',#486,#488,#249,.T.);
#597=EDGE_CURVE('',#489,#485,#250,.T.);
#598=EDGE_CURVE('',#490,#489,#251,.T.);
#599=EDGE_CURVE('',#491,#490,#252,.T.);
#600=EDGE_CURVE('',#492,#491,#253,.T.);
#601=EDGE_CURVE('',#493,#492,#254,.T.);
#602=EDGE_CURVE('',#494,#493,#208,.T.);
#603=EDGE_CURVE('',#494,#495,#255,.T.);
#604=EDGE_CURVE('',#496,#495,#256,.T.);
#605=EDGE_CURVE('',#488,#496,#257,.T.);
#606=EDGE_CURVE('',#484,#497,#258,.T.);
#607=EDGE_CURVE('',#489,#497,#209,.T.);
#608=EDGE_CURVE('',#498,#487,#259,.T.);
#609=EDGE_CURVE('',#499,#498,#210,.T.);
#610=EDGE_CURVE('',#500,#499,#260,.T.);
#611=EDGE_CURVE('',#501,#500,#211,.T.);
#612=EDGE_CURVE('',#502,#501,#261,.T.);
#613=EDGE_CURVE('',#503,#502,#262,.T.);
#614=EDGE_CURVE('',#504,#503,#263,.T.);
#615=EDGE_CURVE('',#505,#504,#264,.T.);
#616=EDGE_CURVE('',#505,#506,#212,.F.);
#617=EDGE_CURVE('',#507,#506,#265,.T.);
#618=EDGE_CURVE('',#508,#507,#213,.T.);
#619=EDGE_CURVE('',#509,#508,#266,.T.);
#620=EDGE_CURVE('',#497,#509,#214,.T.);
#621=EDGE_CURVE('',#480,#510,#267,.T.);
#622=EDGE_CURVE('',#510,#498,#268,.T.);
#623=EDGE_CURVE('',#511,#512,#198,.T.);
#624=EDGE_CURVE('',#512,#513,#269,.T.);
#625=EDGE_CURVE('',#513,#514,#215,.F.);
#626=EDGE_CURVE('',#514,#515,#270,.T.);
#627=EDGE_CURVE('',#515,#516,#472,.T.);
#628=EDGE_CURVE('',#516,#511,#199,.T.);
#629=EDGE_CURVE('',#517,#512,#271,.T.);
#630=EDGE_CURVE('',#518,#517,#272,.T.);
#631=EDGE_CURVE('',#518,#513,#273,.T.);
#632=EDGE_CURVE('',#502,#511,#200,.T.);
#633=EDGE_CURVE('',#517,#501,#274,.T.);
#634=EDGE_CURVE('',#516,#503,#216,.T.);
#635=EDGE_CURVE('',#515,#519,#217,.T.);
#636=EDGE_CURVE('',#519,#496,#218,.T.);
#637=EDGE_CURVE('',#496,#503,#219,.T.);
#638=EDGE_CURVE('',#520,#488,#220,.F.);
#639=EDGE_CURVE('',#519,#520,#275,.T.);
#640=EDGE_CURVE('',#514,#520,#276,.T.);
#641=EDGE_CURVE('',#521,#522,#277,.T.);
#642=EDGE_CURVE('',#522,#523,#278,.T.);
#643=EDGE_CURVE('',#523,#524,#279,.T.);
#644=EDGE_CURVE('',#524,#521,#280,.T.);
#645=EDGE_CURVE('',#522,#525,#281,.T.);
#646=EDGE_CURVE('',#525,#526,#221,.T.);
#647=EDGE_CURVE('',#527,#526,#222,.T.);
#648=EDGE_CURVE('',#527,#523,#282,.T.);
#649=EDGE_CURVE('',#528,#521,#283,.T.);
#650=EDGE_CURVE('',#529,#528,#284,.T.);
#651=EDGE_CURVE('',#530,#529,#285,.T.);
#652=EDGE_CURVE('',#507,#530,#473,.F.);
#653=EDGE_CURVE('',#506,#525,#286,.T.);
#654=EDGE_CURVE('',#490,#531,#287,.T.);
#655=EDGE_CURVE('',#531,#532,#288,.T.);
#656=EDGE_CURVE('',#532,#491,#289,.T.);
#657=EDGE_CURVE('',#533,#534,#290,.T.);
#658=EDGE_CURVE('',#534,#535,#291,.T.);
#659=EDGE_CURVE('',#535,#536,#292,.T.);
#660=EDGE_CURVE('',#536,#533,#293,.T.);
#661=EDGE_CURVE('',#537,#538,#294,.T.);
#662=EDGE_CURVE('',#538,#539,#295,.T.);
#663=EDGE_CURVE('',#539,#540,#296,.T.);
#664=EDGE_CURVE('',#540,#537,#297,.T.);
#665=EDGE_CURVE('',#534,#539,#298,.T.);
#666=EDGE_CURVE('',#538,#535,#299,.T.);
#667=EDGE_CURVE('',#532,#537,#300,.T.);
#668=EDGE_CURVE('',#540,#491,#301,.T.);
#669=EDGE_CURVE('',#541,#533,#302,.T.);
#670=EDGE_CURVE('',#536,#542,#303,.T.);
#671=EDGE_CURVE('',#542,#541,#304,.T.);
#672=EDGE_CURVE('',#490,#543,#223,.T.);
#673=EDGE_CURVE('',#543,#544,#305,.T.);
#674=EDGE_CURVE('',#544,#531,#224,.T.);
#675=EDGE_CURVE('',#542,#544,#306,.T.);
#676=EDGE_CURVE('',#543,#541,#307,.T.);
#677=EDGE_CURVE('',#545,#489,#225,.T.);
#678=EDGE_CURVE('',#543,#545,#308,.T.);
#679=EDGE_CURVE('',#540,#546,#309,.T.);
#680=EDGE_CURVE('',#546,#492,#310,.T.);
#681=EDGE_CURVE('',#547,#539,#311,.T.);
#682=EDGE_CURVE('',#546,#547,#312,.T.);
#683=EDGE_CURVE('',#548,#499,#313,.T.);
#684=EDGE_CURVE('',#510,#548,#226,.T.);
#685=EDGE_CURVE('',#549,#500,#314,.T.);
#686=EDGE_CURVE('',#548,#549,#315,.T.);
#687=EDGE_CURVE('',#549,#517,#227,.T.);
#688=EDGE_CURVE('',#550,#549,#316,.T.);
#689=EDGE_CURVE('',#550,#518,#228,.T.);
#690=EDGE_CURVE('',#551,#548,#317,.T.);
#691=EDGE_CURVE('',#551,#550,#318,.T.);
#692=EDGE_CURVE('',#552,#553,#229,.T.);
#693=EDGE_CURVE('',#553,#554,#319,.T.);
#694=EDGE_CURVE('',#554,#555,#320,.T.);
#695=EDGE_CURVE('',#555,#556,#321,.T.);
#696=EDGE_CURVE('',#556,#557,#230,.T.);
#697=EDGE_CURVE('',#557,#558,#322,.T.);
#698=EDGE_CURVE('',#558,#559,#323,.T.);
#699=EDGE_CURVE('',#559,#552,#324,.T.);
#700=EDGE_CURVE('',#560,#510,#325,.T.);
#701=EDGE_CURVE('',#560,#551,#231,.T.);
#702=EDGE_CURVE('',#479,#560,#326,.T.);
#703=EDGE_CURVE('',#495,#561,#327,.T.);
#704=EDGE_CURVE('',#561,#562,#474,.F.);
#705=EDGE_CURVE('',#562,#505,#475,.F.);
#706=EDGE_CURVE('',#504,#495,#201,.T.);
#707=EDGE_CURVE('',#530,#563,#232,.T.);
#708=EDGE_CURVE('',#563,#508,#233,.T.);
#709=EDGE_CURVE('',#545,#509,#234,.T.);
#710=EDGE_CURVE('',#563,#545,#328,.T.);
#711=EDGE_CURVE('',#564,#563,#329,.T.);
#712=EDGE_CURVE('',#541,#564,#330,.T.);
#713=EDGE_CURVE('',#565,#566,#331,.T.);
#714=EDGE_CURVE('',#566,#567,#332,.T.);
#715=EDGE_CURVE('',#567,#568,#235,.T.);
#716=EDGE_CURVE('',#568,#569,#333,.T.);
#717=EDGE_CURVE('',#569,#570,#334,.T.);
#718=EDGE_CURVE('',#570,#571,#335,.T.);
#719=EDGE_CURVE('',#571,#572,#236,.T.);
#720=EDGE_CURVE('',#572,#565,#336,.T.);
#721=EDGE_CURVE('',#529,#564,#237,.T.);
#722=EDGE_CURVE('',#534,#573,#337,.T.);
#723=EDGE_CURVE('',#573,#547,#338,.T.);
#724=EDGE_CURVE('',#573,#574,#339,.T.);
#725=EDGE_CURVE('',#493,#574,#340,.T.);
#726=EDGE_CURVE('',#574,#575,#238,.T.);
#727=EDGE_CURVE('',#575,#494,#341,.T.);
#728=EDGE_CURVE('',#561,#527,#342,.T.);
#729=EDGE_CURVE('',#575,#524,#343,.T.);
#730=EDGE_CURVE('',#526,#562,#344,.T.);
#731=EDGE_CURVE('',#528,#576,#345,.T.);
#732=EDGE_CURVE('',#576,#564,#346,.T.);
#733=EDGE_CURVE('',#577,#577,#239,.T.);
#734=EDGE_CURVE('',#577,#578,#240,.T.);
#735=EDGE_CURVE('',#578,#579,#241,.T.);
#736=EDGE_CURVE('',#579,#578,#242,.T.);
#737=EDGE_CURVE('',#579,#552,#347,.T.);
#738=EDGE_CURVE('',#552,#568,#348,.T.);
#739=EDGE_CURVE('',#553,#567,#349,.T.);
#740=EDGE_CURVE('',#558,#570,#350,.T.);
#741=EDGE_CURVE('',#559,#569,#351,.T.);
#742=EDGE_CURVE('',#554,#566,#352,.T.);
#743=EDGE_CURVE('',#555,#565,#353,.T.);
#744=EDGE_CURVE('',#556,#572,#354,.T.);
#745=EDGE_CURVE('',#557,#571,#355,.T.);
#746=EDGE_CURVE('',#533,#576,#356,.T.);
#747=ORIENTED_EDGE('',*,*,#580,.T.);
#748=ORIENTED_EDGE('',*,*,#581,.T.);
#749=ORIENTED_EDGE('',*,*,#582,.T.);
#750=ORIENTED_EDGE('',*,*,#583,.T.);
#751=ORIENTED_EDGE('',*,*,#584,.T.);
#752=ORIENTED_EDGE('',*,*,#585,.T.);
#753=ORIENTED_EDGE('',*,*,#581,.F.);
#754=ORIENTED_EDGE('',*,*,#586,.F.);
#755=ORIENTED_EDGE('',*,*,#587,.F.);
#756=ORIENTED_EDGE('',*,*,#588,.T.);
#757=ORIENTED_EDGE('',*,*,#580,.F.);
#758=ORIENTED_EDGE('',*,*,#589,.T.);
#759=ORIENTED_EDGE('',*,*,#590,.T.);
#760=ORIENTED_EDGE('',*,*,#591,.F.);
#761=ORIENTED_EDGE('',*,*,#586,.T.);
#762=ORIENTED_EDGE('',*,*,#591,.T.);
#763=ORIENTED_EDGE('',*,*,#592,.T.);
#764=ORIENTED_EDGE('',*,*,#593,.T.);
#765=ORIENTED_EDGE('',*,*,#587,.T.);
#766=ORIENTED_EDGE('',*,*,#585,.F.);
#767=ORIENTED_EDGE('',*,*,#594,.T.);
#768=ORIENTED_EDGE('',*,*,#595,.T.);
#769=ORIENTED_EDGE('',*,*,#589,.F.);
#770=ORIENTED_EDGE('',*,*,#596,.F.);
#771=ORIENTED_EDGE('',*,*,#592,.F.);
#772=ORIENTED_EDGE('',*,*,#597,.F.);
#773=ORIENTED_EDGE('',*,*,#598,.F.);
#774=ORIENTED_EDGE('',*,*,#599,.F.);
#775=ORIENTED_EDGE('',*,*,#600,.F.);
#776=ORIENTED_EDGE('',*,*,#601,.F.);
#777=ORIENTED_EDGE('',*,*,#602,.F.);
#778=ORIENTED_EDGE('',*,*,#603,.T.);
#779=ORIENTED_EDGE('',*,*,#604,.F.);
#780=ORIENTED_EDGE('',*,*,#605,.F.);
#781=ORIENTED_EDGE('',*,*,#590,.F.);
#782=ORIENTED_EDGE('',*,*,#606,.T.);
#783=ORIENTED_EDGE('',*,*,#607,.F.);
#784=ORIENTED_EDGE('',*,*,#597,.T.);
#785=ORIENTED_EDGE('',*,*,#595,.F.);
#786=ORIENTED_EDGE('',*,*,#608,.F.);
#787=ORIENTED_EDGE('',*,*,#609,.F.);
#788=ORIENTED_EDGE('',*,*,#610,.F.);
#789=ORIENTED_EDGE('',*,*,#611,.F.);
#790=ORIENTED_EDGE('',*,*,#612,.F.);
#791=ORIENTED_EDGE('',*,*,#613,.F.);
#792=ORIENTED_EDGE('',*,*,#614,.F.);
#793=ORIENTED_EDGE('',*,*,#615,.F.);
#794=ORIENTED_EDGE('',*,*,#616,.T.);
#795=ORIENTED_EDGE('',*,*,#617,.F.);
#796=ORIENTED_EDGE('',*,*,#618,.F.);
#797=ORIENTED_EDGE('',*,*,#619,.F.);
#798=ORIENTED_EDGE('',*,*,#620,.F.);
#799=ORIENTED_EDGE('',*,*,#606,.F.);
#800=ORIENTED_EDGE('',*,*,#584,.F.);
#801=ORIENTED_EDGE('',*,*,#621,.T.);
#802=ORIENTED_EDGE('',*,*,#622,.T.);
#803=ORIENTED_EDGE('',*,*,#608,.T.);
#804=ORIENTED_EDGE('',*,*,#594,.F.);
#805=ORIENTED_EDGE('',*,*,#623,.T.);
#806=ORIENTED_EDGE('',*,*,#624,.T.);
#807=ORIENTED_EDGE('',*,*,#625,.T.);
#808=ORIENTED_EDGE('',*,*,#626,.T.);
#809=ORIENTED_EDGE('',*,*,#627,.T.);
#810=ORIENTED_EDGE('',*,*,#628,.T.);
#811=ORIENTED_EDGE('',*,*,#624,.F.);
#812=ORIENTED_EDGE('',*,*,#629,.F.);
#813=ORIENTED_EDGE('',*,*,#630,.F.);
#814=ORIENTED_EDGE('',*,*,#631,.T.);
#815=ORIENTED_EDGE('',*,*,#623,.F.);
#816=ORIENTED_EDGE('',*,*,#632,.F.);
#817=ORIENTED_EDGE('',*,*,#612,.T.);
#818=ORIENTED_EDGE('',*,*,#633,.F.);
#819=ORIENTED_EDGE('',*,*,#629,.T.);
#820=ORIENTED_EDGE('',*,*,#628,.F.);
#821=ORIENTED_EDGE('',*,*,#634,.T.);
#822=ORIENTED_EDGE('',*,*,#613,.T.);
#823=ORIENTED_EDGE('',*,*,#632,.T.);
#824=ORIENTED_EDGE('',*,*,#627,.F.);
#825=ORIENTED_EDGE('',*,*,#635,.T.);
#826=ORIENTED_EDGE('',*,*,#636,.T.);
#827=ORIENTED_EDGE('',*,*,#637,.T.);
#828=ORIENTED_EDGE('',*,*,#634,.F.);
#829=ORIENTED_EDGE('',*,*,#638,.T.);
#830=ORIENTED_EDGE('',*,*,#605,.T.);
#831=ORIENTED_EDGE('',*,*,#636,.F.);
#832=ORIENTED_EDGE('',*,*,#639,.T.);
#833=ORIENTED_EDGE('',*,*,#626,.F.);
#834=ORIENTED_EDGE('',*,*,#640,.T.);
#835=ORIENTED_EDGE('',*,*,#639,.F.);
#836=ORIENTED_EDGE('',*,*,#635,.F.);
#837=ORIENTED_EDGE('',*,*,#641,.T.);
#838=ORIENTED_EDGE('',*,*,#642,.T.);
#839=ORIENTED_EDGE('',*,*,#643,.T.);
#840=ORIENTED_EDGE('',*,*,#644,.T.);
#841=ORIENTED_EDGE('',*,*,#642,.F.);
#842=ORIENTED_EDGE('',*,*,#645,.T.);
#843=ORIENTED_EDGE('',*,*,#646,.T.);
#844=ORIENTED_EDGE('',*,*,#647,.F.);
#845=ORIENTED_EDGE('',*,*,#648,.T.);
#846=ORIENTED_EDGE('',*,*,#641,.F.);
#847=ORIENTED_EDGE('',*,*,#649,.F.);
#848=ORIENTED_EDGE('',*,*,#650,.F.);
#849=ORIENTED_EDGE('',*,*,#651,.F.);
#850=ORIENTED_EDGE('',*,*,#652,.F.);
#851=ORIENTED_EDGE('',*,*,#617,.T.);
#852=ORIENTED_EDGE('',*,*,#653,.T.);
#853=ORIENTED_EDGE('',*,*,#645,.F.);
#854=ORIENTED_EDGE('',*,*,#599,.T.);
#855=ORIENTED_EDGE('',*,*,#654,.T.);
#856=ORIENTED_EDGE('',*,*,#655,.T.);
#857=ORIENTED_EDGE('',*,*,#656,.T.);
#858=ORIENTED_EDGE('',*,*,#657,.T.);
#859=ORIENTED_EDGE('',*,*,#658,.T.);
#860=ORIENTED_EDGE('',*,*,#659,.T.);
#861=ORIENTED_EDGE('',*,*,#660,.T.);
#862=ORIENTED_EDGE('',*,*,#661,.T.);
#863=ORIENTED_EDGE('',*,*,#662,.T.);
#864=ORIENTED_EDGE('',*,*,#663,.T.);
#865=ORIENTED_EDGE('',*,*,#664,.T.);
#866=ORIENTED_EDGE('',*,*,#665,.T.);
#867=ORIENTED_EDGE('',*,*,#662,.F.);
#868=ORIENTED_EDGE('',*,*,#666,.T.);
#869=ORIENTED_EDGE('',*,*,#658,.F.);
#870=ORIENTED_EDGE('',*,*,#667,.T.);
#871=ORIENTED_EDGE('',*,*,#664,.F.);
#872=ORIENTED_EDGE('',*,*,#668,.T.);
#873=ORIENTED_EDGE('',*,*,#656,.F.);
#874=ORIENTED_EDGE('',*,*,#669,.T.);
#875=ORIENTED_EDGE('',*,*,#660,.F.);
#876=ORIENTED_EDGE('',*,*,#670,.T.);
#877=ORIENTED_EDGE('',*,*,#671,.T.);
#878=ORIENTED_EDGE('',*,*,#654,.F.);
#879=ORIENTED_EDGE('',*,*,#672,.T.);
#880=ORIENTED_EDGE('',*,*,#673,.T.);
#881=ORIENTED_EDGE('',*,*,#674,.T.);
#882=ORIENTED_EDGE('',*,*,#675,.T.);
#883=ORIENTED_EDGE('',*,*,#673,.F.);
#884=ORIENTED_EDGE('',*,*,#676,.T.);
#885=ORIENTED_EDGE('',*,*,#671,.F.);
#886=ORIENTED_EDGE('',*,*,#672,.F.);
#887=ORIENTED_EDGE('',*,*,#598,.T.);
#888=ORIENTED_EDGE('',*,*,#677,.F.);
#889=ORIENTED_EDGE('',*,*,#678,.F.);
#890=ORIENTED_EDGE('',*,*,#668,.F.);
#891=ORIENTED_EDGE('',*,*,#679,.T.);
#892=ORIENTED_EDGE('',*,*,#680,.T.);
#893=ORIENTED_EDGE('',*,*,#600,.T.);
#894=ORIENTED_EDGE('',*,*,#663,.F.);
#895=ORIENTED_EDGE('',*,*,#681,.F.);
#896=ORIENTED_EDGE('',*,*,#682,.F.);
#897=ORIENTED_EDGE('',*,*,#679,.F.);
#898=ORIENTED_EDGE('',*,*,#661,.F.);
#899=ORIENTED_EDGE('',*,*,#667,.F.);
#900=ORIENTED_EDGE('',*,*,#655,.F.);
#901=ORIENTED_EDGE('',*,*,#674,.F.);
#902=ORIENTED_EDGE('',*,*,#675,.F.);
#903=ORIENTED_EDGE('',*,*,#670,.F.);
#904=ORIENTED_EDGE('',*,*,#659,.F.);
#905=ORIENTED_EDGE('',*,*,#666,.F.);
#906=ORIENTED_EDGE('',*,*,#683,.T.);
#907=ORIENTED_EDGE('',*,*,#609,.T.);
#908=ORIENTED_EDGE('',*,*,#622,.F.);
#909=ORIENTED_EDGE('',*,*,#684,.T.);
#910=ORIENTED_EDGE('',*,*,#685,.T.);
#911=ORIENTED_EDGE('',*,*,#610,.T.);
#912=ORIENTED_EDGE('',*,*,#683,.F.);
#913=ORIENTED_EDGE('',*,*,#686,.T.);
#914=ORIENTED_EDGE('',*,*,#633,.T.);
#915=ORIENTED_EDGE('',*,*,#611,.T.);
#916=ORIENTED_EDGE('',*,*,#685,.F.);
#917=ORIENTED_EDGE('',*,*,#687,.T.);
#918=ORIENTED_EDGE('',*,*,#687,.F.);
#919=ORIENTED_EDGE('',*,*,#688,.F.);
#920=ORIENTED_EDGE('',*,*,#689,.T.);
#921=ORIENTED_EDGE('',*,*,#630,.T.);
#922=ORIENTED_EDGE('',*,*,#686,.F.);
#923=ORIENTED_EDGE('',*,*,#690,.F.);
#924=ORIENTED_EDGE('',*,*,#691,.T.);
#925=ORIENTED_EDGE('',*,*,#688,.T.);
#926=ORIENTED_EDGE('',*,*,#692,.T.);
#927=ORIENTED_EDGE('',*,*,#693,.T.);
#928=ORIENTED_EDGE('',*,*,#694,.T.);
#929=ORIENTED_EDGE('',*,*,#695,.T.);
#930=ORIENTED_EDGE('',*,*,#696,.T.);
#931=ORIENTED_EDGE('',*,*,#697,.T.);
#932=ORIENTED_EDGE('',*,*,#698,.T.);
#933=ORIENTED_EDGE('',*,*,#699,.T.);
#934=ORIENTED_EDGE('',*,*,#684,.F.);
#935=ORIENTED_EDGE('',*,*,#700,.F.);
#936=ORIENTED_EDGE('',*,*,#701,.T.);
#937=ORIENTED_EDGE('',*,*,#690,.T.);
#938=ORIENTED_EDGE('',*,*,#583,.F.);
#939=ORIENTED_EDGE('',*,*,#702,.T.);
#940=ORIENTED_EDGE('',*,*,#700,.T.);
#941=ORIENTED_EDGE('',*,*,#621,.F.);
#942=ORIENTED_EDGE('',*,*,#703,.T.);
#943=ORIENTED_EDGE('',*,*,#704,.T.);
#944=ORIENTED_EDGE('',*,*,#705,.T.);
#945=ORIENTED_EDGE('',*,*,#615,.T.);
#946=ORIENTED_EDGE('',*,*,#706,.T.);
#947=ORIENTED_EDGE('',*,*,#637,.F.);
#948=ORIENTED_EDGE('',*,*,#604,.T.);
#949=ORIENTED_EDGE('',*,*,#706,.F.);
#950=ORIENTED_EDGE('',*,*,#614,.T.);
#951=ORIENTED_EDGE('',*,*,#652,.T.);
#952=ORIENTED_EDGE('',*,*,#707,.T.);
#953=ORIENTED_EDGE('',*,*,#708,.T.);
#954=ORIENTED_EDGE('',*,*,#618,.T.);
#955=ORIENTED_EDGE('',*,*,#709,.T.);
#956=ORIENTED_EDGE('',*,*,#619,.T.);
#957=ORIENTED_EDGE('',*,*,#708,.F.);
#958=ORIENTED_EDGE('',*,*,#710,.T.);
#959=ORIENTED_EDGE('',*,*,#607,.T.);
#960=ORIENTED_EDGE('',*,*,#620,.T.);
#961=ORIENTED_EDGE('',*,*,#709,.F.);
#962=ORIENTED_EDGE('',*,*,#677,.T.);
#963=ORIENTED_EDGE('',*,*,#676,.F.);
#964=ORIENTED_EDGE('',*,*,#678,.T.);
#965=ORIENTED_EDGE('',*,*,#710,.F.);
#966=ORIENTED_EDGE('',*,*,#711,.F.);
#967=ORIENTED_EDGE('',*,*,#712,.F.);
#968=ORIENTED_EDGE('',*,*,#713,.T.);
#969=ORIENTED_EDGE('',*,*,#714,.T.);
#970=ORIENTED_EDGE('',*,*,#715,.T.);
#971=ORIENTED_EDGE('',*,*,#716,.T.);
#972=ORIENTED_EDGE('',*,*,#717,.T.);
#973=ORIENTED_EDGE('',*,*,#718,.T.);
#974=ORIENTED_EDGE('',*,*,#719,.T.);
#975=ORIENTED_EDGE('',*,*,#720,.T.);
#976=ORIENTED_EDGE('',*,*,#707,.F.);
#977=ORIENTED_EDGE('',*,*,#651,.T.);
#978=ORIENTED_EDGE('',*,*,#721,.T.);
#979=ORIENTED_EDGE('',*,*,#711,.T.);
#980=ORIENTED_EDGE('',*,*,#665,.F.);
#981=ORIENTED_EDGE('',*,*,#722,.T.);
#982=ORIENTED_EDGE('',*,*,#723,.T.);
#983=ORIENTED_EDGE('',*,*,#681,.T.);
#984=ORIENTED_EDGE('',*,*,#723,.F.);
#985=ORIENTED_EDGE('',*,*,#724,.T.);
#986=ORIENTED_EDGE('',*,*,#725,.F.);
#987=ORIENTED_EDGE('',*,*,#601,.T.);
#988=ORIENTED_EDGE('',*,*,#680,.F.);
#989=ORIENTED_EDGE('',*,*,#682,.T.);
#990=ORIENTED_EDGE('',*,*,#726,.T.);
#991=ORIENTED_EDGE('',*,*,#727,.T.);
#992=ORIENTED_EDGE('',*,*,#602,.T.);
#993=ORIENTED_EDGE('',*,*,#725,.T.);
#994=ORIENTED_EDGE('',*,*,#643,.F.);
#995=ORIENTED_EDGE('',*,*,#648,.F.);
#996=ORIENTED_EDGE('',*,*,#728,.F.);
#997=ORIENTED_EDGE('',*,*,#703,.F.);
#998=ORIENTED_EDGE('',*,*,#603,.F.);
#999=ORIENTED_EDGE('',*,*,#727,.F.);
#1000=ORIENTED_EDGE('',*,*,#729,.T.);
#1001=ORIENTED_EDGE('',*,*,#647,.T.);
#1002=ORIENTED_EDGE('',*,*,#730,.T.);
#1003=ORIENTED_EDGE('',*,*,#704,.F.);
#1004=ORIENTED_EDGE('',*,*,#728,.T.);
#1005=ORIENTED_EDGE('',*,*,#730,.F.);
#1006=ORIENTED_EDGE('',*,*,#646,.F.);
#1007=ORIENTED_EDGE('',*,*,#653,.F.);
#1008=ORIENTED_EDGE('',*,*,#616,.F.);
#1009=ORIENTED_EDGE('',*,*,#705,.F.);
#1010=ORIENTED_EDGE('',*,*,#650,.T.);
#1011=ORIENTED_EDGE('',*,*,#731,.T.);
#1012=ORIENTED_EDGE('',*,*,#732,.T.);
#1013=ORIENTED_EDGE('',*,*,#721,.F.);
#1014=ORIENTED_EDGE('',*,*,#733,.T.);
#1015=ORIENTED_EDGE('',*,*,#734,.T.);
#1016=ORIENTED_EDGE('',*,*,#735,.T.);
#1017=ORIENTED_EDGE('',*,*,#736,.T.);
#1018=ORIENTED_EDGE('',*,*,#734,.F.);
#1019=ORIENTED_EDGE('',*,*,#733,.F.);
#1020=ORIENTED_EDGE('',*,*,#736,.F.);
#1021=ORIENTED_EDGE('',*,*,#737,.T.);
#1022=ORIENTED_EDGE('',*,*,#738,.T.);
#1023=ORIENTED_EDGE('',*,*,#715,.F.);
#1024=ORIENTED_EDGE('',*,*,#739,.F.);
#1025=ORIENTED_EDGE('',*,*,#692,.F.);
#1026=ORIENTED_EDGE('',*,*,#737,.F.);
#1027=ORIENTED_EDGE('',*,*,#735,.F.);
#1028=ORIENTED_EDGE('',*,*,#698,.F.);
#1029=ORIENTED_EDGE('',*,*,#740,.T.);
#1030=ORIENTED_EDGE('',*,*,#717,.F.);
#1031=ORIENTED_EDGE('',*,*,#741,.F.);
#1032=ORIENTED_EDGE('',*,*,#699,.F.);
#1033=ORIENTED_EDGE('',*,*,#741,.T.);
#1034=ORIENTED_EDGE('',*,*,#716,.F.);
#1035=ORIENTED_EDGE('',*,*,#738,.F.);
#1036=ORIENTED_EDGE('',*,*,#693,.F.);
#1037=ORIENTED_EDGE('',*,*,#739,.T.);
#1038=ORIENTED_EDGE('',*,*,#714,.F.);
#1039=ORIENTED_EDGE('',*,*,#742,.F.);
#1040=ORIENTED_EDGE('',*,*,#694,.F.);
#1041=ORIENTED_EDGE('',*,*,#742,.T.);
#1042=ORIENTED_EDGE('',*,*,#713,.F.);
#1043=ORIENTED_EDGE('',*,*,#743,.F.);
#1044=ORIENTED_EDGE('',*,*,#695,.F.);
#1045=ORIENTED_EDGE('',*,*,#743,.T.);
#1046=ORIENTED_EDGE('',*,*,#720,.F.);
#1047=ORIENTED_EDGE('',*,*,#744,.F.);
#1048=ORIENTED_EDGE('',*,*,#696,.F.);
#1049=ORIENTED_EDGE('',*,*,#744,.T.);
#1050=ORIENTED_EDGE('',*,*,#719,.F.);
#1051=ORIENTED_EDGE('',*,*,#745,.F.);
#1052=ORIENTED_EDGE('',*,*,#697,.F.);
#1053=ORIENTED_EDGE('',*,*,#745,.T.);
#1054=ORIENTED_EDGE('',*,*,#718,.F.);
#1055=ORIENTED_EDGE('',*,*,#740,.F.);
#1056=ORIENTED_EDGE('',*,*,#669,.F.);
#1057=ORIENTED_EDGE('',*,*,#712,.T.);
#1058=ORIENTED_EDGE('',*,*,#732,.F.);
#1059=ORIENTED_EDGE('',*,*,#746,.F.);
#1060=ORIENTED_EDGE('',*,*,#644,.F.);
#1061=ORIENTED_EDGE('',*,*,#729,.F.);
#1062=ORIENTED_EDGE('',*,*,#726,.F.);
#1063=ORIENTED_EDGE('',*,*,#724,.F.);
#1064=ORIENTED_EDGE('',*,*,#722,.F.);
#1065=ORIENTED_EDGE('',*,*,#657,.F.);
#1066=ORIENTED_EDGE('',*,*,#746,.T.);
#1067=ORIENTED_EDGE('',*,*,#731,.F.);
#1068=ORIENTED_EDGE('',*,*,#649,.T.);
#1069=ORIENTED_EDGE('',*,*,#596,.T.);
#1070=ORIENTED_EDGE('',*,*,#638,.F.);
#1071=ORIENTED_EDGE('',*,*,#640,.F.);
#1072=ORIENTED_EDGE('',*,*,#625,.F.);
#1073=ORIENTED_EDGE('',*,*,#631,.F.);
#1074=ORIENTED_EDGE('',*,*,#689,.F.);
#1075=ORIENTED_EDGE('',*,*,#691,.F.);
#1076=ORIENTED_EDGE('',*,*,#701,.F.);
#1077=ORIENTED_EDGE('',*,*,#702,.F.);
#1078=ORIENTED_EDGE('',*,*,#582,.F.);
#1079=ORIENTED_EDGE('',*,*,#588,.F.);
#1080=ORIENTED_EDGE('',*,*,#593,.F.);
#1081=CYLINDRICAL_SURFACE('',#1179,0.5);
#1082=CYLINDRICAL_SURFACE('',#1188,0.5);
#1083=CYLINDRICAL_SURFACE('',#1190,0.5);
#1084=CYLINDRICAL_SURFACE('',#1194,1.);
#1085=CYLINDRICAL_SURFACE('',#1203,0.5);
#1086=CYLINDRICAL_SURFACE('',#1210,0.5);
#1087=CYLINDRICAL_SURFACE('',#1215,0.5);
#1088=CYLINDRICAL_SURFACE('',#1233,8.85);
#1089=CYLINDRICAL_SURFACE('',#1243,7.5);
#1090=CYLINDRICAL_SURFACE('',#1248,7.5);
#1091=CYLINDRICAL_SURFACE('',#1251,1.);
#1092=CYLINDRICAL_SURFACE('',#1253,1.);
#1093=CYLINDRICAL_SURFACE('',#1257,1.);
#1094=CYLINDRICAL_SURFACE('',#1263,8.85);
#1095=CYLINDRICAL_SURFACE('',#1267,10.);
#1096=CYLINDRICAL_SURFACE('',#1270,0.5);
#1097=CYLINDRICAL_SURFACE('',#1271,8.85);
#1098=CYLINDRICAL_SURFACE('',#1279,1.75);
#1099=CYLINDRICAL_SURFACE('',#1285,2.25);
#1100=ADVANCED_FACE('',(#63),#1081,.T.);
#1101=ADVANCED_FACE('',(#64),#25,.F.);
#1102=ADVANCED_FACE('',(#65),#23,.F.);
#1103=ADVANCED_FACE('',(#66),#1082,.T.);
#1104=ADVANCED_FACE('',(#67),#1083,.T.);
#1105=ADVANCED_FACE('',(#68),#26,.T.);
#1106=ADVANCED_FACE('',(#69),#1084,.T.);
#1107=ADVANCED_FACE('',(#70),#27,.T.);
#1108=ADVANCED_FACE('',(#71),#28,.T.);
#1109=ADVANCED_FACE('',(#72),#1085,.T.);
#1110=ADVANCED_FACE('',(#73),#29,.F.);
#1111=ADVANCED_FACE('',(#74),#30,.T.);
#1112=ADVANCED_FACE('',(#75),#1086,.T.);
#1113=ADVANCED_FACE('',(#76),#24,.F.);
#1114=ADVANCED_FACE('',(#77),#1087,.T.);
#1115=ADVANCED_FACE('',(#78),#31,.F.);
#1116=ADVANCED_FACE('',(#79),#32,.T.);
#1117=ADVANCED_FACE('',(#80),#33,.T.);
#1118=ADVANCED_FACE('',(#81),#34,.T.);
#1119=ADVANCED_FACE('',(#82),#35,.T.);
#1120=ADVANCED_FACE('',(#83),#36,.T.);
#1121=ADVANCED_FACE('',(#84),#37,.T.);
#1122=ADVANCED_FACE('',(#85),#38,.T.);
#1123=ADVANCED_FACE('',(#86),#39,.T.);
#1124=ADVANCED_FACE('',(#87),#40,.T.);
#1125=ADVANCED_FACE('',(#88),#20,.T.);
#1126=ADVANCED_FACE('',(#89),#41,.T.);
#1127=ADVANCED_FACE('',(#90),#1088,.T.);
#1128=ADVANCED_FACE('',(#91),#42,.T.);
#1129=ADVANCED_FACE('',(#92),#43,.T.);
#1130=ADVANCED_FACE('',(#93),#44,.F.);
#1131=ADVANCED_FACE('',(#94),#21,.F.);
#1132=ADVANCED_FACE('',(#95),#45,.T.);
#1133=ADVANCED_FACE('',(#96),#22,.F.);
#1134=ADVANCED_FACE('',(#97),#1089,.F.);
#1135=ADVANCED_FACE('',(#98,#18),#46,.F.);
#1136=ADVANCED_FACE('',(#99),#1090,.F.);
#1137=ADVANCED_FACE('',(#100),#47,.F.);
#1138=ADVANCED_FACE('',(#101),#1091,.T.);
#1139=ADVANCED_FACE('',(#102),#1092,.T.);
#1140=ADVANCED_FACE('',(#103),#15,.T.);
#1141=ADVANCED_FACE('',(#104),#1093,.T.);
#1142=ADVANCED_FACE('',(#105),#16,.T.);
#1143=ADVANCED_FACE('',(#106,#19),#48,.T.);
#1144=ADVANCED_FACE('',(#107),#1094,.T.);
#1145=ADVANCED_FACE('',(#108),#49,.T.);
#1146=ADVANCED_FACE('',(#109),#50,.T.);
#1147=ADVANCED_FACE('',(#110),#1095,.F.);
#1148=ADVANCED_FACE('',(#111),#51,.T.);
#1149=ADVANCED_FACE('',(#112),#1096,.T.);
#1150=ADVANCED_FACE('',(#113),#1097,.F.);
#1151=ADVANCED_FACE('',(#114),#52,.T.);
#1152=ADVANCED_FACE('',(#115),#17,.T.);
#1153=ADVANCED_FACE('',(#116),#53,.T.);
#1154=ADVANCED_FACE('',(#117),#1098,.T.);
#1155=ADVANCED_FACE('',(#118),#54,.F.);
#1156=ADVANCED_FACE('',(#119),#55,.F.);
#1157=ADVANCED_FACE('',(#120),#56,.F.);
#1158=ADVANCED_FACE('',(#121),#57,.F.);
#1159=ADVANCED_FACE('',(#122),#58,.F.);
#1160=ADVANCED_FACE('',(#123),#1099,.F.);
#1161=ADVANCED_FACE('',(#124),#59,.F.);
#1162=ADVANCED_FACE('',(#125),#60,.T.);
#1163=ADVANCED_FACE('',(#126),#61,.T.);
#1164=ADVANCED_FACE('',(#127),#62,.T.);
#1165=CLOSED_SHELL('',(#1100,#1101,#1102,#1103,#1104,#1105,#1106,#1107,
#1108,#1109,#1110,#1111,#1112,#1113,#1114,#1115,#1116,#1117,#1118,#1119,
#1120,#1121,#1122,#1123,#1124,#1125,#1126,#1127,#1128,#1129,#1130,#1131,
#1132,#1133,#1134,#1135,#1136,#1137,#1138,#1139,#1140,#1141,#1142,#1143,
#1144,#1145,#1146,#1147,#1148,#1149,#1150,#1151,#1152,#1153,#1154,#1155,
#1156,#1157,#1158,#1159,#1160,#1161,#1162,#1163,#1164));
#1166=DERIVED_UNIT_ELEMENT(#1168,1.);
#1167=DERIVED_UNIT_ELEMENT(#2025,-3.);
#1168=(
MASS_UNIT()
NAMED_UNIT(*)
SI_UNIT(.KILO.,.GRAM.)
);
#1169=DERIVED_UNIT((#1166,#1167));
#1170=MEASURE_REPRESENTATION_ITEM('density measure',
POSITIVE_RATIO_MEASURE(7850.),#1169);
#1171=PROPERTY_DEFINITION_REPRESENTATION(#1176,#1173);
#1172=PROPERTY_DEFINITION_REPRESENTATION(#1177,#1174);
#1173=REPRESENTATION('material name',(#1175),#2022);
#1174=REPRESENTATION('density',(#1170),#2022);
#1175=DESCRIPTIVE_REPRESENTATION_ITEM('\X2\92FC\X0\','\X2\92FC\X0\');
#1176=PROPERTY_DEFINITION('material property','material name',#2032);
#1177=PROPERTY_DEFINITION('material property','density of part',#2032);
#1178=AXIS2_PLACEMENT_3D('',#1628,#1290,#1291);
#1179=AXIS2_PLACEMENT_3D('',#1629,#1292,#1293);
#1180=AXIS2_PLACEMENT_3D('',#1643,#1295,#1296);
#1181=AXIS2_PLACEMENT_3D('',#1647,#1298,#1299);
#1182=AXIS2_PLACEMENT_3D('',#1648,#1300,#1301);
#1183=AXIS2_PLACEMENT_3D('',#1649,#1302,#1303);
#1184=AXIS2_PLACEMENT_3D('',#1651,#1304,#1305);
#1185=AXIS2_PLACEMENT_3D('',#1665,#1308,#1309);
#1186=AXIS2_PLACEMENT_3D('',#1667,#1310,#1311);
#1187=AXIS2_PLACEMENT_3D('',#1668,#1312,#1313);
#1188=AXIS2_PLACEMENT_3D('',#1669,#1314,#1315);
#1189=AXIS2_PLACEMENT_3D('',#1672,#1317,#1318);
#1190=AXIS2_PLACEMENT_3D('',#1673,#1319,#1320);
#1191=AXIS2_PLACEMENT_3D('',#1675,#1321,#1322);
#1192=AXIS2_PLACEMENT_3D('',#1677,#1324,#1325);
#1193=AXIS2_PLACEMENT_3D('',#1691,#1332,#1333);
#1194=AXIS2_PLACEMENT_3D('',#1697,#1337,#1338);
#1195=AXIS2_PLACEMENT_3D('',#1700,#1340,#1341);
#1196=AXIS2_PLACEMENT_3D('',#1701,#1342,#1343);
#1197=AXIS2_PLACEMENT_3D('',#1705,#1345,#1346);
#1198=AXIS2_PLACEMENT_3D('',#1709,#1348,#1349);
#1199=AXIS2_PLACEMENT_3D('',#1719,#1354,#1355);
#1200=AXIS2_PLACEMENT_3D('',#1723,#1357,#1358);
#1201=AXIS2_PLACEMENT_3D('',#1726,#1360,#1361);
#1202=AXIS2_PLACEMENT_3D('',#1727,#1362,#1363);
#1203=AXIS2_PLACEMENT_3D('',#1731,#1366,#1367);
#1204=AXIS2_PLACEMENT_3D('',#1734,#1368,#1369);
#1205=AXIS2_PLACEMENT_3D('',#1738,#1371,#1372);
#1206=AXIS2_PLACEMENT_3D('',#1750,#1374,#1375);
#1207=AXIS2_PLACEMENT_3D('',#1751,#1376,#1377);
#1208=AXIS2_PLACEMENT_3D('',#1757,#1381,#1382);
#1209=AXIS2_PLACEMENT_3D('',#1758,#1383,#1384);
#1210=AXIS2_PLACEMENT_3D('',#1760,#1386,#1387);
#1211=AXIS2_PLACEMENT_3D('',#1761,#1388,#1389);
#1212=AXIS2_PLACEMENT_3D('',#1772,#1390,#1391);
#1213=AXIS2_PLACEMENT_3D('',#1773,#1392,#1393);
#1214=AXIS2_PLACEMENT_3D('',#1774,#1394,#1395);
#1215=AXIS2_PLACEMENT_3D('',#1775,#1396,#1397);
#1216=AXIS2_PLACEMENT_3D('',#1777,#1398,#1399);
#1217=AXIS2_PLACEMENT_3D('',#1779,#1401,#1402);
#1218=AXIS2_PLACEMENT_3D('',#1781,#1404,#1405);
#1219=AXIS2_PLACEMENT_3D('',#1790,#1410,#1411);
#1220=AXIS2_PLACEMENT_3D('',#1794,#1413,#1414);
#1221=AXIS2_PLACEMENT_3D('',#1796,#1415,#1416);
#1222=AXIS2_PLACEMENT_3D('',#1798,#1418,#1419);
#1223=AXIS2_PLACEMENT_3D('',#1816,#1424,#1425);
#1224=AXIS2_PLACEMENT_3D('',#1822,#1429,#1430);
#1225=AXIS2_PLACEMENT_3D('',#1831,#1435,#1436);
#1226=AXIS2_PLACEMENT_3D('',#1840,#1441,#1442);
#1227=AXIS2_PLACEMENT_3D('',#1843,#1445,#1446);
#1228=AXIS2_PLACEMENT_3D('',#1846,#1449,#1450);
#1229=AXIS2_PLACEMENT_3D('',#1852,#1454,#1455);
#1230=AXIS2_PLACEMENT_3D('',#1854,#1456,#1457);
#1231=AXIS2_PLACEMENT_3D('',#1857,#1459,#1460);
#1232=AXIS2_PLACEMENT_3D('',#1858,#1461,#1462);
#1233=AXIS2_PLACEMENT_3D('',#1861,#1465,#1466);
#1234=AXIS2_PLACEMENT_3D('',#1863,#1467,#1468);
#1235=AXIS2_PLACEMENT_3D('',#1865,#1470,#1471);
#1236=AXIS2_PLACEMENT_3D('',#1869,#1474,#1475);
#1237=AXIS2_PLACEMENT_3D('',#1873,#1478,#1479);
#1238=AXIS2_PLACEMENT_3D('',#1874,#1480,#1481);
#1239=AXIS2_PLACEMENT_3D('',#1877,#1483,#1484);
#1240=AXIS2_PLACEMENT_3D('',#1878,#1485,#1486);
#1241=AXIS2_PLACEMENT_3D('',#1882,#1489,#1490);
#1242=AXIS2_PLACEMENT_3D('',#1883,#1491,#1492);
#1243=AXIS2_PLACEMENT_3D('',#1884,#1493,#1494);
#1244=AXIS2_PLACEMENT_3D('',#1887,#1496,#1497);
#1245=AXIS2_PLACEMENT_3D('',#1888,#1498,#1499);
#1246=AXIS2_PLACEMENT_3D('',#1894,#1502,#1503);
#1247=AXIS2_PLACEMENT_3D('',#1902,#1507,#1508);
#1248=AXIS2_PLACEMENT_3D('',#1908,#1512,#1513);
#1249=AXIS2_PLACEMENT_3D('',#1911,#1515,#1516);
#1250=AXIS2_PLACEMENT_3D('',#1912,#1517,#1518);
#1251=AXIS2_PLACEMENT_3D('',#1914,#1520,#1521);
#1252=AXIS2_PLACEMENT_3D('',#1936,#1523,#1524);
#1253=AXIS2_PLACEMENT_3D('',#1937,#1525,#1526);
#1254=AXIS2_PLACEMENT_3D('',#1938,#1527,#1528);
#1255=AXIS2_PLACEMENT_3D('',#1940,#1529,#1530);
#1256=AXIS2_PLACEMENT_3D('',#1941,#1531,#1532);
#1257=AXIS2_PLACEMENT_3D('',#1942,#1533,#1534);
#1258=AXIS2_PLACEMENT_3D('',#1943,#1535,#1536);
#1259=AXIS2_PLACEMENT_3D('',#1945,#1538,#1539);
#1260=AXIS2_PLACEMENT_3D('',#1946,#1540,#1541);
#1261=AXIS2_PLACEMENT_3D('',#1956,#1546,#1547);
#1262=AXIS2_PLACEMENT_3D('',#1964,#1551,#1552);
#1263=AXIS2_PLACEMENT_3D('',#1966,#1554,#1555);
#1264=AXIS2_PLACEMENT_3D('',#1967,#1556,#1557);
#1265=AXIS2_PLACEMENT_3D('',#1968,#1558,#1559);
#1266=AXIS2_PLACEMENT_3D('',#1972,#1562,#1563);
#1267=AXIS2_PLACEMENT_3D('',#1976,#1566,#1567);
#1268=AXIS2_PLACEMENT_3D('',#1978,#1568,#1569);
#1269=AXIS2_PLACEMENT_3D('',#1980,#1571,#1572);
#1270=AXIS2_PLACEMENT_3D('',#1983,#1575,#1576);
#1271=AXIS2_PLACEMENT_3D('',#1985,#1578,#1579);
#1272=AXIS2_PLACEMENT_3D('',#1986,#1580,#1581);
#1273=AXIS2_PLACEMENT_3D('',#1990,#1584,#1585);
#1274=AXIS2_PLACEMENT_3D('',#1992,#1586,#1587);
#1275=AXIS2_PLACEMENT_3D('',#1994,#1588,#1589);
#1276=AXIS2_PLACEMENT_3D('',#1996,#1590,#1591);
#1277=AXIS2_PLACEMENT_3D('',#1997,#1592,#1593);
#1278=AXIS2_PLACEMENT_3D('',#1998,#1594,#1595);
#1279=AXIS2_PLACEMENT_3D('',#1999,#1596,#1597);
#1280=AXIS2_PLACEMENT_3D('',#2003,#1601,#1602);
#1281=AXIS2_PLACEMENT_3D('',#2006,#1605,#1606);
#1282=AXIS2_PLACEMENT_3D('',#2007,#1607,#1608);
#1283=AXIS2_PLACEMENT_3D('',#2009,#1610,#1611);
#1284=AXIS2_PLACEMENT_3D('',#2011,#1613,#1614);
#1285=AXIS2_PLACEMENT_3D('',#2013,#1616,#1617);
#1286=AXIS2_PLACEMENT_3D('',#2015,#1619,#1620);
#1287=AXIS2_PLACEMENT_3D('',#2016,#1621,#1622);
#1288=AXIS2_PLACEMENT_3D('',#2018,#1624,#1625);
#1289=AXIS2_PLACEMENT_3D('',#2019,#1626,#1627);
#1290=DIRECTION('axis',(0.,0.,1.));
#1291=DIRECTION('refdir',(1.,0.,0.));
#1292=DIRECTION('center_axis',(0.,0.,-1.));
#1293=DIRECTION('ref_axis',(-0.707106781186548,-0.707106781186548,0.));
#1294=DIRECTION('',(0.,0.,-1.));
#1295=DIRECTION('center_axis',(0.,0.,-1.));
#1296=DIRECTION('ref_axis',(-0.707106781186548,-0.707106781186548,0.));
#1297=DIRECTION('',(0.,0.,1.));
#1298=DIRECTION('center_axis',(0.,0.707106781186548,-0.707106781186548));
#1299=DIRECTION('ref_axis',(0.,-0.707106781186547,-0.707106781186547));
#1300=DIRECTION('center_axis',(0.,-0.707106781186548,-0.707106781186548));
#1301=DIRECTION('ref_axis',(0.,-0.707106781186547,0.707106781186547));
#1302=DIRECTION('center_axis',(1.,0.,0.));
#1303=DIRECTION('ref_axis',(0.,1.,0.));
#1304=DIRECTION('center_axis',(1.,0.,0.));
#1305=DIRECTION('ref_axis',(0.,0.707106781186548,0.707106781186548));
#1306=DIRECTION('',(0.,0.,1.));
#1307=DIRECTION('',(0.,-1.,0.));
#1308=DIRECTION('center_axis',(0.,1.,0.));
#1309=DIRECTION('ref_axis',(-1.,0.,0.));
#1310=DIRECTION('center_axis',(-1.,0.,0.));
#1311=DIRECTION('ref_axis',(0.,0.707106781186547,0.707106781186547));
#1312=DIRECTION('center_axis',(0.,0.,-1.));
#1313=DIRECTION('ref_axis',(-1.,0.,0.));
#1314=DIRECTION('center_axis',(0.,0.,1.));
#1315=DIRECTION('ref_axis',(-0.707106781186548,0.707106781186548,0.));
#1316=DIRECTION('',(0.,0.,-1.));
#1317=DIRECTION('center_axis',(0.,0.,-1.));
#1318=DIRECTION('ref_axis',(-0.707106781186548,0.707106781186548,0.));
#1319=DIRECTION('center_axis',(0.,-1.,0.));
#1320=DIRECTION('ref_axis',(-0.707106781186546,0.,0.707106781186549));
#1321=DIRECTION('center_axis',(0.,0.707106781186548,-0.707106781186548));
#1322=DIRECTION('ref_axis',(0.,0.707106781186547,0.707106781186547));
#1323=DIRECTION('',(0.,1.,0.));
#1324=DIRECTION('center_axis',(0.,1.,0.));
#1325=DIRECTION('ref_axis',(-1.,0.,0.));
#1326=DIRECTION('',(-1.,0.,0.));
#1327=DIRECTION('',(-1.,0.,0.));
#1328=DIRECTION('',(0.,0.,1.));
#1329=DIRECTION('',(1.,0.,0.));
#1330=DIRECTION('',(0.,0.,-1.));
#1331=DIRECTION('',(-1.,0.,0.));
#1332=DIRECTION('center_axis',(0.,1.,0.));
#1333=DIRECTION('ref_axis',(0.707106781186547,-9.81307786677359E-17,-0.707106781186547));
#1334=DIRECTION('',(0.,0.,1.));
#1335=DIRECTION('',(-1.,0.,0.));
#1336=DIRECTION('',(0.,0.,1.));
#1337=DIRECTION('center_axis',(-1.,0.,0.));
#1338=DIRECTION('ref_axis',(0.,0.707106781186547,0.707106781186548));
#1339=DIRECTION('',(1.,0.,0.));
#1340=DIRECTION('center_axis',(1.,-1.11022302462516E-15,0.));
#1341=DIRECTION('ref_axis',(1.11022302462516E-15,1.,0.));
#1342=DIRECTION('center_axis',(0.,0.,1.));
#1343=DIRECTION('ref_axis',(1.,0.,0.));
#1344=DIRECTION('',(-1.,0.,0.));
#1345=DIRECTION('center_axis',(0.,0.,1.));
#1346=DIRECTION('ref_axis',(0.,-1.,0.));
#1347=DIRECTION('',(1.,0.,0.));
#1348=DIRECTION('center_axis',(0.,0.,1.));
#1349=DIRECTION('ref_axis',(0.,1.,0.));
#1350=DIRECTION('',(-1.,0.,0.));
#1351=DIRECTION('',(0.,-1.,0.));
#1352=DIRECTION('',(1.,0.,0.));
#1353=DIRECTION('',(1.38777878078145E-16,1.,0.));
#1354=DIRECTION('center_axis',(0.,0.,-1.));
#1355=DIRECTION('ref_axis',(0.,1.,0.));
#1356=DIRECTION('',(-2.45698367826971E-16,-1.,0.));
#1357=DIRECTION('center_axis',(0.,0.,-1.));
#1358=DIRECTION('ref_axis',(-0.461792686128302,-0.886987888890489,0.));
#1359=DIRECTION('',(-1.,0.,0.));
#1360=DIRECTION('center_axis',(0.,0.,-1.));
#1361=DIRECTION('ref_axis',(1.,-6.12323399573677E-17,0.));
#1362=DIRECTION('center_axis',(0.,-0.707106781186548,0.707106781186548));
#1363=DIRECTION('ref_axis',(1.,0.,0.));
#1364=DIRECTION('',(1.,0.,0.));
#1365=DIRECTION('',(0.,0.707106781186548,0.707106781186548));
#1366=DIRECTION('center_axis',(0.,0.,1.));
#1367=DIRECTION('ref_axis',(0.707106781186548,-0.707106781186548,0.));
#1368=DIRECTION('center_axis',(0.,0.707106781186548,-0.707106781186548));
#1369=DIRECTION('ref_axis',(0.,-0.707106781186547,-0.707106781186547));
#1370=DIRECTION('',(0.,0.,-1.));
#1371=DIRECTION('center_axis',(0.,0.,-1.));
#1372=DIRECTION('ref_axis',(0.707106781186548,-0.707106781186548,0.));
#1373=DIRECTION('',(0.,0.,1.));
#1374=DIRECTION('center_axis',(0.,-0.707106781186548,-0.707106781186548));
#1375=DIRECTION('ref_axis',(0.,-0.707106781186547,0.707106781186547));
#1376=DIRECTION('center_axis',(0.,1.,0.));
#1377=DIRECTION('ref_axis',(-1.,0.,0.));
#1378=DIRECTION('',(1.,0.,0.));
#1379=DIRECTION('',(0.,0.,1.));
#1380=DIRECTION('',(1.,0.,0.));
#1381=DIRECTION('center_axis',(0.,-0.707106781186548,0.707106781186548));
#1382=DIRECTION('ref_axis',(1.,0.,0.));
#1383=DIRECTION('center_axis',(0.,0.707106781186548,-0.707106781186548));
#1384=DIRECTION('ref_axis',(0.,0.707106781186547,0.707106781186547));
#1385=DIRECTION('',(-7.85046229341887E-15,0.707106781186548,0.707106781186548));
#1386=DIRECTION('center_axis',(0.,1.,0.));
#1387=DIRECTION('ref_axis',(0.707106781186546,0.,0.707106781186549));
#1388=DIRECTION('center_axis',(0.,-1.,0.));
#1389=DIRECTION('ref_axis',(1.,0.,0.));
#1390=DIRECTION('center_axis',(-1.,0.,0.));
#1391=DIRECTION('ref_axis',(0.,0.707106781186548,0.707106781186548));
#1392=DIRECTION('center_axis',(0.,0.,1.));
#1393=DIRECTION('ref_axis',(1.,0.,0.));
#1394=DIRECTION('center_axis',(1.,0.,0.));
#1395=DIRECTION('ref_axis',(0.,0.707106781186547,0.707106781186547));
#1396=DIRECTION('center_axis',(0.,0.,-1.));
#1397=DIRECTION('ref_axis',(0.707106781186548,0.707106781186548,0.));
#1398=DIRECTION('center_axis',(0.,0.,-1.));
#1399=DIRECTION('ref_axis',(0.707106781186548,0.707106781186548,0.));
#1400=DIRECTION('',(0.,0.,-1.));
#1401=DIRECTION('center_axis',(-1.,0.,0.));
#1402=DIRECTION('ref_axis',(0.,-1.,0.));
#1403=DIRECTION('',(0.,1.,0.));
#1404=DIRECTION('center_axis',(-1.57009245868377E-16,-0.707106781186548,
0.707106781186548));
#1405=DIRECTION('ref_axis',(1.,0.,2.22044604925031E-16));
#1406=DIRECTION('',(1.73734982016918E-16,0.707106781186548,0.707106781186548));
#1407=DIRECTION('',(-1.,2.22044604925031E-16,0.));
#1408=DIRECTION('',(-9.81307786677359E-17,-0.707106781186548,-0.707106781186548));
#1409=DIRECTION('',(1.,-2.22044604925031E-16,0.));
#1410=DIRECTION('center_axis',(0.,0.,1.));
#1411=DIRECTION('ref_axis',(1.,0.,0.));
#1412=DIRECTION('',(2.45698367826971E-16,1.,0.));
#1413=DIRECTION('center_axis',(0.,0.,-1.));
#1414=DIRECTION('ref_axis',(1.25448929336176E-16,1.,0.));
#1415=DIRECTION('center_axis',(0.,0.,-1.));
#1416=DIRECTION('ref_axis',(-0.231248645031422,0.972894682980194,0.));
#1417=DIRECTION('',(-1.38777878078145E-16,-1.,0.));
#1418=DIRECTION('center_axis',(1.,-2.45698367826971E-16,0.));
#1419=DIRECTION('ref_axis',(2.45698367826971E-16,1.,0.));
#1420=DIRECTION('',(0.,0.,1.));
#1421=DIRECTION('',(-2.45698367826971E-16,-1.,0.));
#1422=DIRECTION('',(0.,0.,-1.));
#1423=DIRECTION('',(0.,0.,1.));
#1424=DIRECTION('center_axis',(0.,0.707106781186547,-0.707106781186548));
#1425=DIRECTION('ref_axis',(-1.,0.,0.));
#1426=DIRECTION('',(0.,-0.707106781186548,-0.707106781186547));
#1427=DIRECTION('',(-1.,0.,0.));
#1428=DIRECTION('',(-0.281084637714821,0.678598344545846,0.678598344545847));
#1429=DIRECTION('center_axis',(-1.57009245868378E-16,-0.707106781186549,
-0.707106781186546));
#1430=DIRECTION('ref_axis',(-1.,0.,2.22044604925032E-16));
#1431=DIRECTION('',(-1.,2.22044604925031E-16,0.));
#1432=DIRECTION('',(0.281084637714821,0.678598344545846,-0.678598344545848));
#1433=DIRECTION('',(1.,-2.22044604925031E-16,0.));
#1434=DIRECTION('',(0.577350269189626,-0.577350269189625,0.577350269189627));
#1435=DIRECTION('center_axis',(-0.707106781186549,0.,-0.707106781186546));
#1436=DIRECTION('ref_axis',(-0.707106781186546,0.,0.707106781186549));
#1437=DIRECTION('',(0.,-1.,0.));
#1438=DIRECTION('',(-0.678598344545847,-0.281084637714816,0.678598344545849));
#1439=DIRECTION('',(0.,1.,0.));
#1440=DIRECTION('',(0.678598344545847,-0.281084637714816,-0.678598344545849));
#1441=DIRECTION('center_axis',(-0.500000000000002,-0.499999999999999,-0.707106781186547));
#1442=DIRECTION('ref_axis',(-0.816496580927725,0.,0.577350269189627));
#1443=DIRECTION('',(-0.707106781186546,0.707106781186549,0.));
#1444=DIRECTION('',(0.707106781186546,-0.707106781186549,0.));
#1445=DIRECTION('center_axis',(-0.500000000000002,0.5,-0.707106781186546));
#1446=DIRECTION('ref_axis',(-0.816496580927724,0.,0.577350269189629));
#1447=DIRECTION('',(-0.707106781186546,-0.707106781186549,0.));
#1448=DIRECTION('',(0.707106781186546,0.707106781186549,0.));
#1449=DIRECTION('center_axis',(0.707106781186548,0.,-0.707106781186547));
#1450=DIRECTION('ref_axis',(-0.707106781186547,0.,-0.707106781186548));
#1451=DIRECTION('',(0.,-1.,0.));
#1452=DIRECTION('',(0.,1.,0.));
#1453=DIRECTION('',(0.577350269189625,-0.577350269189626,0.577350269189626));
#1454=DIRECTION('center_axis',(0.,0.,1.));
#1455=DIRECTION('ref_axis',(0.,-1.,0.));
#1456=DIRECTION('center_axis',(0.,0.,-1.));
#1457=DIRECTION('ref_axis',(0.,-1.,0.));
#1458=DIRECTION('',(0.,0.707106781186548,-0.707106781186547));
#1459=DIRECTION('center_axis',(0.,0.,1.));
#1460=DIRECTION('ref_axis',(0.,-1.,0.));
#1461=DIRECTION('center_axis',(0.,-0.707106781186547,-0.707106781186548));
#1462=DIRECTION('ref_axis',(-1.,0.,0.));
#1463=DIRECTION('',(1.,0.,0.));
#1464=DIRECTION('',(-1.,0.,0.));
#1465=DIRECTION('center_axis',(0.,0.,1.));
#1466=DIRECTION('ref_axis',(0.,-1.,0.));
#1467=DIRECTION('center_axis',(0.,0.,1.));
#1468=DIRECTION('ref_axis',(1.,-6.12323399573677E-17,0.));
#1469=DIRECTION('',(0.,0.,1.));
#1470=DIRECTION('center_axis',(-0.707106781186549,0.707106781186546,0.));
#1471=DIRECTION('ref_axis',(0.,0.,1.));
#1472=DIRECTION('',(0.,0.,1.));
#1473=DIRECTION('',(0.707106781186546,0.707106781186549,0.));
#1474=DIRECTION('center_axis',(-1.,0.,0.));
#1475=DIRECTION('ref_axis',(0.,-1.,0.));
#1476=DIRECTION('',(0.,0.,-1.));
#1477=DIRECTION('',(0.,-1.,0.));
#1478=DIRECTION('center_axis',(0.,0.,1.));
#1479=DIRECTION('ref_axis',(1.,0.,0.));
#1480=DIRECTION('center_axis',(0.,0.,1.));
#1481=DIRECTION('ref_axis',(0.,-1.,0.));
#1482=DIRECTION('',(7.85046229341887E-15,-0.707106781186548,0.707106781186548));
#1483=DIRECTION('center_axis',(0.,0.,-1.));
#1484=DIRECTION('ref_axis',(0.,-1.,0.));
#1485=DIRECTION('center_axis',(0.,0.707106781186548,0.707106781186548));
#1486=DIRECTION('ref_axis',(1.,0.,0.));
#1487=DIRECTION('',(0.,-0.707106781186548,0.707106781186548));
#1488=DIRECTION('',(-1.,0.,0.));
#1489=DIRECTION('center_axis',(0.,0.,1.));
#1490=DIRECTION('ref_axis',(0.,1.,0.));
#1491=DIRECTION('center_axis',(0.,0.,-1.));
#1492=DIRECTION('ref_axis',(0.,1.,0.));
#1493=DIRECTION('center_axis',(0.,0.,1.));
#1494=DIRECTION('ref_axis',(0.,1.,0.));
#1495=DIRECTION('',(0.,0.,1.));
#1496=DIRECTION('center_axis',(0.,0.,-1.));
#1497=DIRECTION('ref_axis',(0.,1.,0.));
#1498=DIRECTION('center_axis',(0.,-1.,0.));
#1499=DIRECTION('ref_axis',(1.,0.,0.));
#1500=DIRECTION('',(0.,0.,1.));
#1501=DIRECTION('',(-1.,0.,0.));
#1502=DIRECTION('center_axis',(0.,-1.,0.));
#1503=DIRECTION('ref_axis',(-1.,0.,0.));
#1504=DIRECTION('',(1.85037170770859E-16,0.,-1.));
#1505=DIRECTION('',(1.,0.,0.));
#1506=DIRECTION('',(-1.85037170770859E-16,0.,1.));
#1507=DIRECTION('center_axis',(0.,-1.,0.));
#1508=DIRECTION('ref_axis',(1.,0.,0.));
#1509=DIRECTION('',(3.70074341541719E-16,0.,-1.));
#1510=DIRECTION('',(1.,0.,0.));
#1511=DIRECTION('',(0.,0.,1.));
#1512=DIRECTION('center_axis',(0.,0.,1.));
#1513=DIRECTION('ref_axis',(0.,-1.,0.));
#1514=DIRECTION('',(0.,0.,1.));
#1515=DIRECTION('center_axis',(0.,0.,-1.));
#1516=DIRECTION('ref_axis',(0.,-1.,0.));
#1517=DIRECTION('center_axis',(0.,1.,0.));
#1518=DIRECTION('ref_axis',(-1.,0.,0.));
#1519=DIRECTION('',(1.,0.,0.));
#1520=DIRECTION('center_axis',(1.38777878078145E-16,1.,0.));
#1521=DIRECTION('ref_axis',(-0.707106781186548,0.,0.707106781186548));
#1522=DIRECTION('',(-1.38777878078145E-16,-1.,0.));
#1523=DIRECTION('center_axis',(-0.707106781186547,-0.707106781186548,0.));
#1524=DIRECTION('ref_axis',(0.707106781186548,-0.707106781186547,0.));
#1525=DIRECTION('center_axis',(-1.,0.,0.));
#1526=DIRECTION('ref_axis',(0.,0.707106781186547,0.707106781186548));
#1527=DIRECTION('center_axis',(0.,0.,1.));
#1528=DIRECTION('ref_axis',(1.,0.,0.));
#1529=DIRECTION('center_axis',(0.,0.,1.));
#1530=DIRECTION('ref_axis',(-0.461792686128302,-0.88698788889049,0.));
#1531=DIRECTION('center_axis',(-1.,1.11022302462516E-15,0.));
#1532=DIRECTION('ref_axis',(-1.11022302462516E-15,-1.,0.));
#1533=DIRECTION('center_axis',(1.,0.,0.));
#1534=DIRECTION('ref_axis',(0.,-0.707106781186547,0.707106781186548));
#1535=DIRECTION('center_axis',(-1.,0.,0.));
#1536=DIRECTION('ref_axis',(0.,-1.,0.));
#1537=DIRECTION('',(1.,0.,0.));
#1538=DIRECTION('center_axis',(0.,0.,1.));
#1539=DIRECTION('ref_axis',(1.,0.,0.));
#1540=DIRECTION('center_axis',(0.,-1.,0.));
#1541=DIRECTION('ref_axis',(1.,0.,0.));
#1542=DIRECTION('',(0.,0.,1.));
#1543=DIRECTION('',(0.,0.,1.));
#1544=DIRECTION('',(-1.,0.,0.));
#1545=DIRECTION('',(-1.85037170770859E-16,0.,1.));
#1546=DIRECTION('center_axis',(0.,-1.,0.));
#1547=DIRECTION('ref_axis',(1.,0.,0.));
#1548=DIRECTION('',(0.,0.,-1.));
#1549=DIRECTION('',(-1.,0.,0.));
#1550=DIRECTION('',(-3.70074341541719E-16,0.,1.));
#1551=DIRECTION('center_axis',(0.,1.,0.));
#1552=DIRECTION('ref_axis',(1.,0.,0.));
#1553=DIRECTION('',(1.85037170770859E-16,0.,-1.));
#1554=DIRECTION('center_axis',(0.,0.,1.));
#1555=DIRECTION('ref_axis',(0.,1.,0.));
#1556=DIRECTION('center_axis',(0.,0.,1.));
#1557=DIRECTION('ref_axis',(0.,1.,0.));
#1558=DIRECTION('center_axis',(-0.707106781186549,-0.707106781186546,0.));
#1559=DIRECTION('ref_axis',(0.,0.,1.));
#1560=DIRECTION('',(0.,0.,1.));
#1561=DIRECTION('',(-0.707106781186546,0.707106781186549,0.));
#1562=DIRECTION('center_axis',(0.,0.,1.));
#1563=DIRECTION('ref_axis',(1.,0.,0.));
#1564=DIRECTION('',(1.,-2.22044604925031E-16,0.));
#1565=DIRECTION('',(-1.38777878078145E-16,-1.,0.));
#1566=DIRECTION('center_axis',(1.38777878078145E-16,1.,0.));
#1567=DIRECTION('ref_axis',(0.707106781186547,-9.81307786677359E-17,-0.707106781186547));
#1568=DIRECTION('center_axis',(-2.22044604925031E-16,-1.,0.));
#1569=DIRECTION('ref_axis',(0.707106781186547,-9.81307786677359E-17,-0.707106781186547));
#1570=DIRECTION('',(1.38777878078145E-16,1.,0.));
#1571=DIRECTION('center_axis',(-1.,1.38777878078145E-16,0.));
#1572=DIRECTION('ref_axis',(-1.38777878078145E-16,-1.,0.));
#1573=DIRECTION('',(0.,0.,1.));
#1574=DIRECTION('',(0.,0.,1.));
#1575=DIRECTION('center_axis',(0.,0.,1.));
#1576=DIRECTION('ref_axis',(-0.231248645031422,0.972894682980194,0.));
#1577=DIRECTION('',(0.,0.,-1.));
#1578=DIRECTION('center_axis',(0.,0.,1.));
#1579=DIRECTION('ref_axis',(1.25448929336176E-16,1.,0.));
#1580=DIRECTION('center_axis',(0.,0.,1.));
#1581=DIRECTION('ref_axis',(1.,0.,0.));
#1582=DIRECTION('',(1.,-2.22044604925031E-16,0.));
#1583=DIRECTION('',(0.,1.,0.));
#1584=DIRECTION('center_axis',(0.,1.,0.));
#1585=DIRECTION('ref_axis',(0.,0.,1.));
#1586=DIRECTION('center_axis',(0.,-1.,0.));
#1587=DIRECTION('ref_axis',(-1.,0.,-6.34413156928661E-16));
#1588=DIRECTION('center_axis',(-1.,0.,0.));
#1589=DIRECTION('ref_axis',(0.,0.,-1.));
#1590=DIRECTION('center_axis',(0.,1.,0.));
#1591=DIRECTION('ref_axis',(-1.,0.,-6.34413156928661E-16));
#1592=DIRECTION('center_axis',(0.,1.,0.));
#1593=DIRECTION('ref_axis',(-1.,0.,-6.34413156928661E-16));
#1594=DIRECTION('center_axis',(0.,1.,0.));
#1595=DIRECTION('ref_axis',(-1.,0.,0.));
#1596=DIRECTION('center_axis',(0.,-1.,0.));
#1597=DIRECTION('ref_axis',(1.,0.,0.));
#1598=DIRECTION('',(0.,-1.,0.));
#1599=DIRECTION('',(0.,-1.,0.));
#1600=DIRECTION('',(0.,-1.,0.));
#1601=DIRECTION('center_axis',(0.,0.,-1.));
#1602=DIRECTION('ref_axis',(1.,0.,0.));
#1603=DIRECTION('',(0.,-1.,0.));
#1604=DIRECTION('',(0.,-1.,0.));
#1605=DIRECTION('center_axis',(1.,0.,0.));
#1606=DIRECTION('ref_axis',(0.,0.,1.));
#1607=DIRECTION('center_axis',(-1.,0.,-1.85037170770859E-16));
#1608=DIRECTION('ref_axis',(1.85037170770859E-16,0.,-1.));
#1609=DIRECTION('',(0.,-1.,0.));
#1610=DIRECTION('center_axis',(0.,0.,-1.));
#1611=DIRECTION('ref_axis',(1.,0.,0.));
#1612=DIRECTION('',(0.,-1.,0.));
#1613=DIRECTION('center_axis',(1.,0.,1.85037170770859E-16));
#1614=DIRECTION('ref_axis',(-1.85037170770859E-16,0.,1.));
#1615=DIRECTION('',(0.,-1.,0.));
#1616=DIRECTION('center_axis',(0.,-1.,0.));
#1617=DIRECTION('ref_axis',(1.,0.,0.));
#1618=DIRECTION('',(0.,-1.,0.));
#1619=DIRECTION('center_axis',(-1.,0.,-3.70074341541719E-16));
#1620=DIRECTION('ref_axis',(3.70074341541719E-16,0.,-1.));
#1621=DIRECTION('center_axis',(1.,0.,0.));
#1622=DIRECTION('ref_axis',(0.,1.,0.));
#1623=DIRECTION('',(0.,0.,1.));
#1624=DIRECTION('center_axis',(-2.22044604925031E-16,-1.,0.));
#1625=DIRECTION('ref_axis',(1.,-2.22044604925031E-16,0.));
#1626=DIRECTION('center_axis',(0.,0.,1.));
#1627=DIRECTION('ref_axis',(1.,0.,0.));
#1628=CARTESIAN_POINT('',(0.,0.,0.));
#1629=CARTESIAN_POINT('Origin',(9.,8.,0.));
#1630=CARTESIAN_POINT('',(8.52303039929153,7.85,13.65));
#1631=CARTESIAN_POINT('',(8.5,8.,13.4769696007085));
#1632=CARTESIAN_POINT('Ctrl Pts',(8.52303039929153,7.85,13.65));
#1633=CARTESIAN_POINT('Ctrl Pts',(8.51443414816094,7.87733433646232,13.6226656635377));
#1634=CARTESIAN_POINT('Ctrl Pts',(8.50840348365294,7.9047605115181,13.5935302922216));
#1635=CARTESIAN_POINT('Ctrl Pts',(8.50150286911289,7.95477870429355,13.53572488538));
#1636=CARTESIAN_POINT('Ctrl Pts',(8.50008459141343,7.97702458659458,13.5081164530531));
#1637=CARTESIAN_POINT('Ctrl Pts',(8.50000122601619,7.9987203145893,13.4787111311484));
#1638=CARTESIAN_POINT('Ctrl Pts',(8.5,7.99936072617738,13.4778407840797));
#1639=CARTESIAN_POINT('Ctrl Pts',(8.5,8.,13.4769696007085));
#1640=CARTESIAN_POINT('',(8.5,8.,1.6));
#1641=CARTESIAN_POINT('',(8.5,8.,0.));
#1642=CARTESIAN_POINT('',(9.,7.5,1.6));
#1643=CARTESIAN_POINT('Origin',(9.,8.,1.6));
#1644=CARTESIAN_POINT('',(9.,7.5,13.8));
#1645=CARTESIAN_POINT('',(9.,7.5,0.));
#1646=CARTESIAN_POINT('',(8.7,7.6,13.9));
#1647=CARTESIAN_POINT('Origin',(9.,8.,14.3));
#1648=CARTESIAN_POINT('Origin',(9.,8.,13.5));
#1649=CARTESIAN_POINT('Origin',(8.5,7.5,0.));
#1650=CARTESIAN_POINT('',(8.5,8.35,13.));
#1651=CARTESIAN_POINT('Origin',(8.5,7.85,13.));
#1652=CARTESIAN_POINT('',(8.5,8.35,1.6));
#1653=CARTESIAN_POINT('',(8.5,8.35,0.));
#1654=CARTESIAN_POINT('',(8.5,0.174999999999996,1.6));
#1655=CARTESIAN_POINT('Ctrl Pts',(8.5,8.35,13.));
#1656=CARTESIAN_POINT('Ctrl Pts',(8.5,8.35,13.5));
#1657=CARTESIAN_POINT('Ctrl Pts',(8.5,7.85,13.5));
#1658=CARTESIAN_POINT('Ctrl Pts',(8.5,8.85,13.));
#1659=CARTESIAN_POINT('Ctrl Pts',(8.5,8.85,14.));
#1660=CARTESIAN_POINT('Ctrl Pts',(8.5,7.85,14.));
#1661=CARTESIAN_POINT('Ctrl Pts',(9.,8.85,13.));
#1662=CARTESIAN_POINT('Ctrl Pts',(9.,8.85,14.));
#1663=CARTESIAN_POINT('Ctrl Pts',(9.,7.85,14.));
#1664=CARTESIAN_POINT('',(9.,7.85,14.));
#1665=CARTESIAN_POINT('Origin',(9.,7.85,13.5));
#1666=CARTESIAN_POINT('',(9.,8.85,13.));
#1667=CARTESIAN_POINT('Origin',(9.,7.85,13.));
#1668=CARTESIAN_POINT('Origin',(9.,8.35,13.));
#1669=CARTESIAN_POINT('Origin',(9.,8.35,0.));
#1670=CARTESIAN_POINT('',(9.,8.85,1.6));
#1671=CARTESIAN_POINT('',(9.,8.85,0.));
#1672=CARTESIAN_POINT('Origin',(9.,8.35,1.6));
#1673=CARTESIAN_POINT('Origin',(9.,3.75,13.5));
#1674=CARTESIAN_POINT('',(9.,7.7,14.));
#1675=CARTESIAN_POINT('Origin',(9.,7.2,13.5));
#1676=CARTESIAN_POINT('',(9.,3.75,14.));
#1677=CARTESIAN_POINT('Origin',(9.75,8.85,0.));
#1678=CARTESIAN_POINT('',(-9.,8.85,1.6));
#1679=CARTESIAN_POINT('',(-9.75,8.85,1.6));
#1680=CARTESIAN_POINT('',(9.75,8.85,13.));
#1681=CARTESIAN_POINT('',(4.875,8.85,13.));
#1682=CARTESIAN_POINT('',(9.75,8.85,0.5));
#1683=CARTESIAN_POINT('',(9.75,8.85,0.));
#1684=CARTESIAN_POINT('',(-48.75,8.85,0.5));
#1685=CARTESIAN_POINT('',(4.875,8.85,0.5));
#1686=CARTESIAN_POINT('',(-48.75,8.85,1.6));
#1687=CARTESIAN_POINT('',(-48.75,8.85,0.));
#1688=CARTESIAN_POINT('',(-28.6,8.85,1.6));
#1689=CARTESIAN_POINT('',(-9.75,8.85,1.6));
#1690=CARTESIAN_POINT('',(-18.6,8.85,11.6));
#1691=CARTESIAN_POINT('Origin',(-28.6,8.85,11.6));
#1692=CARTESIAN_POINT('',(-18.6,8.85,13.));
#1693=CARTESIAN_POINT('',(-18.6,8.85,1.6));
#1694=CARTESIAN_POINT('',(-9.,8.85,13.));
#1695=CARTESIAN_POINT('',(4.875,8.85,13.));
#1696=CARTESIAN_POINT('',(-9.,8.85,0.));
#1697=CARTESIAN_POINT('Origin',(4.875,7.85,13.));
#1698=CARTESIAN_POINT('',(9.75,7.85,14.));
#1699=CARTESIAN_POINT('',(4.875,7.85,14.));
#1700=CARTESIAN_POINT('Origin',(9.75,7.85,13.));
#1701=CARTESIAN_POINT('Origin',(2.22044604925031E-15,0.,14.));
#1702=CARTESIAN_POINT('',(9.75,7.7,14.));
#1703=CARTESIAN_POINT('',(4.875,7.7,14.));
#1704=CARTESIAN_POINT('',(9.75,-7.7,14.));
#1705=CARTESIAN_POINT('Origin',(9.75,0.,14.));
#1706=CARTESIAN_POINT('',(-9.75,-7.7,14.));
#1707=CARTESIAN_POINT('',(-4.875,-7.7,14.));
#1708=CARTESIAN_POINT('',(-9.75,7.7,14.));
#1709=CARTESIAN_POINT('Origin',(-9.75,0.,14.));
#1710=CARTESIAN_POINT('',(-9.,7.7,14.));
#1711=CARTESIAN_POINT('',(4.875,7.7,14.));
#1712=CARTESIAN_POINT('',(-9.,7.85,14.));
#1713=CARTESIAN_POINT('',(-9.,4.425,14.));
#1714=CARTESIAN_POINT('',(-17.6,7.85,14.));
#1715=CARTESIAN_POINT('',(4.875,7.85,14.));
#1716=CARTESIAN_POINT('',(-17.6,-4.08656334834051,14.));
#1717=CARTESIAN_POINT('',(-17.6,4.425,14.));
#1718=CARTESIAN_POINT('',(-17.,-5.07543101617981,14.));
#1719=CARTESIAN_POINT('Origin',(-9.75,0.,14.));
#1720=CARTESIAN_POINT('',(-17.,-3.00998338865848,14.));
#1721=CARTESIAN_POINT('',(-17.,-11.575,14.));
#1722=CARTESIAN_POINT('',(-9.75,-7.85,14.));
#1723=CARTESIAN_POINT('Origin',(-9.75,0.,14.));
#1724=CARTESIAN_POINT('',(9.75,-7.85,14.));
#1725=CARTESIAN_POINT('',(-4.875,-7.85,14.));
#1726=CARTESIAN_POINT('Origin',(9.75,0.,14.));
#1727=CARTESIAN_POINT('Origin',(4.875,7.6,13.9));
#1728=CARTESIAN_POINT('',(9.75,7.5,13.8));
#1729=CARTESIAN_POINT('',(4.875,7.5,13.8));
#1730=CARTESIAN_POINT('',(9.75,7.5,13.8));
#1731=CARTESIAN_POINT('Origin',(-9.,8.,0.));
#1732=CARTESIAN_POINT('',(-8.7,7.6,13.9));
#1733=CARTESIAN_POINT('',(-9.,7.5,13.8));
#1734=CARTESIAN_POINT('Origin',(-9.,8.,14.3));
#1735=CARTESIAN_POINT('',(-9.,7.5,1.6));
#1736=CARTESIAN_POINT('',(-9.,7.5,0.));
#1737=CARTESIAN_POINT('',(-8.5,8.,1.6));
#1738=CARTESIAN_POINT('Origin',(-9.,8.,1.6));
#1739=CARTESIAN_POINT('',(-8.5,8.,13.4769696007085));
#1740=CARTESIAN_POINT('',(-8.5,8.,0.));
#1741=CARTESIAN_POINT('',(-8.52303039929153,7.85,13.65));
#1742=CARTESIAN_POINT('Ctrl Pts',(-8.5,8.,13.4769696007085));
#1743=CARTESIAN_POINT('Ctrl Pts',(-8.5,7.99936072617725,13.4778407840798));
#1744=CARTESIAN_POINT('Ctrl Pts',(-8.50000122601619,7.99872031458953,13.4787111311481));
#1745=CARTESIAN_POINT('Ctrl Pts',(-8.50008459141343,7.97702458659322,13.508116453055));
#1746=CARTESIAN_POINT('Ctrl Pts',(-8.50150286911292,7.95477870429338,13.5357248853802));
#1747=CARTESIAN_POINT('Ctrl Pts',(-8.50840348365294,7.90476051151807,13.5935302922216));
#1748=CARTESIAN_POINT('Ctrl Pts',(-8.51443414816095,7.87733433646229,13.6226656635377));
#1749=CARTESIAN_POINT('Ctrl Pts',(-8.52303039929153,7.85,13.65));
#1750=CARTESIAN_POINT('Origin',(-9.,8.,13.5));
#1751=CARTESIAN_POINT('Origin',(9.75,7.5,0.));
#1752=CARTESIAN_POINT('',(-9.75,7.5,13.8));
#1753=CARTESIAN_POINT('',(4.875,7.5,13.8));
#1754=CARTESIAN_POINT('',(-9.75,7.5,1.6));
#1755=CARTESIAN_POINT('',(-9.75,7.5,0.));
#1756=CARTESIAN_POINT('',(-2.9125,7.5,1.6));
#1757=CARTESIAN_POINT('Origin',(4.875,7.6,13.9));
#1758=CARTESIAN_POINT('Origin',(-9.,7.2,13.5));
#1759=CARTESIAN_POINT('',(-9.75,7.5,13.8));
#1760=CARTESIAN_POINT('Origin',(-9.,4.425,13.5));
#1761=CARTESIAN_POINT('Origin',(-9.,7.85,13.5));
#1762=CARTESIAN_POINT('Ctrl Pts',(-8.5,7.85,13.5));
#1763=CARTESIAN_POINT('Ctrl Pts',(-8.5,8.35,13.5));
#1764=CARTESIAN_POINT('Ctrl Pts',(-8.5,8.35,13.));
#1765=CARTESIAN_POINT('Ctrl Pts',(-8.5,7.85,14.));
#1766=CARTESIAN_POINT('Ctrl Pts',(-8.5,8.85,14.));
#1767=CARTESIAN_POINT('Ctrl Pts',(-8.5,8.85,13.));
#1768=CARTESIAN_POINT('Ctrl Pts',(-9.,7.85,14.));
#1769=CARTESIAN_POINT('Ctrl Pts',(-9.,8.85,14.));
#1770=CARTESIAN_POINT('Ctrl Pts',(-9.,8.85,13.));
#1771=CARTESIAN_POINT('',(-8.5,8.35,13.));
#1772=CARTESIAN_POINT('Origin',(-8.5,7.85,13.));
#1773=CARTESIAN_POINT('Origin',(-9.,8.35,13.));
#1774=CARTESIAN_POINT('Origin',(-9.,7.85,13.));
#1775=CARTESIAN_POINT('Origin',(-9.,8.35,0.));
#1776=CARTESIAN_POINT('',(-8.5,8.35,1.6));
#1777=CARTESIAN_POINT('Origin',(-9.,8.35,1.6));
#1778=CARTESIAN_POINT('',(-8.5,8.35,0.));
#1779=CARTESIAN_POINT('Origin',(-8.5,8.85,0.));
#1780=CARTESIAN_POINT('',(-8.5,0.849999999999996,1.6));
#1781=CARTESIAN_POINT('Origin',(-33.775,-22.65,24.1));
#1782=CARTESIAN_POINT('',(-17.,-23.15,23.6));
#1783=CARTESIAN_POINT('',(-17.,-22.15,24.6));
#1784=CARTESIAN_POINT('',(-17.,-28.4,18.35));
#1785=CARTESIAN_POINT('',(-18.6,-22.15,24.6));
#1786=CARTESIAN_POINT('',(-33.775,-22.15,24.6));
#1787=CARTESIAN_POINT('',(-18.6,-23.15,23.6));
#1788=CARTESIAN_POINT('',(-18.6,-20.4,26.35));
#1789=CARTESIAN_POINT('',(-33.775,-23.15,23.6));
#1790=CARTESIAN_POINT('Origin',(-17.8,-11.575,24.6));
#1791=CARTESIAN_POINT('',(-17.,-5.07543101617981,24.6));
#1792=CARTESIAN_POINT('',(-17.,-23.15,24.6));
#1793=CARTESIAN_POINT('',(-17.6534759358289,-3.98215621639506,24.6));
#1794=CARTESIAN_POINT('Origin',(-9.75,0.,24.6));
#1795=CARTESIAN_POINT('',(-18.6,-4.20713679359253,24.6));
#1796=CARTESIAN_POINT('Origin',(-18.1,-4.20713679359253,24.6));
#1797=CARTESIAN_POINT('',(-18.6,8.85,24.6));
#1798=CARTESIAN_POINT('Origin',(-17.,-23.15,1.6));
#1799=CARTESIAN_POINT('',(-17.,-23.15,1.6));
#1800=CARTESIAN_POINT('',(-17.,-23.15,1.6));
#1801=CARTESIAN_POINT('',(-17.,-5.07543101617981,1.6));
#1802=CARTESIAN_POINT('',(-17.,-15.15,1.6));
#1803=CARTESIAN_POINT('',(-17.,-5.07543101617981,13.));
#1804=CARTESIAN_POINT('',(-17.,-5.07543101617981,0.));
#1805=CARTESIAN_POINT('Ctrl Pts',(-17.,-5.07543101617981,13.));
#1806=CARTESIAN_POINT('Ctrl Pts',(-17.,-5.07543101617981,13.0554519586498));
#1807=CARTESIAN_POINT('Ctrl Pts',(-17.,-5.06512912575428,13.1211920183374));
#1808=CARTESIAN_POINT('Ctrl Pts',(-17.,-5.0304166851292,13.233348843881));
#1809=CARTESIAN_POINT('Ctrl Pts',(-17.,-4.99754699103489,13.3000323720251));
#1810=CARTESIAN_POINT('Ctrl Pts',(-17.,-4.86640973722194,13.4972557048913));
#1811=CARTESIAN_POINT('Ctrl Pts',(-17.,-4.69995047217531,13.6250636750885));
#1812=CARTESIAN_POINT('Ctrl Pts',(-17.,-4.10483664330306,13.9411857459159));
#1813=CARTESIAN_POINT('Ctrl Pts',(-17.,-3.50896009967976,14.));
#1814=CARTESIAN_POINT('Ctrl Pts',(-17.,-3.00998338865848,14.));
#1815=CARTESIAN_POINT('',(-17.,-5.07543101617981,1.6));
#1816=CARTESIAN_POINT('Origin',(4.875,8.6,0.25));
#1817=CARTESIAN_POINT('',(9.75,8.35,0.));
#1818=CARTESIAN_POINT('',(9.75,8.85,0.5));
#1819=CARTESIAN_POINT('',(-48.5428932188135,8.35,0.));
#1820=CARTESIAN_POINT('',(4.875,8.35,0.));
#1821=CARTESIAN_POINT('',(-48.5428932188135,8.35,0.));
#1822=CARTESIAN_POINT('Origin',(-24.875,-22.9,0.25));
#1823=CARTESIAN_POINT('',(-9.75,-23.15,0.5));
#1824=CARTESIAN_POINT('',(-48.75,-23.15,0.5));
#1825=CARTESIAN_POINT('',(-24.875,-23.15,0.5));
#1826=CARTESIAN_POINT('',(-48.5428932188135,-22.65,0.));
#1827=CARTESIAN_POINT('',(-48.75,-23.15,0.5));
#1828=CARTESIAN_POINT('',(-10.25,-22.65,0.));
#1829=CARTESIAN_POINT('',(-24.875,-22.65,0.));
#1830=CARTESIAN_POINT('',(-10.25,-22.65,0.));
#1831=CARTESIAN_POINT('Origin',(-49.5,4.425,0.25));
#1832=CARTESIAN_POINT('',(-49.25,7.64289321881346,0.));
#1833=CARTESIAN_POINT('',(-49.25,-21.9428932188135,0.));
#1834=CARTESIAN_POINT('',(-49.25,4.425,0.));
#1835=CARTESIAN_POINT('',(-49.75,-22.15,0.5));
#1836=CARTESIAN_POINT('',(-49.25,-21.9428932188135,0.));
#1837=CARTESIAN_POINT('',(-49.75,7.85,0.5));
#1838=CARTESIAN_POINT('',(-49.75,4.425,0.5));
#1839=CARTESIAN_POINT('',(-49.75,7.85,0.5));
#1840=CARTESIAN_POINT('Origin',(-42.4232233047034,-29.1232233047033,0.25));
#1841=CARTESIAN_POINT('',(-42.6000000000001,-29.3,0.5));
#1842=CARTESIAN_POINT('',(-42.2464466094068,-28.9464466094067,0.));
#1843=CARTESIAN_POINT('Origin',(-38.8482233047034,18.3982233047034,0.25));
#1844=CARTESIAN_POINT('',(-38.6714466094068,18.2214466094067,0.));
#1845=CARTESIAN_POINT('',(-39.0250000000001,18.575,0.5));
#1846=CARTESIAN_POINT('Origin',(-10.,-11.575,0.25));
#1847=CARTESIAN_POINT('',(-9.75,-8.85,0.5));
#1848=CARTESIAN_POINT('',(-9.75,-11.575,0.5));
#1849=CARTESIAN_POINT('',(-10.25,-8.35,0.));
#1850=CARTESIAN_POINT('',(-10.25,-11.575,0.));
#1851=CARTESIAN_POINT('',(-10.25,-8.35,0.));
#1852=CARTESIAN_POINT('Origin',(9.75,0.,0.25));
#1853=CARTESIAN_POINT('',(9.75,-8.85,0.5));
#1854=CARTESIAN_POINT('Origin',(9.75,0.,0.5));
#1855=CARTESIAN_POINT('',(9.75,-8.35,0.));
#1856=CARTESIAN_POINT('',(9.75,-8.85,0.5));
#1857=CARTESIAN_POINT('Origin',(9.75,0.,0.));
#1858=CARTESIAN_POINT('Origin',(-4.875,-8.6,0.25));
#1859=CARTESIAN_POINT('',(-4.875,-8.35,0.));
#1860=CARTESIAN_POINT('',(-4.875,-8.85,0.5));
#1861=CARTESIAN_POINT('Origin',(9.75,0.,0.));
#1862=CARTESIAN_POINT('',(9.75,-8.85,13.));
#1863=CARTESIAN_POINT('Origin',(9.75,0.,13.));
#1864=CARTESIAN_POINT('',(9.75,-8.85,0.));
#1865=CARTESIAN_POINT('Origin',(-49.25,8.35,0.));
#1866=CARTESIAN_POINT('',(-49.75,7.85,1.6));
#1867=CARTESIAN_POINT('',(-49.75,7.85,0.));
#1868=CARTESIAN_POINT('',(-44.70625,12.89375,1.6));
#1869=CARTESIAN_POINT('Origin',(-49.75,8.85,0.));
#1870=CARTESIAN_POINT('',(-49.75,-22.15,1.6));
#1871=CARTESIAN_POINT('',(-49.75,-22.15,0.));
#1872=CARTESIAN_POINT('',(-49.75,8.85,1.6));
#1873=CARTESIAN_POINT('Origin',(2.22044604925031E-15,0.,0.));
#1874=CARTESIAN_POINT('Origin',(9.75,0.,13.9));
#1875=CARTESIAN_POINT('',(9.75,-7.5,13.8));
#1876=CARTESIAN_POINT('',(9.75,-7.5,13.8));
#1877=CARTESIAN_POINT('Origin',(9.75,0.,13.8));
#1878=CARTESIAN_POINT('Origin',(-4.875,-7.6,13.9));
#1879=CARTESIAN_POINT('',(-9.75,-7.5,13.8));
#1880=CARTESIAN_POINT('',(-9.75,-7.5,13.8));
#1881=CARTESIAN_POINT('',(-4.875,-7.5,13.8));
#1882=CARTESIAN_POINT('Origin',(-9.75,0.,13.9));
#1883=CARTESIAN_POINT('Origin',(-9.75,0.,13.8));
#1884=CARTESIAN_POINT('Origin',(-9.75,0.,0.));
#1885=CARTESIAN_POINT('',(-9.75,-7.5,1.6));
#1886=CARTESIAN_POINT('',(-9.75,-7.5,0.));
#1887=CARTESIAN_POINT('Origin',(-9.75,0.,1.6));
#1888=CARTESIAN_POINT('Origin',(-9.75,-7.5,0.));
#1889=CARTESIAN_POINT('',(9.75,-7.5,1.6));
#1890=CARTESIAN_POINT('',(9.75,-7.5,0.));
#1891=CARTESIAN_POINT('',(-12.6625,-7.5,1.6));
#1892=CARTESIAN_POINT('',(-7.15,-7.5,6.7));
#1893=CARTESIAN_POINT('',(-3.65,-7.5,6.7));
#1894=CARTESIAN_POINT('Origin',(-5.4,-7.5,6.7));
#1895=CARTESIAN_POINT('',(-3.65,-7.5,3.7));
#1896=CARTESIAN_POINT('',(-3.65,-7.5,3.35));
#1897=CARTESIAN_POINT('',(-3.15,-7.5,3.7));
#1898=CARTESIAN_POINT('',(-6.7,-7.5,3.7));
#1899=CARTESIAN_POINT('',(-3.15,-7.5,6.7));
#1900=CARTESIAN_POINT('',(-3.15,-7.5,1.85));
#1901=CARTESIAN_POINT('',(-7.65,-7.5,6.7));
#1902=CARTESIAN_POINT('Origin',(-5.4,-7.5,6.7));
#1903=CARTESIAN_POINT('',(-7.65,-7.5,3.7));
#1904=CARTESIAN_POINT('',(-7.65,-7.5,3.35));
#1905=CARTESIAN_POINT('',(-7.15,-7.5,3.7));
#1906=CARTESIAN_POINT('',(-8.7,-7.5,3.7));
#1907=CARTESIAN_POINT('',(-7.15,-7.5,1.85));
#1908=CARTESIAN_POINT('Origin',(9.75,0.,0.));
#1909=CARTESIAN_POINT('',(9.75,7.5,1.6));
#1910=CARTESIAN_POINT('',(9.75,7.5,0.));
#1911=CARTESIAN_POINT('Origin',(9.75,0.,1.6));
#1912=CARTESIAN_POINT('Origin',(9.75,7.5,0.));
#1913=CARTESIAN_POINT('',(-2.9125,7.5,1.6));
#1914=CARTESIAN_POINT('Origin',(-17.6,4.425,13.));
#1915=CARTESIAN_POINT('',(-18.6,-4.20713679359253,13.));
#1916=CARTESIAN_POINT('',(-18.6,4.425,13.));
#1917=CARTESIAN_POINT('',(-17.6534759362341,-3.98215621559077,13.9985691384395));
#1918=CARTESIAN_POINT('Ctrl Pts',(-17.6534759362341,-3.98215621559077,13.9985691384395));
#1919=CARTESIAN_POINT('Ctrl Pts',(-17.6779204148331,-3.9336407036403,13.9972600739707));
#1920=CARTESIAN_POINT('Ctrl Pts',(-17.7103539954844,-3.88967601692158,13.9945618245075));
#1921=CARTESIAN_POINT('Ctrl Pts',(-17.793265259608,-3.806764752798,13.9822874153827));
#1922=CARTESIAN_POINT('Ctrl Pts',(-17.852379810928,-3.76760787650077,13.9698527565504));
#1923=CARTESIAN_POINT('Ctrl Pts',(-17.9770093306835,-3.71787747236263,13.9285332180137));
#1924=CARTESIAN_POINT('Ctrl Pts',(-18.0423457742403,-3.70713679359253,13.8993120865467));
#1925=CARTESIAN_POINT('Ctrl Pts',(-18.1724026648992,-3.70713679359253,13.8242237057148));
#1926=CARTESIAN_POINT('Ctrl Pts',(-18.2429433292231,-3.7234336465982,13.7706458761397));
#1927=CARTESIAN_POINT('Ctrl Pts',(-18.3641396961846,-3.77744878099256,13.6506624505825));
#1928=CARTESIAN_POINT('Ctrl Pts',(-18.4149240703133,-3.81495408271928,13.5842910773619));
#1929=CARTESIAN_POINT('Ctrl Pts',(-18.5486532749461,-3.9486832873521,13.3652050185633));
#1930=CARTESIAN_POINT('Ctrl Pts',(-18.6,-4.08830676139848,13.1680510431461));
#1931=CARTESIAN_POINT('Ctrl Pts',(-18.6,-4.20713679359253,13.));
#1932=CARTESIAN_POINT('Ctrl Pts',(-17.6,-4.08656334834051,14.));
#1933=CARTESIAN_POINT('Ctrl Pts',(-17.6180074277407,-4.05197234956836,14.));
#1934=CARTESIAN_POINT('Ctrl Pts',(-17.635835609037,-4.01716737385828,13.9995138231649));
#1935=CARTESIAN_POINT('Ctrl Pts',(-17.6534759362341,-3.98215621559084,13.9985691384395));
#1936=CARTESIAN_POINT('Origin',(-17.6,7.85,13.));
#1937=CARTESIAN_POINT('Origin',(4.875,7.85,13.));
#1938=CARTESIAN_POINT('Origin',(-9.75,0.,13.));
#1939=CARTESIAN_POINT('',(-9.75,-8.85,13.));
#1940=CARTESIAN_POINT('Origin',(-9.75,0.,13.));
#1941=CARTESIAN_POINT('Origin',(-9.75,-7.85,13.));
#1942=CARTESIAN_POINT('Origin',(-4.875,-7.85,13.));
#1943=CARTESIAN_POINT('Origin',(9.75,-7.85,13.));
#1944=CARTESIAN_POINT('',(-4.875,-8.85,13.));
#1945=CARTESIAN_POINT('Origin',(9.75,0.,13.));
#1946=CARTESIAN_POINT('Origin',(-9.75,-8.85,0.));
#1947=CARTESIAN_POINT('',(-9.75,-8.85,1.6));
#1948=CARTESIAN_POINT('',(-9.75,-8.85,0.));
#1949=CARTESIAN_POINT('',(-9.75,-8.85,0.));
#1950=CARTESIAN_POINT('',(-3.15,-8.85,3.7));
#1951=CARTESIAN_POINT('',(-3.65,-8.85,3.7));
#1952=CARTESIAN_POINT('',(-6.7,-8.85,3.7));
#1953=CARTESIAN_POINT('',(-3.65,-8.85,6.7));
#1954=CARTESIAN_POINT('',(-3.65,-8.85,3.35));
#1955=CARTESIAN_POINT('',(-7.15,-8.85,6.7));
#1956=CARTESIAN_POINT('Origin',(-5.4,-8.85,6.7));
#1957=CARTESIAN_POINT('',(-7.15,-8.85,3.7));
#1958=CARTESIAN_POINT('',(-7.15,-8.85,1.85));
#1959=CARTESIAN_POINT('',(-7.65,-8.85,3.7));
#1960=CARTESIAN_POINT('',(-8.7,-8.85,3.7));
#1961=CARTESIAN_POINT('',(-7.65,-8.85,6.7));
#1962=CARTESIAN_POINT('',(-7.65,-8.85,3.35));
#1963=CARTESIAN_POINT('',(-3.15,-8.85,6.7));
#1964=CARTESIAN_POINT('Origin',(-5.4,-8.85,6.7));
#1965=CARTESIAN_POINT('',(-3.15,-8.85,1.85));
#1966=CARTESIAN_POINT('Origin',(-9.75,0.,0.));
#1967=CARTESIAN_POINT('Origin',(-9.75,0.,1.6));
#1968=CARTESIAN_POINT('Origin',(-49.25,-22.65,0.));
#1969=CARTESIAN_POINT('',(-48.75,-23.15,1.6));
#1970=CARTESIAN_POINT('',(-48.75,-23.15,0.));
#1971=CARTESIAN_POINT('',(-44.70625,-27.19375,1.6));
#1972=CARTESIAN_POINT('Origin',(-15.575,-7.15000000000001,1.6));
#1973=CARTESIAN_POINT('',(-28.6,-23.15,1.6));
#1974=CARTESIAN_POINT('',(-49.75,-23.15,1.6));
#1975=CARTESIAN_POINT('',(-28.6,0.849999999999998,1.6));
#1976=CARTESIAN_POINT('Origin',(-28.6,0.849999999999998,11.6));
#1977=CARTESIAN_POINT('',(-18.6,-23.15,11.6));
#1978=CARTESIAN_POINT('Origin',(-28.6,-23.15,11.6));
#1979=CARTESIAN_POINT('',(-18.6,0.849999999999996,11.6));
#1980=CARTESIAN_POINT('Origin',(-18.6,8.85,1.6));
#1981=CARTESIAN_POINT('',(-18.6,-4.20713679359253,1.6));
#1982=CARTESIAN_POINT('',(-18.6,-23.15,1.6));
#1983=CARTESIAN_POINT('Origin',(-18.1,-4.20713679359253,1.6));
#1984=CARTESIAN_POINT('',(-17.6534759358289,-3.98215621639506,1.6));
#1985=CARTESIAN_POINT('Origin',(-9.75,0.,1.6));
#1986=CARTESIAN_POINT('Origin',(-15.575,-7.15000000000001,1.6));
#1987=CARTESIAN_POINT('',(-9.75,-23.15,1.6));
#1988=CARTESIAN_POINT('',(-49.75,-23.15,1.6));
#1989=CARTESIAN_POINT('',(-9.75,-23.15,1.6));
#1990=CARTESIAN_POINT('Origin',(-5.4,-7.35,6.7));
#1991=CARTESIAN_POINT('',(-5.4,-7.05,5.25));
#1992=CARTESIAN_POINT('Origin',(-5.4,-7.05,6.7));
#1993=CARTESIAN_POINT('',(-5.4,-7.35,4.95));
#1994=CARTESIAN_POINT('Origin',(-5.4,-7.35,5.25));
#1995=CARTESIAN_POINT('',(-7.15,-7.35,6.7));
#1996=CARTESIAN_POINT('Origin',(-5.4,-7.35,6.7));
#1997=CARTESIAN_POINT('Origin',(-5.4,-7.35,6.7));
#1998=CARTESIAN_POINT('Origin',(-5.4,-7.05,6.7));
#1999=CARTESIAN_POINT('Origin',(-5.4,0.,6.7));
#2000=CARTESIAN_POINT('',(-7.15,0.,6.7));
#2001=CARTESIAN_POINT('',(-7.15,0.,6.7));
#2002=CARTESIAN_POINT('',(-3.65,0.,6.7));
#2003=CARTESIAN_POINT('Origin',(-7.65,0.,3.7));
#2004=CARTESIAN_POINT('',(-7.65,0.,3.7));
#2005=CARTESIAN_POINT('',(-7.15,0.,3.7));
#2006=CARTESIAN_POINT('Origin',(-7.15,0.,3.7));
#2007=CARTESIAN_POINT('Origin',(-3.65,0.,6.7));
#2008=CARTESIAN_POINT('',(-3.65,0.,3.7));
#2009=CARTESIAN_POINT('Origin',(-3.65,0.,3.7));
#2010=CARTESIAN_POINT('',(-3.15,0.,3.7));
#2011=CARTESIAN_POINT('Origin',(-3.15,0.,3.7));
#2012=CARTESIAN_POINT('',(-3.15,0.,6.7));
#2013=CARTESIAN_POINT('Origin',(-5.4,0.,6.7));
#2014=CARTESIAN_POINT('',(-7.65,0.,6.7));
#2015=CARTESIAN_POINT('Origin',(-7.65,0.,6.7));
#2016=CARTESIAN_POINT('Origin',(-9.75,-23.15,0.));
#2017=CARTESIAN_POINT('',(-9.75,-23.15,0.));
#2018=CARTESIAN_POINT('Origin',(-49.75,-23.15,0.));
#2019=CARTESIAN_POINT('Origin',(-15.575,-7.15000000000001,1.6));
#2020=UNCERTAINTY_MEASURE_WITH_UNIT(LENGTH_MEASURE(0.01),#2024,
'DISTANCE_ACCURACY_VALUE',
'Maximum model space distance between geometric entities at asserted c
onnectivities');
#2021=UNCERTAINTY_MEASURE_WITH_UNIT(LENGTH_MEASURE(0.01),#2024,
'DISTANCE_ACCURACY_VALUE',
'Maximum model space distance between geometric entities at asserted c
onnectivities');
#2022=(
GEOMETRIC_REPRESENTATION_CONTEXT(3)
GLOBAL_UNCERTAINTY_ASSIGNED_CONTEXT((#2020))
GLOBAL_UNIT_ASSIGNED_CONTEXT((#2024,#2026,#2027))
REPRESENTATION_CONTEXT('','3D')
);
#2023=(
GEOMETRIC_REPRESENTATION_CONTEXT(3)
GLOBAL_UNCERTAINTY_ASSIGNED_CONTEXT((#2021))
GLOBAL_UNIT_ASSIGNED_CONTEXT((#2024,#2026,#2027))
REPRESENTATION_CONTEXT('','3D')
);
#2024=(
LENGTH_UNIT()
NAMED_UNIT(*)
SI_UNIT(.MILLI.,.METRE.)
);
#2025=(
LENGTH_UNIT()
NAMED_UNIT(*)
SI_UNIT($,.METRE.)
);
#2026=(
NAMED_UNIT(*)
PLANE_ANGLE_UNIT()
SI_UNIT($,.RADIAN.)
);
#2027=(
NAMED_UNIT(*)
SI_UNIT($,.STERADIAN.)
SOLID_ANGLE_UNIT()
);
#2028=SHAPE_DEFINITION_REPRESENTATION(#2029,#2030);
#2029=PRODUCT_DEFINITION_SHAPE('',$,#2032);
#2030=SHAPE_REPRESENTATION('',(#1178),#2022);
#2031=PRODUCT_DEFINITION_CONTEXT('part definition',#2036,'design');
#2032=PRODUCT_DEFINITION('Poop_Support','Poop_Support',#2033,#2031);
#2033=PRODUCT_DEFINITION_FORMATION('',$,#2038);
#2034=PRODUCT_RELATED_PRODUCT_CATEGORY('Poop_Support','Poop_Support',(#2038));
#2035=APPLICATION_PROTOCOL_DEFINITION('international standard',
'automotive_design',2009,#2036);
#2036=APPLICATION_CONTEXT(
'Core Data for Automotive Mechanical Design Process');
#2037=PRODUCT_CONTEXT('part definition',#2036,'mechanical');
#2038=PRODUCT('Poop_Support','Poop_Support',$,(#2037));
#2039=PRESENTATION_STYLE_ASSIGNMENT((#2040));
#2040=SURFACE_STYLE_USAGE(.BOTH.,#2041);
#2041=SURFACE_SIDE_STYLE('',(#2042));
#2042=SURFACE_STYLE_FILL_AREA(#2043);
#2043=FILL_AREA_STYLE('\X2\92FC\X0\ - \X2\30B530C630F3\X0\',(#2044));
#2044=FILL_AREA_STYLE_COLOUR('\X2\92FC\X0\ - \X2\30B530C630F3\X0\',#2045);
#2045=COLOUR_RGB('\X2\92FC\X0\ - \X2\30B530C630F3\X0\',0.627450980392157,
0.627450980392157,0.627450980392157);
ENDSEC;
END-ISO-10303-21;
