solid OpenSCAD_Model
  facet normal 0.987688 0.156435 0
    outer loop
      vertex 29 0 -3.25
      vertex 28.4127 3.7082 -5.75
      vertex 28.4127 3.7082 -3.25
    endloop
  endfacet
  facet normal 0.987688 0.156435 0
    outer loop
      vertex 28.4127 3.7082 -5.75
      vertex 29 0 -3.25
      vertex 29 0 -5.75
    endloop
  endfacet
  facet normal -0.987688 0.156435 0
    outer loop
      vertex -29 0 -5.75
      vertex -28.4127 3.7082 -3.25
      vertex -28.4127 3.7082 -5.75
    endloop
  endfacet
  facet normal -0.987688 0.156435 0
    outer loop
      vertex -28.4127 3.7082 -3.25
      vertex -29 0 -5.75
      vertex -29 0 -3.25
    endloop
  endfacet
  facet normal 0.156435 0.987688 -0
    outer loop
      vertex 5.56231 17.119 -5.75
      vertex 0 18 -3.25
      vertex 5.56231 17.119 -3.25
    endloop
  endfacet
  facet normal 0.156435 0.987688 0
    outer loop
      vertex 0 18 -3.25
      vertex 5.56231 17.119 -5.75
      vertex 0 18 -5.75
    endloop
  endfacet
  facet normal -0.156435 -0.987688 0
    outer loop
      vertex -5.56231 -17.119 -5.75
      vertex 0 -18 -3.25
      vertex -5.56231 -17.119 -3.25
    endloop
  endfacet
  facet normal -0.156435 -0.987688 -0
    outer loop
      vertex 0 -18 -3.25
      vertex -5.56231 -17.119 -5.75
      vertex 0 -18 -5.75
    endloop
  endfacet
  facet normal 0.45399 0.891007 -0
    outer loop
      vertex 24.0534 9.7082 -5.75
      vertex 20.7082 11.4127 -3.25
      vertex 24.0534 9.7082 -3.25
    endloop
  endfacet
  facet normal 0.45399 0.891007 0
    outer loop
      vertex 20.7082 11.4127 -3.25
      vertex 24.0534 9.7082 -5.75
      vertex 20.7082 11.4127 -5.75
    endloop
  endfacet
  facet normal 0.891006 0.453991 0
    outer loop
      vertex 28.4127 3.7082 -3.25
      vertex 26.7082 7.05342 -5.75
      vertex 26.7082 7.05342 -3.25
    endloop
  endfacet
  facet normal 0.891006 0.453991 0
    outer loop
      vertex 26.7082 7.05342 -5.75
      vertex 28.4127 3.7082 -3.25
      vertex 28.4127 3.7082 -5.75
    endloop
  endfacet
  facet normal 0.352565 0.935787 -0
    outer loop
      vertex 20.7082 11.4127 -5.75
      vertex 5.56231 17.119 -3.25
      vertex 20.7082 11.4127 -3.25
    endloop
  endfacet
  facet normal 0.352565 0.935787 0
    outer loop
      vertex 5.56231 17.119 -3.25
      vertex 20.7082 11.4127 -5.75
      vertex 5.56231 17.119 -5.75
    endloop
  endfacet
  facet normal -0.45399 0.891007 0
    outer loop
      vertex -20.7082 11.4127 -5.75
      vertex -24.0534 9.7082 -3.25
      vertex -20.7082 11.4127 -3.25
    endloop
  endfacet
  facet normal -0.45399 0.891007 0
    outer loop
      vertex -24.0534 9.7082 -3.25
      vertex -20.7082 11.4127 -5.75
      vertex -24.0534 9.7082 -5.75
    endloop
  endfacet
  facet normal -0.707107 0.707107 0
    outer loop
      vertex -26.7082 7.05342 -5.75
      vertex -24.0534 9.7082 -3.25
      vertex -24.0534 9.7082 -5.75
    endloop
  endfacet
  facet normal -0.707107 0.707107 0
    outer loop
      vertex -24.0534 9.7082 -3.25
      vertex -26.7082 7.05342 -5.75
      vertex -26.7082 7.05342 -3.25
    endloop
  endfacet
  facet normal -0.156435 0.987688 0
    outer loop
      vertex 0 18 -5.75
      vertex -5.56231 17.119 -3.25
      vertex 0 18 -3.25
    endloop
  endfacet
  facet normal -0.156435 0.987688 0
    outer loop
      vertex -5.56231 17.119 -3.25
      vertex 0 18 -5.75
      vertex -5.56231 17.119 -5.75
    endloop
  endfacet
  facet normal 0.891006 -0.453991 0
    outer loop
      vertex 26.7082 -7.05342 -3.25
      vertex 28.4127 -3.7082 -5.75
      vertex 28.4127 -3.7082 -3.25
    endloop
  endfacet
  facet normal 0.891006 -0.453991 0
    outer loop
      vertex 28.4127 -3.7082 -5.75
      vertex 26.7082 -7.05342 -3.25
      vertex 26.7082 -7.05342 -5.75
    endloop
  endfacet
  facet normal 0 0 -1
    outer loop
      vertex -19.5729 1.76336 -5.75
      vertex -3 12 -5.75
      vertex -19.1468 0.927051 -5.75
    endloop
  endfacet
  facet normal 0 0 -1
    outer loop
      vertex -20.7082 11.4127 -5.75
      vertex -3 12 -5.75
      vertex -19.5729 1.76336 -5.75
    endloop
  endfacet
  facet normal 0 0 -1
    outer loop
      vertex -20.7082 11.4127 -5.75
      vertex -19.5729 1.76336 -5.75
      vertex -20.2366 2.42705 -5.75
    endloop
  endfacet
  facet normal -0 0 -1
    outer loop
      vertex -3 12 -5.75
      vertex -20.7082 11.4127 -5.75
      vertex -5.56231 17.119 -5.75
    endloop
  endfacet
  facet normal 0 0 -1
    outer loop
      vertex -21.0729 2.85317 -5.75
      vertex -20.7082 11.4127 -5.75
      vertex -20.2366 2.42705 -5.75
    endloop
  endfacet
  facet normal 0 0 -1
    outer loop
      vertex -24.0534 9.7082 -5.75
      vertex -21.0729 2.85317 -5.75
      vertex -22 3 -5.75
    endloop
  endfacet
  facet normal 0 0 -1
    outer loop
      vertex -24.0534 9.7082 -5.75
      vertex -22 3 -5.75
      vertex -22.9271 2.85317 -5.75
    endloop
  endfacet
  facet normal 0 0 -1
    outer loop
      vertex -26.7082 7.05342 -5.75
      vertex -22.9271 2.85317 -5.75
      vertex -23.7634 2.42705 -5.75
    endloop
  endfacet
  facet normal 0 0 -1
    outer loop
      vertex -21.0729 2.85317 -5.75
      vertex -24.0534 9.7082 -5.75
      vertex -20.7082 11.4127 -5.75
    endloop
  endfacet
  facet normal 0 0 -1
    outer loop
      vertex -28.4127 3.7082 -5.75
      vertex -23.7634 2.42705 -5.75
      vertex -24.4271 1.76336 -5.75
    endloop
  endfacet
  facet normal 0 0 -1
    outer loop
      vertex -28.4127 3.7082 -5.75
      vertex -24.4271 1.76336 -5.75
      vertex -24.8532 0.927051 -5.75
    endloop
  endfacet
  facet normal 0 0 -1
    outer loop
      vertex -29 0 -5.75
      vertex -24.8532 0.927051 -5.75
      vertex -25 0 -5.75
    endloop
  endfacet
  facet normal 0 0 -1
    outer loop
      vertex -29 0 -5.75
      vertex -24.8532 -0.927051 -5.75
      vertex -28.4127 -3.7082 -5.75
    endloop
  endfacet
  facet normal 0 0 -1
    outer loop
      vertex -22.9271 2.85317 -5.75
      vertex -26.7082 7.05342 -5.75
      vertex -24.0534 9.7082 -5.75
    endloop
  endfacet
  facet normal 0 0 -1
    outer loop
      vertex -24.8532 -0.927051 -5.75
      vertex -29 0 -5.75
      vertex -25 0 -5.75
    endloop
  endfacet
  facet normal 0 0 -1
    outer loop
      vertex -23.7634 2.42705 -5.75
      vertex -28.4127 3.7082 -5.75
      vertex -26.7082 7.05342 -5.75
    endloop
  endfacet
  facet normal -0 0 -1
    outer loop
      vertex -24.8532 0.927051 -5.75
      vertex -29 0 -5.75
      vertex -28.4127 3.7082 -5.75
    endloop
  endfacet
  facet normal 0 0 -1
    outer loop
      vertex 20.7082 11.4127 -5.75
      vertex 3 12 -5.75
      vertex 5.56231 17.119 -5.75
    endloop
  endfacet
  facet normal 0 0 -1
    outer loop
      vertex 3 12 -5.75
      vertex 0 18 -5.75
      vertex 5.56231 17.119 -5.75
    endloop
  endfacet
  facet normal 0 0 -1
    outer loop
      vertex -3 12 -5.75
      vertex 0 18 -5.75
      vertex 3 12 -5.75
    endloop
  endfacet
  facet normal 0 0 -1
    outer loop
      vertex -3 12 -5.75
      vertex -5.56231 17.119 -5.75
      vertex 0 18 -5.75
    endloop
  endfacet
  facet normal 0 0 -1
    outer loop
      vertex -3 -12 -5.75
      vertex -19 0 -5.75
      vertex -3 12 -5.75
    endloop
  endfacet
  facet normal 0 0 -1
    outer loop
      vertex -19.1468 0.927051 -5.75
      vertex -3 12 -5.75
      vertex -19 0 -5.75
    endloop
  endfacet
  facet normal 0 0 -1
    outer loop
      vertex -5.56231 -17.119 -5.75
      vertex -19.1468 -0.927051 -5.75
      vertex -19 0 -5.75
    endloop
  endfacet
  facet normal 0 0 -1
    outer loop
      vertex -5.56231 -17.119 -5.75
      vertex -19.5729 -1.76336 -5.75
      vertex -19.1468 -0.927051 -5.75
    endloop
  endfacet
  facet normal 0 0 -1
    outer loop
      vertex -20.7082 -11.4127 -5.75
      vertex -19.5729 -1.76336 -5.75
      vertex -5.56231 -17.119 -5.75
    endloop
  endfacet
  facet normal 0 0 -1
    outer loop
      vertex -19.5729 -1.76336 -5.75
      vertex -20.7082 -11.4127 -5.75
      vertex -20.2366 -2.42705 -5.75
    endloop
  endfacet
  facet normal 0 0 -1
    outer loop
      vertex -20.7082 -11.4127 -5.75
      vertex -21.0729 -2.85317 -5.75
      vertex -20.2366 -2.42705 -5.75
    endloop
  endfacet
  facet normal 0 0 -1
    outer loop
      vertex -24.0534 -9.7082 -5.75
      vertex -21.0729 -2.85317 -5.75
      vertex -20.7082 -11.4127 -5.75
    endloop
  endfacet
  facet normal 0 0 -1
    outer loop
      vertex -21.0729 -2.85317 -5.75
      vertex -24.0534 -9.7082 -5.75
      vertex -22 -3 -5.75
    endloop
  endfacet
  facet normal -0 0 -1
    outer loop
      vertex -22 -3 -5.75
      vertex -24.0534 -9.7082 -5.75
      vertex -22.9271 -2.85317 -5.75
    endloop
  endfacet
  facet normal 0 0 -1
    outer loop
      vertex -26.7082 -7.05342 -5.75
      vertex -22.9271 -2.85317 -5.75
      vertex -24.0534 -9.7082 -5.75
    endloop
  endfacet
  facet normal -0 0 -1
    outer loop
      vertex -22.9271 -2.85317 -5.75
      vertex -26.7082 -7.05342 -5.75
      vertex -23.7634 -2.42705 -5.75
    endloop
  endfacet
  facet normal 0 0 -1
    outer loop
      vertex -28.4127 -3.7082 -5.75
      vertex -23.7634 -2.42705 -5.75
      vertex -26.7082 -7.05342 -5.75
    endloop
  endfacet
  facet normal -0 0 -1
    outer loop
      vertex -23.7634 -2.42705 -5.75
      vertex -28.4127 -3.7082 -5.75
      vertex -24.4271 -1.76336 -5.75
    endloop
  endfacet
  facet normal -0 0 -1
    outer loop
      vertex -24.4271 -1.76336 -5.75
      vertex -28.4127 -3.7082 -5.75
      vertex -24.8532 -0.927051 -5.75
    endloop
  endfacet
  facet normal 0 0 -1
    outer loop
      vertex 24.8532 -0.927051 -5.75
      vertex 29 0 -5.75
      vertex 28.4127 -3.7082 -5.75
    endloop
  endfacet
  facet normal 0 0 -1
    outer loop
      vertex 23.7634 -2.42705 -5.75
      vertex 28.4127 -3.7082 -5.75
      vertex 26.7082 -7.05342 -5.75
    endloop
  endfacet
  facet normal -0 0 -1
    outer loop
      vertex 29 0 -5.75
      vertex 24.8532 -0.927051 -5.75
      vertex 25 0 -5.75
    endloop
  endfacet
  facet normal 0 0 -1
    outer loop
      vertex 29 0 -5.75
      vertex 24.8532 0.927051 -5.75
      vertex 28.4127 3.7082 -5.75
    endloop
  endfacet
  facet normal 0 0 -1
    outer loop
      vertex 24.8532 0.927051 -5.75
      vertex 29 0 -5.75
      vertex 25 0 -5.75
    endloop
  endfacet
  facet normal 0 0 -1
    outer loop
      vertex 28.4127 -3.7082 -5.75
      vertex 24.4271 -1.76336 -5.75
      vertex 24.8532 -0.927051 -5.75
    endloop
  endfacet
  facet normal 0 0 -1
    outer loop
      vertex 22.9271 -2.85317 -5.75
      vertex 26.7082 -7.05342 -5.75
      vertex 24.0534 -9.7082 -5.75
    endloop
  endfacet
  facet normal 0 0 -1
    outer loop
      vertex 28.4127 -3.7082 -5.75
      vertex 23.7634 -2.42705 -5.75
      vertex 24.4271 -1.76336 -5.75
    endloop
  endfacet
  facet normal 0 0 -1
    outer loop
      vertex 26.7082 -7.05342 -5.75
      vertex 22.9271 -2.85317 -5.75
      vertex 23.7634 -2.42705 -5.75
    endloop
  endfacet
  facet normal 0 0 -1
    outer loop
      vertex 24.0534 -9.7082 -5.75
      vertex 22 -3 -5.75
      vertex 22.9271 -2.85317 -5.75
    endloop
  endfacet
  facet normal 0 0 -1
    outer loop
      vertex 24.0534 -9.7082 -5.75
      vertex 21.0729 -2.85317 -5.75
      vertex 22 -3 -5.75
    endloop
  endfacet
  facet normal 0 0 -1
    outer loop
      vertex 20.7082 -11.4127 -5.75
      vertex 21.0729 -2.85317 -5.75
      vertex 24.0534 -9.7082 -5.75
    endloop
  endfacet
  facet normal 0 0 -1
    outer loop
      vertex 20.7082 -11.4127 -5.75
      vertex 20.2366 -2.42705 -5.75
      vertex 21.0729 -2.85317 -5.75
    endloop
  endfacet
  facet normal 0 0 -1
    outer loop
      vertex 20.7082 -11.4127 -5.75
      vertex 19.5729 -1.76336 -5.75
      vertex 20.2366 -2.42705 -5.75
    endloop
  endfacet
  facet normal 0 0 -1
    outer loop
      vertex 3 -12 -5.75
      vertex 19.5729 -1.76336 -5.75
      vertex 20.7082 -11.4127 -5.75
    endloop
  endfacet
  facet normal -0 0 -1
    outer loop
      vertex 19.5729 -1.76336 -5.75
      vertex 3 -12 -5.75
      vertex 19.1468 -0.927051 -5.75
    endloop
  endfacet
  facet normal 0 0 -1
    outer loop
      vertex 3 -12 -5.75
      vertex 20.7082 -11.4127 -5.75
      vertex 5.56231 -17.119 -5.75
    endloop
  endfacet
  facet normal 0 0 -1
    outer loop
      vertex 24.4271 1.76336 -5.75
      vertex 28.4127 3.7082 -5.75
      vertex 24.8532 0.927051 -5.75
    endloop
  endfacet
  facet normal 0 0 -1
    outer loop
      vertex 23.7634 2.42705 -5.75
      vertex 28.4127 3.7082 -5.75
      vertex 24.4271 1.76336 -5.75
    endloop
  endfacet
  facet normal -0 0 -1
    outer loop
      vertex 28.4127 3.7082 -5.75
      vertex 23.7634 2.42705 -5.75
      vertex 26.7082 7.05342 -5.75
    endloop
  endfacet
  facet normal 0 0 -1
    outer loop
      vertex 22.9271 2.85317 -5.75
      vertex 26.7082 7.05342 -5.75
      vertex 23.7634 2.42705 -5.75
    endloop
  endfacet
  facet normal -0 0 -1
    outer loop
      vertex 26.7082 7.05342 -5.75
      vertex 22.9271 2.85317 -5.75
      vertex 24.0534 9.7082 -5.75
    endloop
  endfacet
  facet normal 0 0 -1
    outer loop
      vertex 22 3 -5.75
      vertex 24.0534 9.7082 -5.75
      vertex 22.9271 2.85317 -5.75
    endloop
  endfacet
  facet normal 0 0 -1
    outer loop
      vertex 21.0729 2.85317 -5.75
      vertex 24.0534 9.7082 -5.75
      vertex 22 3 -5.75
    endloop
  endfacet
  facet normal 0 0 -1
    outer loop
      vertex 21.0729 2.85317 -5.75
      vertex 20.7082 11.4127 -5.75
      vertex 24.0534 9.7082 -5.75
    endloop
  endfacet
  facet normal 0 0 -1
    outer loop
      vertex 20.2366 2.42705 -5.75
      vertex 20.7082 11.4127 -5.75
      vertex 21.0729 2.85317 -5.75
    endloop
  endfacet
  facet normal 0 0 -1
    outer loop
      vertex 19.5729 1.76336 -5.75
      vertex 20.7082 11.4127 -5.75
      vertex 20.2366 2.42705 -5.75
    endloop
  endfacet
  facet normal 0 0 -1
    outer loop
      vertex 3 12 -5.75
      vertex 19.5729 1.76336 -5.75
      vertex 19.1468 0.927051 -5.75
    endloop
  endfacet
  facet normal 0 0 -1
    outer loop
      vertex 3 12 -5.75
      vertex 19.1468 0.927051 -5.75
      vertex 19 0 -5.75
    endloop
  endfacet
  facet normal -0 0 -1
    outer loop
      vertex 19.1468 -0.927051 -5.75
      vertex 3 -12 -5.75
      vertex 19 0 -5.75
    endloop
  endfacet
  facet normal 0 0 -1
    outer loop
      vertex 3 12 -5.75
      vertex 19 0 -5.75
      vertex 3 -12 -5.75
    endloop
  endfacet
  facet normal 0 0 -1
    outer loop
      vertex 3 12 -5.75
      vertex 20.7082 11.4127 -5.75
      vertex 19.5729 1.76336 -5.75
    endloop
  endfacet
  facet normal 0 0 -1
    outer loop
      vertex 0 -18 -5.75
      vertex 3 -12 -5.75
      vertex 5.56231 -17.119 -5.75
    endloop
  endfacet
  facet normal 0 0 -1
    outer loop
      vertex 0 -18 -5.75
      vertex -3 -12 -5.75
      vertex 3 -12 -5.75
    endloop
  endfacet
  facet normal 0 0 -1
    outer loop
      vertex -19 0 -5.75
      vertex -3 -12 -5.75
      vertex -5.56231 -17.119 -5.75
    endloop
  endfacet
  facet normal 0 0 -1
    outer loop
      vertex -5.56231 -17.119 -5.75
      vertex -3 -12 -5.75
      vertex 0 -18 -5.75
    endloop
  endfacet
  facet normal 0.707107 0.707107 0
    outer loop
      vertex 26.7082 7.05342 -3.25
      vertex 24.0534 9.7082 -5.75
      vertex 24.0534 9.7082 -3.25
    endloop
  endfacet
  facet normal 0.707107 0.707107 0
    outer loop
      vertex 24.0534 9.7082 -5.75
      vertex 26.7082 7.05342 -3.25
      vertex 26.7082 7.05342 -5.75
    endloop
  endfacet
  facet normal -0.891006 0.453991 0
    outer loop
      vertex -28.4127 3.7082 -5.75
      vertex -26.7082 7.05342 -3.25
      vertex -26.7082 7.05342 -5.75
    endloop
  endfacet
  facet normal -0.891006 0.453991 0
    outer loop
      vertex -26.7082 7.05342 -3.25
      vertex -28.4127 3.7082 -5.75
      vertex -28.4127 3.7082 -3.25
    endloop
  endfacet
  facet normal -0 0 1
    outer loop
      vertex 24.8532 0.927051 -3.25
      vertex 29 0 -3.25
      vertex 28.4127 3.7082 -3.25
    endloop
  endfacet
  facet normal 0 0 1
    outer loop
      vertex 23.7634 2.42705 -3.25
      vertex 28.4127 3.7082 -3.25
      vertex 26.7082 7.05342 -3.25
    endloop
  endfacet
  facet normal 0 0 1
    outer loop
      vertex 29 0 -3.25
      vertex 24.8532 0.927051 -3.25
      vertex 25 0 -3.25
    endloop
  endfacet
  facet normal 0 0 1
    outer loop
      vertex 29 0 -3.25
      vertex 24.8532 -0.927051 -3.25
      vertex 28.4127 -3.7082 -3.25
    endloop
  endfacet
  facet normal 0 0 1
    outer loop
      vertex 24.8532 -0.927051 -3.25
      vertex 29 0 -3.25
      vertex 25 0 -3.25
    endloop
  endfacet
  facet normal 0 0 1
    outer loop
      vertex 28.4127 3.7082 -3.25
      vertex 24.4271 1.76336 -3.25
      vertex 24.8532 0.927051 -3.25
    endloop
  endfacet
  facet normal 0 0 1
    outer loop
      vertex 22.9271 2.85317 -3.25
      vertex 26.7082 7.05342 -3.25
      vertex 24.0534 9.7082 -3.25
    endloop
  endfacet
  facet normal 0 0 1
    outer loop
      vertex 28.4127 3.7082 -3.25
      vertex 23.7634 2.42705 -3.25
      vertex 24.4271 1.76336 -3.25
    endloop
  endfacet
  facet normal 0 0 1
    outer loop
      vertex 26.7082 7.05342 -3.25
      vertex 22.9271 2.85317 -3.25
      vertex 23.7634 2.42705 -3.25
    endloop
  endfacet
  facet normal 0 0 1
    outer loop
      vertex 24.0534 9.7082 -3.25
      vertex 22 3 -3.25
      vertex 22.9271 2.85317 -3.25
    endloop
  endfacet
  facet normal 0 0 1
    outer loop
      vertex 24.0534 9.7082 -3.25
      vertex 21.0729 2.85317 -3.25
      vertex 22 3 -3.25
    endloop
  endfacet
  facet normal 0 0 1
    outer loop
      vertex 20.7082 11.4127 -3.25
      vertex 21.0729 2.85317 -3.25
      vertex 24.0534 9.7082 -3.25
    endloop
  endfacet
  facet normal 0 0 1
    outer loop
      vertex 20.7082 11.4127 -3.25
      vertex 20.2366 2.42705 -3.25
      vertex 21.0729 2.85317 -3.25
    endloop
  endfacet
  facet normal -0 0 1
    outer loop
      vertex 11.4721 4.70228 -3.25
      vertex 20.2366 2.42705 -3.25
      vertex 20.7082 11.4127 -3.25
    endloop
  endfacet
  facet normal -0 -0 1
    outer loop
      vertex 12.6085 2.47214 -3.25
      vertex 20.2366 2.42705 -3.25
      vertex 11.4721 4.70228 -3.25
    endloop
  endfacet
  facet normal 0 0 1
    outer loop
      vertex 20.2366 2.42705 -3.25
      vertex 12.6085 2.47214 -3.25
      vertex 19.5729 1.76336 -3.25
    endloop
  endfacet
  facet normal 0 -0 1
    outer loop
      vertex 13 0 -3.25
      vertex 19.1468 0.927051 -3.25
      vertex 12.6085 2.47214 -3.25
    endloop
  endfacet
  facet normal 0 0 1
    outer loop
      vertex 19.1468 0.927051 -3.25
      vertex 13 0 -3.25
      vertex 19 0 -3.25
    endloop
  endfacet
  facet normal 0 0 1
    outer loop
      vertex 19.5729 1.76336 -3.25
      vertex 12.6085 2.47214 -3.25
      vertex 19.1468 0.927051 -3.25
    endloop
  endfacet
  facet normal -0 0 1
    outer loop
      vertex 5.29007 14.5623 -3.25
      vertex 20.7082 11.4127 -3.25
      vertex 5.56231 17.119 -3.25
    endloop
  endfacet
  facet normal 0 0 1
    outer loop
      vertex 20.7082 11.4127 -3.25
      vertex 5.29007 14.5623 -3.25
      vertex 11.4721 4.70228 -3.25
    endloop
  endfacet
  facet normal 0 0 1
    outer loop
      vertex 5.56231 17.119 -3.25
      vertex 2.78115 17.119 -3.25
      vertex 5.29007 14.5623 -3.25
    endloop
  endfacet
  facet normal 0 -0 1
    outer loop
      vertex 2.78115 17.119 -3.25
      vertex 5.56231 17.119 -3.25
      vertex 0 18 -3.25
    endloop
  endfacet
  facet normal -0 0 1
    outer loop
      vertex 24.4271 -1.76336 -3.25
      vertex 28.4127 -3.7082 -3.25
      vertex 24.8532 -0.927051 -3.25
    endloop
  endfacet
  facet normal -0 0 1
    outer loop
      vertex 23.7634 -2.42705 -3.25
      vertex 28.4127 -3.7082 -3.25
      vertex 24.4271 -1.76336 -3.25
    endloop
  endfacet
  facet normal 0 0 1
    outer loop
      vertex 28.4127 -3.7082 -3.25
      vertex 23.7634 -2.42705 -3.25
      vertex 26.7082 -7.05342 -3.25
    endloop
  endfacet
  facet normal -0 0 1
    outer loop
      vertex 22.9271 -2.85317 -3.25
      vertex 26.7082 -7.05342 -3.25
      vertex 23.7634 -2.42705 -3.25
    endloop
  endfacet
  facet normal 0 0 1
    outer loop
      vertex 26.7082 -7.05342 -3.25
      vertex 22.9271 -2.85317 -3.25
      vertex 24.0534 -9.7082 -3.25
    endloop
  endfacet
  facet normal -0 0 1
    outer loop
      vertex 22 -3 -3.25
      vertex 24.0534 -9.7082 -3.25
      vertex 22.9271 -2.85317 -3.25
    endloop
  endfacet
  facet normal 0 0 1
    outer loop
      vertex 21.0729 -2.85317 -3.25
      vertex 24.0534 -9.7082 -3.25
      vertex 22 -3 -3.25
    endloop
  endfacet
  facet normal 0 0 1
    outer loop
      vertex 21.0729 -2.85317 -3.25
      vertex 20.7082 -11.4127 -3.25
      vertex 24.0534 -9.7082 -3.25
    endloop
  endfacet
  facet normal 0 0 1
    outer loop
      vertex 20.2366 -2.42705 -3.25
      vertex 20.7082 -11.4127 -3.25
      vertex 21.0729 -2.85317 -3.25
    endloop
  endfacet
  facet normal 0 0 1
    outer loop
      vertex 12.6085 -2.47214 -3.25
      vertex 20.2366 -2.42705 -3.25
      vertex 19.5729 -1.76336 -3.25
    endloop
  endfacet
  facet normal 0 0 1
    outer loop
      vertex 12.6085 -2.47214 -3.25
      vertex 19.5729 -1.76336 -3.25
      vertex 19.1468 -0.927051 -3.25
    endloop
  endfacet
  facet normal -0 0 1
    outer loop
      vertex 13 0 -3.25
      vertex 19.1468 -0.927051 -3.25
      vertex 19 0 -3.25
    endloop
  endfacet
  facet normal 0 0 1
    outer loop
      vertex 19.1468 -0.927051 -3.25
      vertex 13 0 -3.25
      vertex 12.6085 -2.47214 -3.25
    endloop
  endfacet
  facet normal 0 0 1
    outer loop
      vertex 20.2366 -2.42705 -3.25
      vertex 12.6085 -2.47214 -3.25
      vertex 11.4721 -4.70228 -3.25
    endloop
  endfacet
  facet normal 0 0 1
    outer loop
      vertex 20.2366 -2.42705 -3.25
      vertex 11.4721 -4.70228 -3.25
      vertex 20.7082 -11.4127 -3.25
    endloop
  endfacet
  facet normal 0 0 1
    outer loop
      vertex 5.29007 -14.5623 -3.25
      vertex 20.7082 -11.4127 -3.25
      vertex 11.4721 -4.70228 -3.25
    endloop
  endfacet
  facet normal 0 0 1
    outer loop
      vertex 20.7082 -11.4127 -3.25
      vertex 5.29007 -14.5623 -3.25
      vertex 5.56231 -17.119 -3.25
    endloop
  endfacet
  facet normal 0 0 1
    outer loop
      vertex 2.78115 -17.119 -3.25
      vertex 5.56231 -17.119 -3.25
      vertex 5.29007 -14.5623 -3.25
    endloop
  endfacet
  facet normal 0 0 1
    outer loop
      vertex 5.56231 -17.119 -3.25
      vertex 2.78115 -17.119 -3.25
      vertex 0 -18 -3.25
    endloop
  endfacet
  facet normal 0 0 1
    outer loop
      vertex -5.56231 17.119 -3.25
      vertex -2.78115 17.119 -3.25
      vertex 0 18 -3.25
    endloop
  endfacet
  facet normal -0 0 1
    outer loop
      vertex -5.56231 17.119 -3.25
      vertex -5.29007 14.5623 -3.25
      vertex -2.78115 17.119 -3.25
    endloop
  endfacet
  facet normal 0 0 1
    outer loop
      vertex -20.7082 11.4127 -3.25
      vertex -5.29007 14.5623 -3.25
      vertex -5.56231 17.119 -3.25
    endloop
  endfacet
  facet normal 0 0 1
    outer loop
      vertex -5.29007 14.5623 -3.25
      vertex -20.7082 11.4127 -3.25
      vertex -11.4721 4.70228 -3.25
    endloop
  endfacet
  facet normal -0 0 1
    outer loop
      vertex -19.1468 0.927051 -3.25
      vertex -13 0 -3.25
      vertex -12.6085 2.47214 -3.25
    endloop
  endfacet
  facet normal 0 -0 1
    outer loop
      vertex -20.2366 2.42705 -3.25
      vertex -11.4721 4.70228 -3.25
      vertex -20.7082 11.4127 -3.25
    endloop
  endfacet
  facet normal 0 0 1
    outer loop
      vertex -13 0 -3.25
      vertex -19.1468 0.927051 -3.25
      vertex -19 0 -3.25
    endloop
  endfacet
  facet normal 0 0 1
    outer loop
      vertex -12.6085 2.47214 -3.25
      vertex -19.5729 1.76336 -3.25
      vertex -19.1468 0.927051 -3.25
    endloop
  endfacet
  facet normal 0 0 1
    outer loop
      vertex -11.4721 4.70228 -3.25
      vertex -20.2366 2.42705 -3.25
      vertex -12.6085 2.47214 -3.25
    endloop
  endfacet
  facet normal 0 0 1
    outer loop
      vertex -12.6085 2.47214 -3.25
      vertex -20.2366 2.42705 -3.25
      vertex -19.5729 1.76336 -3.25
    endloop
  endfacet
  facet normal 0 0 1
    outer loop
      vertex -20.7082 11.4127 -3.25
      vertex -21.0729 2.85317 -3.25
      vertex -20.2366 2.42705 -3.25
    endloop
  endfacet
  facet normal -0 0 1
    outer loop
      vertex -24.0534 9.7082 -3.25
      vertex -21.0729 2.85317 -3.25
      vertex -20.7082 11.4127 -3.25
    endloop
  endfacet
  facet normal 0 0 1
    outer loop
      vertex -21.0729 2.85317 -3.25
      vertex -24.0534 9.7082 -3.25
      vertex -22 3 -3.25
    endloop
  endfacet
  facet normal 0 0 1
    outer loop
      vertex -22 3 -3.25
      vertex -24.0534 9.7082 -3.25
      vertex -22.9271 2.85317 -3.25
    endloop
  endfacet
  facet normal -0 0 1
    outer loop
      vertex -26.7082 7.05342 -3.25
      vertex -22.9271 2.85317 -3.25
      vertex -24.0534 9.7082 -3.25
    endloop
  endfacet
  facet normal 0 0 1
    outer loop
      vertex -22.9271 2.85317 -3.25
      vertex -26.7082 7.05342 -3.25
      vertex -23.7634 2.42705 -3.25
    endloop
  endfacet
  facet normal -0 0 1
    outer loop
      vertex -28.4127 3.7082 -3.25
      vertex -23.7634 2.42705 -3.25
      vertex -26.7082 7.05342 -3.25
    endloop
  endfacet
  facet normal 0 0 1
    outer loop
      vertex -23.7634 2.42705 -3.25
      vertex -28.4127 3.7082 -3.25
      vertex -24.4271 1.76336 -3.25
    endloop
  endfacet
  facet normal 0 0 1
    outer loop
      vertex -24.4271 1.76336 -3.25
      vertex -28.4127 3.7082 -3.25
      vertex -24.8532 0.927051 -3.25
    endloop
  endfacet
  facet normal 0 0 1
    outer loop
      vertex -2.78115 -17.119 -3.25
      vertex -5.56231 -17.119 -3.25
      vertex 0 -18 -3.25
    endloop
  endfacet
  facet normal 0 0 1
    outer loop
      vertex -5.29007 -14.5623 -3.25
      vertex -5.56231 -17.119 -3.25
      vertex -2.78115 -17.119 -3.25
    endloop
  endfacet
  facet normal -0 0 1
    outer loop
      vertex -20.7082 -11.4127 -3.25
      vertex -5.29007 -14.5623 -3.25
      vertex -11.4721 -4.70228 -3.25
    endloop
  endfacet
  facet normal 0 0 1
    outer loop
      vertex -20.2366 -2.42705 -3.25
      vertex -11.4721 -4.70228 -3.25
      vertex -12.6085 -2.47214 -3.25
    endloop
  endfacet
  facet normal 0 0 1
    outer loop
      vertex -19.1468 -0.927051 -3.25
      vertex -13 0 -3.25
      vertex -19 0 -3.25
    endloop
  endfacet
  facet normal 0 0 1
    outer loop
      vertex -13 0 -3.25
      vertex -19.1468 -0.927051 -3.25
      vertex -12.6085 -2.47214 -3.25
    endloop
  endfacet
  facet normal -0 0 1
    outer loop
      vertex -19.5729 -1.76336 -3.25
      vertex -12.6085 -2.47214 -3.25
      vertex -19.1468 -0.927051 -3.25
    endloop
  endfacet
  facet normal -0 0 1
    outer loop
      vertex -20.2366 -2.42705 -3.25
      vertex -12.6085 -2.47214 -3.25
      vertex -19.5729 -1.76336 -3.25
    endloop
  endfacet
  facet normal 0 0 1
    outer loop
      vertex -11.4721 -4.70228 -3.25
      vertex -20.2366 -2.42705 -3.25
      vertex -20.7082 -11.4127 -3.25
    endloop
  endfacet
  facet normal 0 0 1
    outer loop
      vertex -5.29007 -14.5623 -3.25
      vertex -20.7082 -11.4127 -3.25
      vertex -5.56231 -17.119 -3.25
    endloop
  endfacet
  facet normal -0 0 1
    outer loop
      vertex -21.0729 -2.85317 -3.25
      vertex -20.7082 -11.4127 -3.25
      vertex -20.2366 -2.42705 -3.25
    endloop
  endfacet
  facet normal 0 0 1
    outer loop
      vertex -24.0534 -9.7082 -3.25
      vertex -21.0729 -2.85317 -3.25
      vertex -22 -3 -3.25
    endloop
  endfacet
  facet normal 0 0 1
    outer loop
      vertex -24.0534 -9.7082 -3.25
      vertex -22 -3 -3.25
      vertex -22.9271 -2.85317 -3.25
    endloop
  endfacet
  facet normal 0 0 1
    outer loop
      vertex -26.7082 -7.05342 -3.25
      vertex -22.9271 -2.85317 -3.25
      vertex -23.7634 -2.42705 -3.25
    endloop
  endfacet
  facet normal 0 0 1
    outer loop
      vertex -21.0729 -2.85317 -3.25
      vertex -24.0534 -9.7082 -3.25
      vertex -20.7082 -11.4127 -3.25
    endloop
  endfacet
  facet normal 0 0 1
    outer loop
      vertex -28.4127 -3.7082 -3.25
      vertex -23.7634 -2.42705 -3.25
      vertex -24.4271 -1.76336 -3.25
    endloop
  endfacet
  facet normal 0 0 1
    outer loop
      vertex -28.4127 -3.7082 -3.25
      vertex -24.4271 -1.76336 -3.25
      vertex -24.8532 -0.927051 -3.25
    endloop
  endfacet
  facet normal -0 0 1
    outer loop
      vertex -29 0 -3.25
      vertex -24.8532 -0.927051 -3.25
      vertex -25 0 -3.25
    endloop
  endfacet
  facet normal 0 0 1
    outer loop
      vertex -29 0 -3.25
      vertex -24.8532 0.927051 -3.25
      vertex -28.4127 3.7082 -3.25
    endloop
  endfacet
  facet normal 0 0 1
    outer loop
      vertex -22.9271 -2.85317 -3.25
      vertex -26.7082 -7.05342 -3.25
      vertex -24.0534 -9.7082 -3.25
    endloop
  endfacet
  facet normal 0 0 1
    outer loop
      vertex -24.8532 0.927051 -3.25
      vertex -29 0 -3.25
      vertex -25 0 -3.25
    endloop
  endfacet
  facet normal 0 0 1
    outer loop
      vertex -23.7634 -2.42705 -3.25
      vertex -28.4127 -3.7082 -3.25
      vertex -26.7082 -7.05342 -3.25
    endloop
  endfacet
  facet normal 0 0 1
    outer loop
      vertex -24.8532 -0.927051 -3.25
      vertex -29 0 -3.25
      vertex -28.4127 -3.7082 -3.25
    endloop
  endfacet
  facet normal -0.352565 0.935787 0
    outer loop
      vertex -5.56231 17.119 -5.75
      vertex -20.7082 11.4127 -3.25
      vertex -5.56231 17.119 -3.25
    endloop
  endfacet
  facet normal -0.352565 0.935787 0
    outer loop
      vertex -20.7082 11.4127 -3.25
      vertex -5.56231 17.119 -5.75
      vertex -20.7082 11.4127 -5.75
    endloop
  endfacet
  facet normal 0.987688 -0.156435 0
    outer loop
      vertex 28.4127 -3.7082 -3.25
      vertex 29 0 -5.75
      vertex 29 0 -3.25
    endloop
  endfacet
  facet normal 0.987688 -0.156435 0
    outer loop
      vertex 29 0 -5.75
      vertex 28.4127 -3.7082 -3.25
      vertex 28.4127 -3.7082 -5.75
    endloop
  endfacet
  facet normal 0.156435 -0.987688 0
    outer loop
      vertex 0 -18 -5.75
      vertex 5.56231 -17.119 -3.25
      vertex 0 -18 -3.25
    endloop
  endfacet
  facet normal 0.156435 -0.987688 0
    outer loop
      vertex 5.56231 -17.119 -3.25
      vertex 0 -18 -5.75
      vertex 5.56231 -17.119 -5.75
    endloop
  endfacet
  facet normal -0.45399 -0.891007 0
    outer loop
      vertex -24.0534 -9.7082 -5.75
      vertex -20.7082 -11.4127 -3.25
      vertex -24.0534 -9.7082 -3.25
    endloop
  endfacet
  facet normal -0.45399 -0.891007 -0
    outer loop
      vertex -20.7082 -11.4127 -3.25
      vertex -24.0534 -9.7082 -5.75
      vertex -20.7082 -11.4127 -5.75
    endloop
  endfacet
  facet normal -0.707107 -0.707107 0
    outer loop
      vertex -24.0534 -9.7082 -5.75
      vertex -26.7082 -7.05342 -3.25
      vertex -26.7082 -7.05342 -5.75
    endloop
  endfacet
  facet normal -0.707107 -0.707107 0
    outer loop
      vertex -26.7082 -7.05342 -3.25
      vertex -24.0534 -9.7082 -5.75
      vertex -24.0534 -9.7082 -3.25
    endloop
  endfacet
  facet normal -0.987688 -0.156435 0
    outer loop
      vertex -28.4127 -3.7082 -5.75
      vertex -29 0 -3.25
      vertex -29 0 -5.75
    endloop
  endfacet
  facet normal -0.987688 -0.156435 0
    outer loop
      vertex -29 0 -3.25
      vertex -28.4127 -3.7082 -5.75
      vertex -28.4127 -3.7082 -3.25
    endloop
  endfacet
  facet normal 0.707107 -0.707107 0
    outer loop
      vertex 24.0534 -9.7082 -3.25
      vertex 26.7082 -7.05342 -5.75
      vertex 26.7082 -7.05342 -3.25
    endloop
  endfacet
  facet normal 0.707107 -0.707107 0
    outer loop
      vertex 26.7082 -7.05342 -5.75
      vertex 24.0534 -9.7082 -3.25
      vertex 24.0534 -9.7082 -5.75
    endloop
  endfacet
  facet normal 0.352565 -0.935787 0
    outer loop
      vertex 5.56231 -17.119 -5.75
      vertex 20.7082 -11.4127 -3.25
      vertex 5.56231 -17.119 -3.25
    endloop
  endfacet
  facet normal 0.352565 -0.935787 0
    outer loop
      vertex 20.7082 -11.4127 -3.25
      vertex 5.56231 -17.119 -5.75
      vertex 20.7082 -11.4127 -5.75
    endloop
  endfacet
  facet normal -0.352565 -0.935787 0
    outer loop
      vertex -20.7082 -11.4127 -5.75
      vertex -5.56231 -17.119 -3.25
      vertex -20.7082 -11.4127 -3.25
    endloop
  endfacet
  facet normal -0.352565 -0.935787 -0
    outer loop
      vertex -5.56231 -17.119 -3.25
      vertex -20.7082 -11.4127 -5.75
      vertex -5.56231 -17.119 -5.75
    endloop
  endfacet
  facet normal -0.891006 -0.453991 0
    outer loop
      vertex -26.7082 -7.05342 -5.75
      vertex -28.4127 -3.7082 -3.25
      vertex -28.4127 -3.7082 -5.75
    endloop
  endfacet
  facet normal -0.891006 -0.453991 0
    outer loop
      vertex -28.4127 -3.7082 -3.25
      vertex -26.7082 -7.05342 -5.75
      vertex -26.7082 -7.05342 -3.25
    endloop
  endfacet
  facet normal 0.45399 -0.891007 0
    outer loop
      vertex 20.7082 -11.4127 -5.75
      vertex 24.0534 -9.7082 -3.25
      vertex 20.7082 -11.4127 -3.25
    endloop
  endfacet
  facet normal 0.45399 -0.891007 0
    outer loop
      vertex 24.0534 -9.7082 -3.25
      vertex 20.7082 -11.4127 -5.75
      vertex 24.0534 -9.7082 -5.75
    endloop
  endfacet
  facet normal 1 0 0
    outer loop
      vertex -3 2.85317 -0.427052
      vertex -3 12 -0.25
      vertex -3 2.88121 -0.25
    endloop
  endfacet
  facet normal 1 0 0
    outer loop
      vertex -3 12 -0.25
      vertex -3 2.85317 -0.427052
      vertex -3 12 -5.75
    endloop
  endfacet
  facet normal 1 -0 0
    outer loop
      vertex -3 2.42705 -1.26336
      vertex -3 12 -5.75
      vertex -3 2.85317 -0.427052
    endloop
  endfacet
  facet normal 1 -0 0
    outer loop
      vertex -3 1.76336 -1.92705
      vertex -3 12 -5.75
      vertex -3 2.42705 -1.26336
    endloop
  endfacet
  facet normal 1 -0 0
    outer loop
      vertex -3 0.927051 -2.35317
      vertex -3 12 -5.75
      vertex -3 1.76336 -1.92705
    endloop
  endfacet
  facet normal 1 -0 0
    outer loop
      vertex -3 0.337109 -2.44661
      vertex -3 12 -5.75
      vertex -3 0.927051 -2.35317
    endloop
  endfacet
  facet normal 1 -0 0
    outer loop
      vertex -3 0 -2.5
      vertex -3 12 -5.75
      vertex -3 0.337109 -2.44661
    endloop
  endfacet
  facet normal 1 0 0
    outer loop
      vertex -3 -12 -5.75
      vertex -3 0 -2.5
      vertex -3 -0.337109 -2.44661
    endloop
  endfacet
  facet normal 1 0 0
    outer loop
      vertex -3 -12 -5.75
      vertex -3 -0.337109 -2.44661
      vertex -3 -0.927051 -2.35317
    endloop
  endfacet
  facet normal 1 -0 0
    outer loop
      vertex -3 -12 -0.25
      vertex -3 -2.85317 -0.427052
      vertex -3 -2.88121 -0.25
    endloop
  endfacet
  facet normal 1 0 0
    outer loop
      vertex -3 -12 -5.75
      vertex -3 -2.85317 -0.427052
      vertex -3 -12 -0.25
    endloop
  endfacet
  facet normal 1 0 0
    outer loop
      vertex -3 -2.85317 -0.427052
      vertex -3 -12 -5.75
      vertex -3 -2.42705 -1.26336
    endloop
  endfacet
  facet normal 1 0 0
    outer loop
      vertex -3 -2.42705 -1.26336
      vertex -3 -12 -5.75
      vertex -3 -1.76336 -1.92705
    endloop
  endfacet
  facet normal 1 0 0
    outer loop
      vertex -3 -1.76336 -1.92705
      vertex -3 -12 -5.75
      vertex -3 -0.927051 -2.35317
    endloop
  endfacet
  facet normal 1 0 0
    outer loop
      vertex -3 0 -2.5
      vertex -3 -12 -5.75
      vertex -3 12 -5.75
    endloop
  endfacet
  facet normal -1 0 0
    outer loop
      vertex 3 2.85317 -0.427052
      vertex 3 12 -0.25
      vertex 3 12 -5.75
    endloop
  endfacet
  facet normal -1 -0 0
    outer loop
      vertex 3 12 -0.25
      vertex 3 2.85317 -0.427052
      vertex 3 2.88121 -0.25
    endloop
  endfacet
  facet normal -1 0 0
    outer loop
      vertex 3 12 -5.75
      vertex 3 2.42705 -1.26336
      vertex 3 2.85317 -0.427052
    endloop
  endfacet
  facet normal -1 0 0
    outer loop
      vertex 3 12 -5.75
      vertex 3 1.76336 -1.92705
      vertex 3 2.42705 -1.26336
    endloop
  endfacet
  facet normal -1 0 0
    outer loop
      vertex 3 12 -5.75
      vertex 3 0.927051 -2.35317
      vertex 3 1.76336 -1.92705
    endloop
  endfacet
  facet normal -1 0 0
    outer loop
      vertex 3 12 -5.75
      vertex 3 0.589941 -2.40656
      vertex 3 0.927051 -2.35317
    endloop
  endfacet
  facet normal -1 0 0
    outer loop
      vertex 3 12 -5.75
      vertex 3 0 -2.5
      vertex 3 0.589941 -2.40656
    endloop
  endfacet
  facet normal -1 0 0
    outer loop
      vertex 3 -12 -5.75
      vertex 3 0 -2.5
      vertex 3 12 -5.75
    endloop
  endfacet
  facet normal -1 -0 0
    outer loop
      vertex 3 0 -2.5
      vertex 3 -12 -5.75
      vertex 3 -0.589941 -2.40656
    endloop
  endfacet
  facet normal -1 -0 0
    outer loop
      vertex 3 -0.589941 -2.40656
      vertex 3 -12 -5.75
      vertex 3 -0.927051 -2.35317
    endloop
  endfacet
  facet normal -1 0 0
    outer loop
      vertex 3 -12 -5.75
      vertex 3 -1.76336 -1.92705
      vertex 3 -0.927051 -2.35317
    endloop
  endfacet
  facet normal -1 0 0
    outer loop
      vertex 3 -12 -5.75
      vertex 3 -2.42705 -1.26336
      vertex 3 -1.76336 -1.92705
    endloop
  endfacet
  facet normal -1 0 0
    outer loop
      vertex 3 -12 -5.75
      vertex 3 -2.85317 -0.427052
      vertex 3 -2.42705 -1.26336
    endloop
  endfacet
  facet normal -1 0 0
    outer loop
      vertex 3 -12 -0.25
      vertex 3 -2.85317 -0.427052
      vertex 3 -12 -5.75
    endloop
  endfacet
  facet normal -1 0 0
    outer loop
      vertex 3 -2.85317 -0.427052
      vertex 3 -12 -0.25
      vertex 3 -2.88121 -0.25
    endloop
  endfacet
  facet normal 0 1 -0
    outer loop
      vertex 3 -12 -5.75
      vertex -3 -12 -0.25
      vertex 3 -12 -0.25
    endloop
  endfacet
  facet normal 0 1 0
    outer loop
      vertex -3 -12 -0.25
      vertex 3 -12 -5.75
      vertex -3 -12 -5.75
    endloop
  endfacet
  facet normal 0 -1 0
    outer loop
      vertex -3 12 -5.75
      vertex 3 12 -0.25
      vertex -3 12 -0.25
    endloop
  endfacet
  facet normal 0 -1 -0
    outer loop
      vertex 3 12 -0.25
      vertex -3 12 -5.75
      vertex 3 12 -5.75
    endloop
  endfacet
  facet normal -0.987688 -0.156436 0
    outer loop
      vertex 25 0 -5.75
      vertex 24.8532 0.927051 -3.25
      vertex 24.8532 0.927051 -5.75
    endloop
  endfacet
  facet normal -0.987688 -0.156436 0
    outer loop
      vertex 24.8532 0.927051 -3.25
      vertex 25 0 -5.75
      vertex 25 0 -3.25
    endloop
  endfacet
  facet normal 0.156434 -0.987688 0
    outer loop
      vertex 21.0729 2.85317 -5.75
      vertex 22 3 -3.25
      vertex 21.0729 2.85317 -3.25
    endloop
  endfacet
  facet normal 0.156434 -0.987688 0
    outer loop
      vertex 22 3 -3.25
      vertex 21.0729 2.85317 -5.75
      vertex 22 3 -5.75
    endloop
  endfacet
  facet normal -0.156434 0.987688 0
    outer loop
      vertex 22.9271 -2.85317 -5.75
      vertex 22 -3 -3.25
      vertex 22.9271 -2.85317 -3.25
    endloop
  endfacet
  facet normal -0.156434 0.987688 0
    outer loop
      vertex 22 -3 -3.25
      vertex 22.9271 -2.85317 -5.75
      vertex 22 -3 -5.75
    endloop
  endfacet
  facet normal -0.891007 0.453989 0
    outer loop
      vertex 24.4271 -1.76336 -5.75
      vertex 24.8532 -0.927051 -3.25
      vertex 24.8532 -0.927051 -5.75
    endloop
  endfacet
  facet normal -0.891007 0.453989 0
    outer loop
      vertex 24.8532 -0.927051 -3.25
      vertex 24.4271 -1.76336 -5.75
      vertex 24.4271 -1.76336 -3.25
    endloop
  endfacet
  facet normal -0.453991 -0.891006 0
    outer loop
      vertex 22.9271 2.85317 -5.75
      vertex 23.7634 2.42705 -3.25
      vertex 22.9271 2.85317 -3.25
    endloop
  endfacet
  facet normal -0.453991 -0.891006 -0
    outer loop
      vertex 23.7634 2.42705 -3.25
      vertex 22.9271 2.85317 -5.75
      vertex 23.7634 2.42705 -5.75
    endloop
  endfacet
  facet normal -0.891007 -0.453989 0
    outer loop
      vertex 24.8532 0.927051 -5.75
      vertex 24.4271 1.76336 -3.25
      vertex 24.4271 1.76336 -5.75
    endloop
  endfacet
  facet normal -0.891007 -0.453989 0
    outer loop
      vertex 24.4271 1.76336 -3.25
      vertex 24.8532 0.927051 -5.75
      vertex 24.8532 0.927051 -3.25
    endloop
  endfacet
  facet normal -0.156434 -0.987688 0
    outer loop
      vertex 22 3 -5.75
      vertex 22.9271 2.85317 -3.25
      vertex 22 3 -3.25
    endloop
  endfacet
  facet normal -0.156434 -0.987688 -0
    outer loop
      vertex 22.9271 2.85317 -3.25
      vertex 22 3 -5.75
      vertex 22.9271 2.85317 -5.75
    endloop
  endfacet
  facet normal 0.891006 -0.453991 0
    outer loop
      vertex 19.1468 0.927051 -3.25
      vertex 19.5729 1.76336 -5.75
      vertex 19.5729 1.76336 -3.25
    endloop
  endfacet
  facet normal 0.891006 -0.453991 0
    outer loop
      vertex 19.5729 1.76336 -5.75
      vertex 19.1468 0.927051 -3.25
      vertex 19.1468 0.927051 -5.75
    endloop
  endfacet
  facet normal 0.987688 -0.156434 0
    outer loop
      vertex 19 0 -3.25
      vertex 19.1468 0.927051 -5.75
      vertex 19.1468 0.927051 -3.25
    endloop
  endfacet
  facet normal 0.987688 -0.156434 0
    outer loop
      vertex 19.1468 0.927051 -5.75
      vertex 19 0 -3.25
      vertex 19 0 -5.75
    endloop
  endfacet
  facet normal 0.453991 -0.891006 0
    outer loop
      vertex 20.2366 2.42705 -5.75
      vertex 21.0729 2.85317 -3.25
      vertex 20.2366 2.42705 -3.25
    endloop
  endfacet
  facet normal 0.453991 -0.891006 0
    outer loop
      vertex 21.0729 2.85317 -3.25
      vertex 20.2366 2.42705 -5.75
      vertex 21.0729 2.85317 -5.75
    endloop
  endfacet
  facet normal -0.987688 0.156436 0
    outer loop
      vertex 24.8532 -0.927051 -5.75
      vertex 25 0 -3.25
      vertex 25 0 -5.75
    endloop
  endfacet
  facet normal -0.987688 0.156436 0
    outer loop
      vertex 25 0 -3.25
      vertex 24.8532 -0.927051 -5.75
      vertex 24.8532 -0.927051 -3.25
    endloop
  endfacet
  facet normal -0.707106 -0.707107 0
    outer loop
      vertex 23.7634 2.42705 -5.75
      vertex 24.4271 1.76336 -3.25
      vertex 23.7634 2.42705 -3.25
    endloop
  endfacet
  facet normal -0.707106 -0.707107 -0
    outer loop
      vertex 24.4271 1.76336 -3.25
      vertex 23.7634 2.42705 -5.75
      vertex 24.4271 1.76336 -5.75
    endloop
  endfacet
  facet normal 0.987688 0.156434 0
    outer loop
      vertex 19.1468 -0.927051 -3.25
      vertex 19 0 -5.75
      vertex 19 0 -3.25
    endloop
  endfacet
  facet normal 0.987688 0.156434 0
    outer loop
      vertex 19 0 -5.75
      vertex 19.1468 -0.927051 -3.25
      vertex 19.1468 -0.927051 -5.75
    endloop
  endfacet
  facet normal 0.707106 -0.707107 0
    outer loop
      vertex 19.5729 1.76336 -5.75
      vertex 20.2366 2.42705 -3.25
      vertex 19.5729 1.76336 -3.25
    endloop
  endfacet
  facet normal 0.707106 -0.707107 0
    outer loop
      vertex 20.2366 2.42705 -3.25
      vertex 19.5729 1.76336 -5.75
      vertex 20.2366 2.42705 -5.75
    endloop
  endfacet
  facet normal -0.453991 0.891006 0
    outer loop
      vertex 23.7634 -2.42705 -5.75
      vertex 22.9271 -2.85317 -3.25
      vertex 23.7634 -2.42705 -3.25
    endloop
  endfacet
  facet normal -0.453991 0.891006 0
    outer loop
      vertex 22.9271 -2.85317 -3.25
      vertex 23.7634 -2.42705 -5.75
      vertex 22.9271 -2.85317 -5.75
    endloop
  endfacet
  facet normal 0.891006 0.453991 0
    outer loop
      vertex 19.5729 -1.76336 -3.25
      vertex 19.1468 -0.927051 -5.75
      vertex 19.1468 -0.927051 -3.25
    endloop
  endfacet
  facet normal 0.891006 0.453991 0
    outer loop
      vertex 19.1468 -0.927051 -5.75
      vertex 19.5729 -1.76336 -3.25
      vertex 19.5729 -1.76336 -5.75
    endloop
  endfacet
  facet normal -0.707106 0.707107 0
    outer loop
      vertex 24.4271 -1.76336 -5.75
      vertex 23.7634 -2.42705 -3.25
      vertex 24.4271 -1.76336 -3.25
    endloop
  endfacet
  facet normal -0.707106 0.707107 0
    outer loop
      vertex 23.7634 -2.42705 -3.25
      vertex 24.4271 -1.76336 -5.75
      vertex 23.7634 -2.42705 -5.75
    endloop
  endfacet
  facet normal 0.156434 0.987688 -0
    outer loop
      vertex 22 -3 -5.75
      vertex 21.0729 -2.85317 -3.25
      vertex 22 -3 -3.25
    endloop
  endfacet
  facet normal 0.156434 0.987688 0
    outer loop
      vertex 21.0729 -2.85317 -3.25
      vertex 22 -3 -5.75
      vertex 21.0729 -2.85317 -5.75
    endloop
  endfacet
  facet normal 0.707106 0.707107 -0
    outer loop
      vertex 20.2366 -2.42705 -5.75
      vertex 19.5729 -1.76336 -3.25
      vertex 20.2366 -2.42705 -3.25
    endloop
  endfacet
  facet normal 0.707106 0.707107 0
    outer loop
      vertex 19.5729 -1.76336 -3.25
      vertex 20.2366 -2.42705 -5.75
      vertex 19.5729 -1.76336 -5.75
    endloop
  endfacet
  facet normal 0.453991 0.891006 -0
    outer loop
      vertex 21.0729 -2.85317 -5.75
      vertex 20.2366 -2.42705 -3.25
      vertex 21.0729 -2.85317 -3.25
    endloop
  endfacet
  facet normal 0.453991 0.891006 0
    outer loop
      vertex 20.2366 -2.42705 -3.25
      vertex 21.0729 -2.85317 -5.75
      vertex 20.2366 -2.42705 -5.75
    endloop
  endfacet
  facet normal -0.987688 -0.156434 0
    outer loop
      vertex -19 0 -5.75
      vertex -19.1468 0.927051 -3.25
      vertex -19.1468 0.927051 -5.75
    endloop
  endfacet
  facet normal -0.987688 -0.156434 0
    outer loop
      vertex -19.1468 0.927051 -3.25
      vertex -19 0 -5.75
      vertex -19 0 -3.25
    endloop
  endfacet
  facet normal 0.987688 -0.156436 0
    outer loop
      vertex -25 0 -3.25
      vertex -24.8532 0.927051 -5.75
      vertex -24.8532 0.927051 -3.25
    endloop
  endfacet
  facet normal 0.987688 -0.156436 0
    outer loop
      vertex -24.8532 0.927051 -5.75
      vertex -25 0 -3.25
      vertex -25 0 -5.75
    endloop
  endfacet
  facet normal -0.156434 -0.987688 0
    outer loop
      vertex -22 3 -5.75
      vertex -21.0729 2.85317 -3.25
      vertex -22 3 -3.25
    endloop
  endfacet
  facet normal -0.156434 -0.987688 -0
    outer loop
      vertex -21.0729 2.85317 -3.25
      vertex -22 3 -5.75
      vertex -21.0729 2.85317 -5.75
    endloop
  endfacet
  facet normal -0.707106 -0.707107 0
    outer loop
      vertex -20.2366 2.42705 -5.75
      vertex -19.5729 1.76336 -3.25
      vertex -20.2366 2.42705 -3.25
    endloop
  endfacet
  facet normal -0.707106 -0.707107 -0
    outer loop
      vertex -19.5729 1.76336 -3.25
      vertex -20.2366 2.42705 -5.75
      vertex -19.5729 1.76336 -5.75
    endloop
  endfacet
  facet normal -0.891006 -0.453991 0
    outer loop
      vertex -19.1468 0.927051 -5.75
      vertex -19.5729 1.76336 -3.25
      vertex -19.5729 1.76336 -5.75
    endloop
  endfacet
  facet normal -0.891006 -0.453991 0
    outer loop
      vertex -19.5729 1.76336 -3.25
      vertex -19.1468 0.927051 -5.75
      vertex -19.1468 0.927051 -3.25
    endloop
  endfacet
  facet normal -0.453991 -0.891006 0
    outer loop
      vertex -21.0729 2.85317 -5.75
      vertex -20.2366 2.42705 -3.25
      vertex -21.0729 2.85317 -3.25
    endloop
  endfacet
  facet normal -0.453991 -0.891006 -0
    outer loop
      vertex -20.2366 2.42705 -3.25
      vertex -21.0729 2.85317 -5.75
      vertex -20.2366 2.42705 -5.75
    endloop
  endfacet
  facet normal 0.453991 -0.891006 0
    outer loop
      vertex -23.7634 2.42705 -5.75
      vertex -22.9271 2.85317 -3.25
      vertex -23.7634 2.42705 -3.25
    endloop
  endfacet
  facet normal 0.453991 -0.891006 0
    outer loop
      vertex -22.9271 2.85317 -3.25
      vertex -23.7634 2.42705 -5.75
      vertex -22.9271 2.85317 -5.75
    endloop
  endfacet
  facet normal 0.156434 -0.987688 0
    outer loop
      vertex -22.9271 2.85317 -5.75
      vertex -22 3 -3.25
      vertex -22.9271 2.85317 -3.25
    endloop
  endfacet
  facet normal 0.156434 -0.987688 0
    outer loop
      vertex -22 3 -3.25
      vertex -22.9271 2.85317 -5.75
      vertex -22 3 -5.75
    endloop
  endfacet
  facet normal -0.156434 0.987688 0
    outer loop
      vertex -21.0729 -2.85317 -5.75
      vertex -22 -3 -3.25
      vertex -21.0729 -2.85317 -3.25
    endloop
  endfacet
  facet normal -0.156434 0.987688 0
    outer loop
      vertex -22 -3 -3.25
      vertex -21.0729 -2.85317 -5.75
      vertex -22 -3 -5.75
    endloop
  endfacet
  facet normal -0.891006 0.453991 0
    outer loop
      vertex -19.5729 -1.76336 -5.75
      vertex -19.1468 -0.927051 -3.25
      vertex -19.1468 -0.927051 -5.75
    endloop
  endfacet
  facet normal -0.891006 0.453991 0
    outer loop
      vertex -19.1468 -0.927051 -3.25
      vertex -19.5729 -1.76336 -5.75
      vertex -19.5729 -1.76336 -3.25
    endloop
  endfacet
  facet normal 0.987688 0.156436 0
    outer loop
      vertex -24.8532 -0.927051 -3.25
      vertex -25 0 -5.75
      vertex -25 0 -3.25
    endloop
  endfacet
  facet normal 0.987688 0.156436 0
    outer loop
      vertex -25 0 -5.75
      vertex -24.8532 -0.927051 -3.25
      vertex -24.8532 -0.927051 -5.75
    endloop
  endfacet
  facet normal 0.707106 -0.707107 0
    outer loop
      vertex -24.4271 1.76336 -5.75
      vertex -23.7634 2.42705 -3.25
      vertex -24.4271 1.76336 -3.25
    endloop
  endfacet
  facet normal 0.707106 -0.707107 0
    outer loop
      vertex -23.7634 2.42705 -3.25
      vertex -24.4271 1.76336 -5.75
      vertex -23.7634 2.42705 -5.75
    endloop
  endfacet
  facet normal 0.891007 -0.453989 0
    outer loop
      vertex -24.8532 0.927051 -3.25
      vertex -24.4271 1.76336 -5.75
      vertex -24.4271 1.76336 -3.25
    endloop
  endfacet
  facet normal 0.891007 -0.453989 0
    outer loop
      vertex -24.4271 1.76336 -5.75
      vertex -24.8532 0.927051 -3.25
      vertex -24.8532 0.927051 -5.75
    endloop
  endfacet
  facet normal -0.987688 0.156434 0
    outer loop
      vertex -19.1468 -0.927051 -5.75
      vertex -19 0 -3.25
      vertex -19 0 -5.75
    endloop
  endfacet
  facet normal -0.987688 0.156434 0
    outer loop
      vertex -19 0 -3.25
      vertex -19.1468 -0.927051 -5.75
      vertex -19.1468 -0.927051 -3.25
    endloop
  endfacet
  facet normal -0.453991 0.891006 0
    outer loop
      vertex -20.2366 -2.42705 -5.75
      vertex -21.0729 -2.85317 -3.25
      vertex -20.2366 -2.42705 -3.25
    endloop
  endfacet
  facet normal -0.453991 0.891006 0
    outer loop
      vertex -21.0729 -2.85317 -3.25
      vertex -20.2366 -2.42705 -5.75
      vertex -21.0729 -2.85317 -5.75
    endloop
  endfacet
  facet normal 0.707106 0.707107 -0
    outer loop
      vertex -23.7634 -2.42705 -5.75
      vertex -24.4271 -1.76336 -3.25
      vertex -23.7634 -2.42705 -3.25
    endloop
  endfacet
  facet normal 0.707106 0.707107 0
    outer loop
      vertex -24.4271 -1.76336 -3.25
      vertex -23.7634 -2.42705 -5.75
      vertex -24.4271 -1.76336 -5.75
    endloop
  endfacet
  facet normal 0.156434 0.987688 -0
    outer loop
      vertex -22 -3 -5.75
      vertex -22.9271 -2.85317 -3.25
      vertex -22 -3 -3.25
    endloop
  endfacet
  facet normal 0.156434 0.987688 0
    outer loop
      vertex -22.9271 -2.85317 -3.25
      vertex -22 -3 -5.75
      vertex -22.9271 -2.85317 -5.75
    endloop
  endfacet
  facet normal 0.891007 0.453989 0
    outer loop
      vertex -24.4271 -1.76336 -3.25
      vertex -24.8532 -0.927051 -5.75
      vertex -24.8532 -0.927051 -3.25
    endloop
  endfacet
  facet normal 0.891007 0.453989 0
    outer loop
      vertex -24.8532 -0.927051 -5.75
      vertex -24.4271 -1.76336 -3.25
      vertex -24.4271 -1.76336 -5.75
    endloop
  endfacet
  facet normal -0.707106 0.707107 0
    outer loop
      vertex -19.5729 -1.76336 -5.75
      vertex -20.2366 -2.42705 -3.25
      vertex -19.5729 -1.76336 -3.25
    endloop
  endfacet
  facet normal -0.707106 0.707107 0
    outer loop
      vertex -20.2366 -2.42705 -3.25
      vertex -19.5729 -1.76336 -5.75
      vertex -20.2366 -2.42705 -5.75
    endloop
  endfacet
  facet normal 0.453991 0.891006 -0
    outer loop
      vertex -22.9271 -2.85317 -5.75
      vertex -23.7634 -2.42705 -3.25
      vertex -22.9271 -2.85317 -3.25
    endloop
  endfacet
  facet normal 0.453991 0.891006 0
    outer loop
      vertex -23.7634 -2.42705 -3.25
      vertex -22.9271 -2.85317 -5.75
      vertex -23.7634 -2.42705 -5.75
    endloop
  endfacet
  facet normal 0.987688 0.156435 0
    outer loop
      vertex 13 0 -0.25
      vertex 12.6085 2.47214 -3.25
      vertex 12.6085 2.47214 -0.25
    endloop
  endfacet
  facet normal 0.987688 0.156435 0
    outer loop
      vertex 12.6085 2.47214 -3.25
      vertex 13 0 -0.25
      vertex 13 0 -3.25
    endloop
  endfacet
  facet normal -0.987688 0.156435 0
    outer loop
      vertex -13 0 -3.25
      vertex -12.6085 2.47214 -0.25
      vertex -12.6085 2.47214 -3.25
    endloop
  endfacet
  facet normal -0.987688 0.156435 0
    outer loop
      vertex -12.6085 2.47214 -0.25
      vertex -13 0 -3.25
      vertex -13 0 -0.25
    endloop
  endfacet
  facet normal 0.30198 0.953314 -0
    outer loop
      vertex 2.78115 17.119 -3.25
      vertex 0 18 -0.25
      vertex 2.78115 17.119 -0.25
    endloop
  endfacet
  facet normal 0.30198 0.953314 0
    outer loop
      vertex 0 18 -0.25
      vertex 2.78115 17.119 -3.25
      vertex 0 18 -3.25
    endloop
  endfacet
  facet normal 0.847242 0.531207 0
    outer loop
      vertex 11.4721 4.70228 -0.25
      vertex 5.29007 14.5623 -3.25
      vertex 5.29007 14.5623 -0.25
    endloop
  endfacet
  facet normal 0.847242 0.531207 0
    outer loop
      vertex 5.29007 14.5623 -3.25
      vertex 11.4721 4.70228 -0.25
      vertex 11.4721 4.70228 -3.25
    endloop
  endfacet
  facet normal 0.891007 0.45399 0
    outer loop
      vertex 12.6085 2.47214 -0.25
      vertex 11.4721 4.70228 -3.25
      vertex 11.4721 4.70228 -0.25
    endloop
  endfacet
  facet normal 0.891007 0.45399 0
    outer loop
      vertex 11.4721 4.70228 -3.25
      vertex 12.6085 2.47214 -0.25
      vertex 12.6085 2.47214 -3.25
    endloop
  endfacet
  facet normal 0.713747 0.700404 0
    outer loop
      vertex 5.29007 14.5623 -0.25
      vertex 2.78115 17.119 -3.25
      vertex 2.78115 17.119 -0.25
    endloop
  endfacet
  facet normal 0.713747 0.700404 0
    outer loop
      vertex 2.78115 17.119 -3.25
      vertex 5.29007 14.5623 -0.25
      vertex 5.29007 14.5623 -3.25
    endloop
  endfacet
  facet normal -0.713747 0.700404 0
    outer loop
      vertex -5.29007 14.5623 -3.25
      vertex -2.78115 17.119 -0.25
      vertex -2.78115 17.119 -3.25
    endloop
  endfacet
  facet normal -0.713747 0.700404 0
    outer loop
      vertex -2.78115 17.119 -0.25
      vertex -5.29007 14.5623 -3.25
      vertex -5.29007 14.5623 -0.25
    endloop
  endfacet
  facet normal -0.847242 0.531207 0
    outer loop
      vertex -11.4721 4.70228 -3.25
      vertex -5.29007 14.5623 -0.25
      vertex -5.29007 14.5623 -3.25
    endloop
  endfacet
  facet normal -0.847242 0.531207 0
    outer loop
      vertex -5.29007 14.5623 -0.25
      vertex -11.4721 4.70228 -3.25
      vertex -11.4721 4.70228 -0.25
    endloop
  endfacet
  facet normal -0.30198 0.953314 0
    outer loop
      vertex 0 18 -3.25
      vertex -2.78115 17.119 -0.25
      vertex 0 18 -0.25
    endloop
  endfacet
  facet normal -0.30198 0.953314 0
    outer loop
      vertex -2.78115 17.119 -0.25
      vertex 0 18 -3.25
      vertex -2.78115 17.119 -3.25
    endloop
  endfacet
  facet normal -0.713747 -0.700404 0
    outer loop
      vertex -2.78115 -17.119 -3.25
      vertex -5.29007 -14.5623 -0.25
      vertex -5.29007 -14.5623 -3.25
    endloop
  endfacet
  facet normal -0.713747 -0.700404 0
    outer loop
      vertex -5.29007 -14.5623 -0.25
      vertex -2.78115 -17.119 -3.25
      vertex -2.78115 -17.119 -0.25
    endloop
  endfacet
  facet normal -0.891007 0.45399 0
    outer loop
      vertex -12.6085 2.47214 -3.25
      vertex -11.4721 4.70228 -0.25
      vertex -11.4721 4.70228 -3.25
    endloop
  endfacet
  facet normal -0.891007 0.45399 0
    outer loop
      vertex -11.4721 4.70228 -0.25
      vertex -12.6085 2.47214 -3.25
      vertex -12.6085 2.47214 -0.25
    endloop
  endfacet
  facet normal -0 0 1
    outer loop
      vertex -11.4721 -4.70228 -0.25
      vertex -3 -12 -0.25
      vertex -3 -2.88121 -0.25
    endloop
  endfacet
  facet normal 0 0 1
    outer loop
      vertex -11.4721 -4.70228 -0.25
      vertex -3 -2.88121 -0.25
      vertex -11 -2.88121 -0.25
    endloop
  endfacet
  facet normal 0 0 1
    outer loop
      vertex -3 -12 -0.25
      vertex -11.4721 -4.70228 -0.25
      vertex -5.29007 -14.5623 -0.25
    endloop
  endfacet
  facet normal 0 0 1
    outer loop
      vertex -13 0 -0.25
      vertex -11 2.88121 -0.25
      vertex -12.6085 2.47214 -0.25
    endloop
  endfacet
  facet normal 0 0 1
    outer loop
      vertex -11 2.88121 -0.25
      vertex -13 0 -0.25
      vertex -11 -2.88121 -0.25
    endloop
  endfacet
  facet normal 0 0 1
    outer loop
      vertex -11 -2.88121 -0.25
      vertex -12.6085 -2.47214 -0.25
      vertex -11.4721 -4.70228 -0.25
    endloop
  endfacet
  facet normal 0 0 1
    outer loop
      vertex -11 -2.88121 -0.25
      vertex -13 0 -0.25
      vertex -12.6085 -2.47214 -0.25
    endloop
  endfacet
  facet normal 0 0 1
    outer loop
      vertex 2.78115 17.119 -0.25
      vertex 3 12 -0.25
      vertex 5.29007 14.5623 -0.25
    endloop
  endfacet
  facet normal 0 0 1
    outer loop
      vertex 0 18 -0.25
      vertex 3 12 -0.25
      vertex 2.78115 17.119 -0.25
    endloop
  endfacet
  facet normal 0 0 1
    outer loop
      vertex -3 12 -0.25
      vertex 0 18 -0.25
      vertex -2.78115 17.119 -0.25
    endloop
  endfacet
  facet normal 0 0 1
    outer loop
      vertex 0 18 -0.25
      vertex -3 12 -0.25
      vertex 3 12 -0.25
    endloop
  endfacet
  facet normal -0 0 1
    outer loop
      vertex -5.29007 14.5623 -0.25
      vertex -3 12 -0.25
      vertex -2.78115 17.119 -0.25
    endloop
  endfacet
  facet normal 0 0 1
    outer loop
      vertex -11.4721 4.70228 -0.25
      vertex -3 12 -0.25
      vertex -5.29007 14.5623 -0.25
    endloop
  endfacet
  facet normal 0 0 1
    outer loop
      vertex -3 12 -0.25
      vertex -11.4721 4.70228 -0.25
      vertex -3 2.88121 -0.25
    endloop
  endfacet
  facet normal 0 0 1
    outer loop
      vertex -12.6085 2.47214 -0.25
      vertex -11 2.88121 -0.25
      vertex -11.4721 4.70228 -0.25
    endloop
  endfacet
  facet normal 0 0 1
    outer loop
      vertex -3 2.88121 -0.25
      vertex -11.4721 4.70228 -0.25
      vertex -11 2.88121 -0.25
    endloop
  endfacet
  facet normal 0 0 1
    outer loop
      vertex 11 2.88121 -0.25
      vertex 13 0 -0.25
      vertex 12.6085 2.47214 -0.25
    endloop
  endfacet
  facet normal -0 0 1
    outer loop
      vertex 11 2.88121 -0.25
      vertex 12.6085 2.47214 -0.25
      vertex 11.4721 4.70228 -0.25
    endloop
  endfacet
  facet normal 0 0 1
    outer loop
      vertex 11 -2.88121 -0.25
      vertex 13 0 -0.25
      vertex 11 2.88121 -0.25
    endloop
  endfacet
  facet normal 0 0 1
    outer loop
      vertex 13 0 -0.25
      vertex 11 -2.88121 -0.25
      vertex 12.6085 -2.47214 -0.25
    endloop
  endfacet
  facet normal 0 0 1
    outer loop
      vertex 11.4721 4.70228 -0.25
      vertex 6.79836 2.88121 -0.25
      vertex 11 2.88121 -0.25
    endloop
  endfacet
  facet normal -0 0 1
    outer loop
      vertex 3 12 -0.25
      vertex 11.4721 4.70228 -0.25
      vertex 5.29007 14.5623 -0.25
    endloop
  endfacet
  facet normal 0 0 1
    outer loop
      vertex 11.4721 4.70228 -0.25
      vertex 3 12 -0.25
      vertex 6.79836 2.88121 -0.25
    endloop
  endfacet
  facet normal 0 0 1
    outer loop
      vertex 6.79836 2.88121 -0.25
      vertex 3 12 -0.25
      vertex 3 2.88121 -0.25
    endloop
  endfacet
  facet normal 0 0 1
    outer loop
      vertex 12.6085 -2.47214 -0.25
      vertex 11 -2.88121 -0.25
      vertex 11.4721 -4.70228 -0.25
    endloop
  endfacet
  facet normal -0 0 1
    outer loop
      vertex 6.79836 -2.88121 -0.25
      vertex 11.4721 -4.70228 -0.25
      vertex 11 -2.88121 -0.25
    endloop
  endfacet
  facet normal 0 0 1
    outer loop
      vertex 3 -12 -0.25
      vertex 11.4721 -4.70228 -0.25
      vertex 6.79836 -2.88121 -0.25
    endloop
  endfacet
  facet normal 0 0 1
    outer loop
      vertex 3 -12 -0.25
      vertex 6.79836 -2.88121 -0.25
      vertex 3 -2.88121 -0.25
    endloop
  endfacet
  facet normal 0 0 1
    outer loop
      vertex 11.4721 -4.70228 -0.25
      vertex 3 -12 -0.25
      vertex 5.29007 -14.5623 -0.25
    endloop
  endfacet
  facet normal 0 0 1
    outer loop
      vertex 3 -12 -0.25
      vertex 2.78115 -17.119 -0.25
      vertex 5.29007 -14.5623 -0.25
    endloop
  endfacet
  facet normal 0 0 1
    outer loop
      vertex 3 -12 -0.25
      vertex 0 -18 -0.25
      vertex 2.78115 -17.119 -0.25
    endloop
  endfacet
  facet normal -0 0 1
    outer loop
      vertex -3 -12 -0.25
      vertex 0 -18 -0.25
      vertex 3 -12 -0.25
    endloop
  endfacet
  facet normal 0 0 1
    outer loop
      vertex 0 -18 -0.25
      vertex -3 -12 -0.25
      vertex -2.78115 -17.119 -0.25
    endloop
  endfacet
  facet normal 0 0 1
    outer loop
      vertex -2.78115 -17.119 -0.25
      vertex -3 -12 -0.25
      vertex -5.29007 -14.5623 -0.25
    endloop
  endfacet
  facet normal 0.847242 -0.531207 0
    outer loop
      vertex 5.29007 -14.5623 -0.25
      vertex 11.4721 -4.70228 -3.25
      vertex 11.4721 -4.70228 -0.25
    endloop
  endfacet
  facet normal 0.847242 -0.531207 0
    outer loop
      vertex 11.4721 -4.70228 -3.25
      vertex 5.29007 -14.5623 -0.25
      vertex 5.29007 -14.5623 -3.25
    endloop
  endfacet
  facet normal 0.30198 -0.953314 0
    outer loop
      vertex 0 -18 -3.25
      vertex 2.78115 -17.119 -0.25
      vertex 0 -18 -0.25
    endloop
  endfacet
  facet normal 0.30198 -0.953314 0
    outer loop
      vertex 2.78115 -17.119 -0.25
      vertex 0 -18 -3.25
      vertex 2.78115 -17.119 -3.25
    endloop
  endfacet
  facet normal -0.30198 -0.953314 0
    outer loop
      vertex -2.78115 -17.119 -3.25
      vertex 0 -18 -0.25
      vertex -2.78115 -17.119 -0.25
    endloop
  endfacet
  facet normal -0.30198 -0.953314 -0
    outer loop
      vertex 0 -18 -0.25
      vertex -2.78115 -17.119 -3.25
      vertex 0 -18 -3.25
    endloop
  endfacet
  facet normal -0.847242 -0.531207 0
    outer loop
      vertex -5.29007 -14.5623 -3.25
      vertex -11.4721 -4.70228 -0.25
      vertex -11.4721 -4.70228 -3.25
    endloop
  endfacet
  facet normal -0.847242 -0.531207 0
    outer loop
      vertex -11.4721 -4.70228 -0.25
      vertex -5.29007 -14.5623 -3.25
      vertex -5.29007 -14.5623 -0.25
    endloop
  endfacet
  facet normal -0.987688 -0.156435 0
    outer loop
      vertex -12.6085 -2.47214 -3.25
      vertex -13 0 -0.25
      vertex -13 0 -3.25
    endloop
  endfacet
  facet normal -0.987688 -0.156435 0
    outer loop
      vertex -13 0 -0.25
      vertex -12.6085 -2.47214 -3.25
      vertex -12.6085 -2.47214 -0.25
    endloop
  endfacet
  facet normal 0.891007 -0.45399 0
    outer loop
      vertex 11.4721 -4.70228 -0.25
      vertex 12.6085 -2.47214 -3.25
      vertex 12.6085 -2.47214 -0.25
    endloop
  endfacet
  facet normal 0.891007 -0.45399 0
    outer loop
      vertex 12.6085 -2.47214 -3.25
      vertex 11.4721 -4.70228 -0.25
      vertex 11.4721 -4.70228 -3.25
    endloop
  endfacet
  facet normal 0.713747 -0.700404 0
    outer loop
      vertex 2.78115 -17.119 -0.25
      vertex 5.29007 -14.5623 -3.25
      vertex 5.29007 -14.5623 -0.25
    endloop
  endfacet
  facet normal 0.713747 -0.700404 0
    outer loop
      vertex 5.29007 -14.5623 -3.25
      vertex 2.78115 -17.119 -0.25
      vertex 2.78115 -17.119 -3.25
    endloop
  endfacet
  facet normal -0.891007 -0.45399 0
    outer loop
      vertex -11.4721 -4.70228 -3.25
      vertex -12.6085 -2.47214 -0.25
      vertex -12.6085 -2.47214 -3.25
    endloop
  endfacet
  facet normal -0.891007 -0.45399 0
    outer loop
      vertex -12.6085 -2.47214 -0.25
      vertex -11.4721 -4.70228 -3.25
      vertex -11.4721 -4.70228 -0.25
    endloop
  endfacet
  facet normal 0.987688 -0.156435 0
    outer loop
      vertex 12.6085 -2.47214 -0.25
      vertex 13 0 -3.25
      vertex 13 0 -0.25
    endloop
  endfacet
  facet normal 0.987688 -0.156435 0
    outer loop
      vertex 13 0 -3.25
      vertex 12.6085 -2.47214 -0.25
      vertex 12.6085 -2.47214 -3.25
    endloop
  endfacet
  facet normal 0 -0.156435 0.987688
    outer loop
      vertex -11 0.927051 -2.35317
      vertex -3 0.337109 -2.44661
      vertex -3 0.927051 -2.35317
    endloop
  endfacet
  facet normal 5.19296e-09 -0.156435 0.987688
    outer loop
      vertex -3 0.337109 -2.44661
      vertex -11 0.927051 -2.35317
      vertex -11 0 -2.5
    endloop
  endfacet
  facet normal 0 -0.156435 0.987688
    outer loop
      vertex 11 0.927051 -2.35317
      vertex 3 0.927051 -2.35317
      vertex 3 0.589941 -2.40656
    endloop
  endfacet
  facet normal -3.70394e-08 -0.156434 0.987688
    outer loop
      vertex 3 0.589941 -2.40656
      vertex 11 0 -2.5
      vertex 11 0.927051 -2.35317
    endloop
  endfacet
  facet normal -2.94354e-08 -0.156434 0.987688
    outer loop
      vertex 11 0 -2.5
      vertex 3 0.589941 -2.40656
      vertex 3 0 -2.5
    endloop
  endfacet
  facet normal -2.94354e-08 -0.156434 0.987688
    outer loop
      vertex -3 0 -2.5
      vertex -3 0.337109 -2.44661
      vertex -11 0 -2.5
    endloop
  endfacet
  facet normal -2.94354e-08 0.156434 0.987688
    outer loop
      vertex -3 -0.337109 -2.44661
      vertex -3 0 -2.5
      vertex -11 0 -2.5
    endloop
  endfacet
  facet normal -2.94354e-08 0.156434 0.987688
    outer loop
      vertex 3 -0.589941 -2.40656
      vertex 11 0 -2.5
      vertex 3 0 -2.5
    endloop
  endfacet
  facet normal -3.70394e-08 0.156434 0.987688
    outer loop
      vertex 11 0 -2.5
      vertex 3 -0.589941 -2.40656
      vertex 11 -0.927051 -2.35317
    endloop
  endfacet
  facet normal 0 -0.45399 0.891007
    outer loop
      vertex -11 1.76336 -1.92705
      vertex -3 0.927051 -2.35317
      vertex -3 1.76336 -1.92705
    endloop
  endfacet
  facet normal 0 -0.45399 0.891007
    outer loop
      vertex -3 0.927051 -2.35317
      vertex -11 1.76336 -1.92705
      vertex -11 0.927051 -2.35317
    endloop
  endfacet
  facet normal 0 -0.45399 0.891007
    outer loop
      vertex 3 1.76336 -1.92705
      vertex 11 0.927051 -2.35317
      vertex 11 1.76336 -1.92705
    endloop
  endfacet
  facet normal 0 -0.45399 0.891007
    outer loop
      vertex 11 0.927051 -2.35317
      vertex 3 1.76336 -1.92705
      vertex 3 0.927051 -2.35317
    endloop
  endfacet
  facet normal -0 0.45399 0.891007
    outer loop
      vertex 3 -0.927051 -2.35317
      vertex 11 -1.76336 -1.92705
      vertex 11 -0.927051 -2.35317
    endloop
  endfacet
  facet normal 0 0.45399 0.891007
    outer loop
      vertex 11 -1.76336 -1.92705
      vertex 3 -0.927051 -2.35317
      vertex 3 -1.76336 -1.92705
    endloop
  endfacet
  facet normal -0 0.45399 0.891007
    outer loop
      vertex -11 -0.927051 -2.35317
      vertex -3 -1.76336 -1.92705
      vertex -3 -0.927051 -2.35317
    endloop
  endfacet
  facet normal 0 0.45399 0.891007
    outer loop
      vertex -3 -1.76336 -1.92705
      vertex -11 -0.927051 -2.35317
      vertex -11 -1.76336 -1.92705
    endloop
  endfacet
  facet normal 0 -0.987688 0.156435
    outer loop
      vertex 11 2.85317 -0.427052
      vertex 11 2.88121 -0.25
      vertex 6.79836 2.88121 -0.25
    endloop
  endfacet
  facet normal 0 -0.707107 0.707107
    outer loop
      vertex 3 1.76336 -1.92705
      vertex 11 2.42705 -1.26336
      vertex 3 2.42705 -1.26336
    endloop
  endfacet
  facet normal 0 -0.707107 0.707107
    outer loop
      vertex 11 2.42705 -1.26336
      vertex 3 1.76336 -1.92705
      vertex 11 1.76336 -1.92705
    endloop
  endfacet
  facet normal 0 -0.707107 0.707107
    outer loop
      vertex -11 1.76336 -1.92705
      vertex -3 2.42705 -1.26336
      vertex -11 2.42705 -1.26336
    endloop
  endfacet
  facet normal 0 -0.707107 0.707107
    outer loop
      vertex -3 2.42705 -1.26336
      vertex -11 1.76336 -1.92705
      vertex -3 1.76336 -1.92705
    endloop
  endfacet
  facet normal 5.19296e-09 0.156435 0.987688
    outer loop
      vertex -11 -0.927051 -2.35317
      vertex -3 -0.337109 -2.44661
      vertex -11 0 -2.5
    endloop
  endfacet
  facet normal 0 0.156435 0.987688
    outer loop
      vertex -3 -0.337109 -2.44661
      vertex -11 -0.927051 -2.35317
      vertex -3 -0.927051 -2.35317
    endloop
  endfacet
  facet normal 0 0.156435 0.987688
    outer loop
      vertex 11 -0.927051 -2.35317
      vertex 3 -0.589941 -2.40656
      vertex 3 -0.927051 -2.35317
    endloop
  endfacet
  facet normal 0 -0.987688 0.156435
    outer loop
      vertex -11 2.85317 -0.427052
      vertex -3 2.88121 -0.25
      vertex -11 2.88121 -0.25
    endloop
  endfacet
  facet normal 0 -0.987688 0.156435
    outer loop
      vertex -3 2.88121 -0.25
      vertex -11 2.85317 -0.427052
      vertex -3 2.85317 -0.427052
    endloop
  endfacet
  facet normal 0 -0.987688 0.156435
    outer loop
      vertex 3 2.85317 -0.427052
      vertex 6.79836 2.88121 -0.25
      vertex 3 2.88121 -0.25
    endloop
  endfacet
  facet normal 0 -0.987688 0.156435
    outer loop
      vertex 6.79836 2.88121 -0.25
      vertex 3 2.85317 -0.427052
      vertex 11 2.85317 -0.427052
    endloop
  endfacet
  facet normal 0 -0.891006 0.453991
    outer loop
      vertex -11 2.42705 -1.26336
      vertex -3 2.85317 -0.427052
      vertex -11 2.85317 -0.427052
    endloop
  endfacet
  facet normal 0 -0.891006 0.453991
    outer loop
      vertex -3 2.85317 -0.427052
      vertex -11 2.42705 -1.26336
      vertex -3 2.42705 -1.26336
    endloop
  endfacet
  facet normal 0 -0.891006 0.453991
    outer loop
      vertex 3 2.42705 -1.26336
      vertex 11 2.85317 -0.427052
      vertex 3 2.85317 -0.427052
    endloop
  endfacet
  facet normal 0 -0.891006 0.453991
    outer loop
      vertex 11 2.85317 -0.427052
      vertex 3 2.42705 -1.26336
      vertex 11 2.42705 -1.26336
    endloop
  endfacet
  facet normal 0 0.987688 0.156435
    outer loop
      vertex 11 -2.88121 -0.25
      vertex 11 -2.85317 -0.427052
      vertex 6.79836 -2.88121 -0.25
    endloop
  endfacet
  facet normal -1 0 0
    outer loop
      vertex 11 2.42705 -1.26336
      vertex 11 2.88121 -0.25
      vertex 11 2.85317 -0.427052
    endloop
  endfacet
  facet normal -1 0 0
    outer loop
      vertex 11 1.76336 -1.92705
      vertex 11 2.88121 -0.25
      vertex 11 2.42705 -1.26336
    endloop
  endfacet
  facet normal -1 0 0
    outer loop
      vertex 11 0.927051 -2.35317
      vertex 11 2.88121 -0.25
      vertex 11 1.76336 -1.92705
    endloop
  endfacet
  facet normal -1 0 0
    outer loop
      vertex 11 0 -2.5
      vertex 11 2.88121 -0.25
      vertex 11 0.927051 -2.35317
    endloop
  endfacet
  facet normal -1 0 0
    outer loop
      vertex 11 -0.927051 -2.35317
      vertex 11 2.88121 -0.25
      vertex 11 0 -2.5
    endloop
  endfacet
  facet normal -1 0 0
    outer loop
      vertex 11 -1.76336 -1.92705
      vertex 11 2.88121 -0.25
      vertex 11 -0.927051 -2.35317
    endloop
  endfacet
  facet normal -1 0 0
    outer loop
      vertex 11 -2.88121 -0.25
      vertex 11 -1.76336 -1.92705
      vertex 11 -2.42705 -1.26336
    endloop
  endfacet
  facet normal -1 0 0
    outer loop
      vertex 11 -2.88121 -0.25
      vertex 11 -2.42705 -1.26336
      vertex 11 -2.85317 -0.427052
    endloop
  endfacet
  facet normal -1 0 0
    outer loop
      vertex 11 -1.76336 -1.92705
      vertex 11 -2.88121 -0.25
      vertex 11 2.88121 -0.25
    endloop
  endfacet
  facet normal -0 0.987688 0.156435
    outer loop
      vertex 3 -2.85317 -0.427052
      vertex 6.79836 -2.88121 -0.25
      vertex 11 -2.85317 -0.427052
    endloop
  endfacet
  facet normal 0 0.987688 0.156435
    outer loop
      vertex 6.79836 -2.88121 -0.25
      vertex 3 -2.85317 -0.427052
      vertex 3 -2.88121 -0.25
    endloop
  endfacet
  facet normal 0 0.987688 0.156435
    outer loop
      vertex -3 -2.85317 -0.427052
      vertex -11 -2.88121 -0.25
      vertex -3 -2.88121 -0.25
    endloop
  endfacet
  facet normal 0 0.987688 0.156435
    outer loop
      vertex -11 -2.88121 -0.25
      vertex -3 -2.85317 -0.427052
      vertex -11 -2.85317 -0.427052
    endloop
  endfacet
  facet normal 1 0 0
    outer loop
      vertex -11 2.88121 -0.25
      vertex -11 2.42705 -1.26336
      vertex -11 2.85317 -0.427052
    endloop
  endfacet
  facet normal 1 0 0
    outer loop
      vertex -11 2.88121 -0.25
      vertex -11 1.76336 -1.92705
      vertex -11 2.42705 -1.26336
    endloop
  endfacet
  facet normal 1 0 0
    outer loop
      vertex -11 2.88121 -0.25
      vertex -11 0.927051 -2.35317
      vertex -11 1.76336 -1.92705
    endloop
  endfacet
  facet normal 1 0 0
    outer loop
      vertex -11 2.88121 -0.25
      vertex -11 0 -2.5
      vertex -11 0.927051 -2.35317
    endloop
  endfacet
  facet normal 1 0 0
    outer loop
      vertex -11 2.88121 -0.25
      vertex -11 -0.927051 -2.35317
      vertex -11 0 -2.5
    endloop
  endfacet
  facet normal 1 0 0
    outer loop
      vertex -11 2.88121 -0.25
      vertex -11 -1.76336 -1.92705
      vertex -11 -0.927051 -2.35317
    endloop
  endfacet
  facet normal 1 -0 0
    outer loop
      vertex -11 -2.88121 -0.25
      vertex -11 -1.76336 -1.92705
      vertex -11 2.88121 -0.25
    endloop
  endfacet
  facet normal 1 0 0
    outer loop
      vertex -11 -1.76336 -1.92705
      vertex -11 -2.88121 -0.25
      vertex -11 -2.42705 -1.26336
    endloop
  endfacet
  facet normal 1 0 0
    outer loop
      vertex -11 -2.42705 -1.26336
      vertex -11 -2.88121 -0.25
      vertex -11 -2.85317 -0.427052
    endloop
  endfacet
  facet normal 0 0.891006 0.453991
    outer loop
      vertex 11 -2.42705 -1.26336
      vertex 3 -2.85317 -0.427052
      vertex 11 -2.85317 -0.427052
    endloop
  endfacet
  facet normal 0 0.891006 0.453991
    outer loop
      vertex 3 -2.85317 -0.427052
      vertex 11 -2.42705 -1.26336
      vertex 3 -2.42705 -1.26336
    endloop
  endfacet
  facet normal 0 0.891006 0.453991
    outer loop
      vertex -3 -2.42705 -1.26336
      vertex -11 -2.85317 -0.427052
      vertex -3 -2.85317 -0.427052
    endloop
  endfacet
  facet normal 0 0.891006 0.453991
    outer loop
      vertex -11 -2.85317 -0.427052
      vertex -3 -2.42705 -1.26336
      vertex -11 -2.42705 -1.26336
    endloop
  endfacet
  facet normal 0 0.707107 0.707107
    outer loop
      vertex 11 -1.76336 -1.92705
      vertex 3 -2.42705 -1.26336
      vertex 11 -2.42705 -1.26336
    endloop
  endfacet
  facet normal 0 0.707107 0.707107
    outer loop
      vertex 3 -2.42705 -1.26336
      vertex 11 -1.76336 -1.92705
      vertex 3 -1.76336 -1.92705
    endloop
  endfacet
  facet normal 0 0.707107 0.707107
    outer loop
      vertex -3 -1.76336 -1.92705
      vertex -11 -2.42705 -1.26336
      vertex -3 -2.42705 -1.26336
    endloop
  endfacet
  facet normal 0 0.707107 0.707107
    outer loop
      vertex -11 -2.42705 -1.26336
      vertex -3 -1.76336 -1.92705
      vertex -11 -1.76336 -1.92705
    endloop
  endfacet
endsolid OpenSCAD_Model
